<svg width="1000" height="556" viewBox="0 0 1000 556" fill="none" xmlns="http://www.w3.org/2000/svg">
<path fill-rule="evenodd" clip-rule="evenodd" d="M281.152 53.4753C302.575 -4.24143 375 -18.4874 416.845 26.7888C418.068 28.1126 419.256 29.4717 420.415 30.8523C430.329 42.6626 430.329 42.6704 442.94 34.7537C459.735 24.2098 478.057 19.8715 497.691 22.2244C523.129 25.2727 542.555 37.5629 553.183 61.4334C556.076 67.9312 559.983 71.2012 566.732 71.616C572.481 71.9693 578.263 72.8108 583.977 72.4919C600 71.5978 614.227 76.4442 628.546 83.2839C640.789 89.1321 654.326 92.2413 667.219 96.7664C682.966 102.293 697.722 109.58 710.652 120.447C719.716 128.064 724.384 137.499 726.398 149.033C731.847 180.245 741.347 210.466 748.685 240.488C753.658 243.078 756.607 240.25 759.731 238.833C803.497 218.978 848.26 215.313 893.014 233.883C955.913 259.982 992.629 306.654 999.263 375.472C1007.48 460.708 946.324 540.381 860.028 553.216C797.626 562.496 745.529 542.596 704.854 494.373C697.98 486.224 692.244 484.081 681.939 487.302C633.972 502.299 584.533 509.809 534.697 515.638C489.125 520.97 443.42 522.14 396.593 523.238C307.432 522.193 219.791 516.661 133.802 495.824C101.145 487.911 69.3184 477.527 40.0713 460.387C30.3197 454.673 21.6446 447.711 14.043 439.435C1.7453 426.047 -2.86996 410.934 1.77055 392.642C21.4321 315.141 42.6328 237.94 59.0176 159.738C66.0335 126.253 85.5294 110.628 113.303 99.1824C117.962 97.2624 122.744 95.5522 127.598 94.2097C143.259 89.8781 155.596 83.5314 165.856 68.4021C185.735 39.0898 232.262 36.2197 264.405 58.8386C274.526 65.9607 276.787 65.2372 281.152 53.4753ZM967.075 346.088C936.774 442.996 872.292 499.55 770.132 516.189C818.331 537.782 863.018 536.17 905.365 510.657C953.054 481.926 976.022 438.264 975.431 380.58C973.088 369.311 974.518 357.078 967.075 346.088ZM667.406 123.704C677.606 140.93 675.392 150.057 659.388 159.746C649.15 165.943 637.984 170.12 626.52 173.424C572.097 189.104 516.074 194.714 459.906 196.469C379.183 198.99 298.346 199.343 218.22 186.157C190.478 181.592 162.696 176.878 136.914 164.836C129.417 161.334 122.25 157.287 116.87 150.511C110.925 143.024 113.58 135.006 115.464 126.004C107.044 129.133 100.478 132.639 94.9952 138.034C86.2253 146.664 85.9051 153.076 93.8965 162.442C99.1378 168.585 105.94 172.691 112.875 176.598C137.996 190.754 165.498 198.072 193.28 204.565C214.676 209.566 236.103 214.431 257.487 219.48C260.991 220.308 265.344 221.62 265.02 225.937C264.647 230.893 259.891 231.246 255.881 231.614C254.089 231.778 252.277 231.764 250.475 231.754C206.007 231.501 163.16 222.855 121.692 206.971C107.574 201.563 94.7134 193.763 82.2696 185.448C78.6565 189.244 77.8826 193.144 76.9541 196.956C64.513 248.026 52.3635 299.171 39.4249 350.115C36.7512 360.642 38.9415 368.146 46.3594 375.361C61.6204 390.205 79.6503 400.606 99.1221 408.591C119.454 416.927 140.065 424.581 160.428 432.845C164.112 434.341 169.857 435.865 168.176 441.494C166.684 446.489 161.267 445.692 156.989 445.823C155.913 445.856 154.813 445.803 153.753 445.623C114.663 438.971 77.3412 427.535 43.9141 405.371C39.2274 402.263 35.8595 397.067 29.8438 395.989C24.043 406.613 25.5046 414.411 35.8184 424.589C48.3672 436.972 63.9179 444.599 81.4483 452.003C143.204 477.481 208.522 486.06 274.274 492.272C326.027 497.162 377.96 497.613 429.893 496.861C499.602 495.852 568.709 489.226 636.697 473.188C651.599 469.673 666.808 466.901 681.757 460.155C679.995 455.525 678.281 451.979 677.294 448.241C674.943 439.34 671.35 432.863 660.231 436.18C658.044 436.833 655.206 435.511 654.73 432.431C654.979 429.356 657.092 427.653 659.31 426.675C667.721 422.964 670.315 417.082 667.11 408.441C666.509 406.82 666.785 404.87 666.673 403.07C663.333 349.525 680.469 303.812 719.234 266.525C723.9 262.037 725.592 257.781 723.842 251.247C719.465 234.9 715.937 218.328 711.832 201.906C710.555 196.795 709.882 191.277 705.5 187.009C704.122 187.445 702.632 187.601 701.502 188.321C668.002 209.688 630.619 219.883 591.981 226.461C572.433 229.788 552.862 232.969 532.907 231.597C528.894 231.322 524.208 231.02 523.614 226.077C523.087 221.68 527.311 220.251 530.773 219.25C538.374 217.051 545.99 214.808 553.725 213.177C587.932 205.962 622.263 199.192 654.798 185.875C669.161 179.996 683.379 173.712 694.181 161.876C699.331 156.232 701.683 149.967 696.677 143.378C689.49 133.917 679.995 127.576 667.406 123.704ZM913.69 276.245C910.228 304.981 899.639 331.05 881.748 355.717C837.599 412.712 781.362 447.484 707.444 449.114C711.59 464.884 726.446 490.6 746.05 490.048C757.574 489.723 769.26 491.194 780.626 489.815C859.635 480.228 933.927 406.694 945.322 327.439C948.609 304.583 934.221 280.361 913.69 276.245ZM343.007 359.457C369.698 318.472 426.38 320.227 450.779 360.441C454.113 365.935 459.11 369.296 464.029 372.927C483.142 387.035 489.947 406.539 482.483 425.727C475.222 444.394 452.381 458.679 431.27 453.047C407.774 446.778 386.126 446.066 362.467 452.925C341.79 458.918 318.959 444.803 311.645 426.855C303.69 407.336 310.475 386.825 329.804 373.048C334.887 369.424 339.487 365.57 343.007 359.457ZM431.107 366.881C411.46 342.257 380.737 342.864 360.209 368.994C356.197 379.028 346.97 383.712 339.139 389.969C328.897 398.15 325.588 408.054 328.963 417.352C332.399 426.816 342.754 433.382 354.577 434.118C364.729 434.75 373.762 431.183 382.539 427.006C392.023 422.492 401.03 422.409 410.554 426.928C419.321 431.089 428.318 434.853 438.475 434.214C451.381 433.401 461.707 426.69 464.705 416.799C467.63 407.149 463.667 396.126 453.218 388.707C444.567 382.564 437.688 375.128 431.107 366.881ZM875.018 253.188C824.957 238.701 780.387 249.274 739.07 282.447C702.505 315.923 686.993 357.385 691.513 406.664C692.286 415.091 695.855 419.898 704.132 421.69C715.232 424.094 726.451 424.311 737.398 422.067C793.292 410.611 836.148 379.787 867.148 332.414C879.268 313.891 888.16 293.913 888.239 270.92C888.273 261.136 884.677 255.984 875.018 253.188ZM474.113 298.906C492.833 286.508 514.599 296.569 515.732 318.887C516.474 333.513 511.081 346.542 499.112 355.83C487.186 365.085 476.086 364.756 463.192 354.798C451.063 335.423 456.176 310.786 474.113 298.906ZM279.678 309.502C285.439 292.808 303.625 288.836 322.291 300.845C334.294 312.636 340.526 325.847 337.006 342.117C333.285 359.311 316.019 367.22 300.169 359.393C283.685 351.254 273.678 326.889 279.678 309.502ZM302.767 312.941C294.608 320.781 296.421 333.786 306.582 340.785C309.395 342.722 312.36 344.065 315.474 342.063C318.682 340 320.617 336.602 319.6 332.896C317.222 324.241 314.485 315.576 302.767 312.941ZM491.409 313.171C485.551 311.197 481.602 316.147 478.686 320.842C473.449 329.271 473.448 340.556 479.069 342.022C489.395 344.716 492.318 336.397 495.956 327.607C498.094 321.606 498.089 315.421 491.409 313.171ZM418.034 254.68C433.263 244.346 453.082 250.19 460.177 267.192C466.799 283.062 462.176 306.351 450.267 317.111C440.846 325.622 427.293 327.966 417.287 322.814C406.829 317.429 399.446 301.754 400.88 287.657C401.205 284.457 402.04 281.308 402.866 277.287C405.947 267.726 410.184 260.008 418.034 254.68ZM353.306 250.381C365.697 247.813 375.995 252.717 383.573 262.592C391.621 273.078 394.047 285.224 392.374 299.151C386.831 317.222 379.359 324.513 366.601 325.058C352.025 325.681 341.468 318.092 335.115 302.097C331.337 292.586 329.654 282.81 332.341 272.613C335.309 261.35 341.587 252.809 353.306 250.381ZM443.321 278.189C442.375 272.497 438.672 267.552 432.032 269.526C421.993 272.51 420.168 282.051 419.614 290.443C419.12 297.935 421.413 305.902 433.353 305.82C443.602 299.118 445.121 289.015 443.321 278.189ZM365.439 271.472C359.762 267.399 355.239 269.014 351.787 274.365C345.007 284.874 354.025 303.948 368.101 305.447C377.163 295.989 375.792 278.901 365.439 271.472ZM405.358 53.6873C392.775 32.49 369.61 21.9672 347.768 25.9236C324.304 30.1738 305.55 46.3722 302.562 69.4929C300.118 88.3959 284.649 86.7393 273.655 92.072C265.205 96.1709 259.845 89.2457 254.356 83.8777C242.426 72.2103 228.188 65.4522 211.373 68.8005C188.754 73.3046 177.585 86.1423 174.51 109.319C173.381 117.828 169.285 123.98 160.592 121.479C151.381 118.83 146.201 123.953 140.397 128.372C133.751 133.431 134.291 139.096 141.763 142.533C149.239 145.971 157.172 148.674 165.157 150.707C228.404 166.809 293.114 170.493 357.935 171.977C437.953 173.809 517.815 171.587 596.85 156.994C613.524 153.915 630.081 150.368 645.407 142.774C654.079 138.478 654.83 135.741 650.059 128.758C633.474 138.436 633.772 138.331 626.927 118.982C622.595 106.737 613.006 99.9535 600.427 97.6775C585.398 94.9584 571.801 98.5868 559.838 108.062C554.371 112.393 548.346 114.655 541.792 111.602C534.931 108.407 534.152 101.93 534.152 95.0593C534.155 65.6411 521.019 50.2735 490.414 45.6023C474.016 45.2702 460.352 52.0058 448.191 62.2771C443.696 66.0746 439.244 69.0063 433.052 69.7039C419.591 71.2202 411.943 64.7795 405.358 53.6873Z" fill="#CB9959"/>
</svg>
