<svg width="1000" height="848" viewBox="0 0 1000 848" fill="none" xmlns="http://www.w3.org/2000/svg">
<path d="M304.2 0C365.384 26.3972 402.933 59.8134 425.501 107.984C436.509 131.482 451.215 137.059 476.625 139.668C543.593 146.544 605.883 152.139 658.942 94.8281C675.704 76.7241 712.019 76.7224 739.385 68.4355C742.224 96.5739 746.767 124.682 747.284 152.862C747.611 170.664 744.69 189.625 738.395 206.234C722.36 248.535 723.241 289.708 735.085 332.941C749.034 383.859 737.66 430.889 710.335 476.789C676.613 533.435 691.722 591.44 715.765 647.961C737.504 699.067 759.319 750.167 779.457 801.909C784.52 814.92 783.284 830.383 775.339 848.01C770.934 841.12 765.23 834.733 762.333 827.259C742.263 775.488 727.21 721.201 701.896 672.189C674.895 619.91 671.139 565.658 670.958 509.957C670.917 497.391 678.852 483.277 686.692 472.472C721.408 424.628 724.982 373.724 711.686 317.316C705.046 289.151 707.962 257.869 711.067 228.474C715.686 184.76 724.304 141.47 732.472 90.125C679.72 101.076 644.141 120.948 619.603 156.202C603.925 178.726 589.136 180.938 563.471 173.968C531.869 165.385 497.829 162.183 464.979 162.9C437.184 163.506 423.919 154.972 410.414 130.203C391.155 94.8827 363.558 64.1084 333.419 23.083C303.418 75.5514 300.348 117.564 301.731 162.509C302.898 200.386 301.591 240.592 290.06 276.091C271.691 332.638 272.648 385.033 296.609 438.497C322.103 495.379 319.344 549.764 278.07 598.873C220.773 667.048 170.203 738.026 169.59 832.581C169.558 837.484 162.781 842.344 154.251 845.391C151.42 779.749 158.936 717.05 199.29 662.419C221.63 632.176 246.831 603.964 268.021 572.976C293.236 536.103 299.348 495.292 278.498 454.119C245.3 388.565 245.34 322.973 275.606 253.1C277.983 216.713 277.282 183.478 281.125 150.777C286.83 102.23 295.752 54.0615 304.2 0ZM776.477 410.041C828.407 436.532 880.342 463.017 932.209 489.631C932.651 489.857 932.615 492.116 932.062 492.913C931.323 493.979 929.86 494.542 925.963 494.725C871.968 471.043 820.719 447.958 769.471 424.873C771.806 419.929 774.141 414.985 776.477 410.041ZM229.195 397.141C200.666 407.832 172.136 418.523 140.562 430.327C115.018 439.524 92.5202 447.61 70.0225 455.695C68.4813 451.148 66.9403 446.602 65.3994 442.055C118.518 423.239 171.637 404.423 224.756 385.606C226.236 389.451 227.715 393.296 229.195 397.141ZM777.191 372.014C854.271 370.869 929.049 383.229 1000 418.331C955.627 410.58 911.253 402.829 863.239 394.464C831.497 390.168 803.395 386.485 775.293 382.803C775.926 379.206 776.559 375.61 777.191 372.014ZM216.483 352.989L1.98438 368.521C1.32303 365.278 0.661345 362.034 0 358.791C13.6041 355.461 27.2085 352.132 44.4707 348.524C104.067 345.735 160.007 343.224 215.945 340.714C216.125 344.806 216.304 348.898 216.483 352.989ZM962.787 324.214C951.426 324.91 940.065 325.606 924.926 326.3C873.021 329.789 824.895 333.28 776.77 336.771C776.441 332.133 776.112 327.494 775.783 322.855C837.735 318.509 899.686 314.161 961.638 309.814C962.021 314.614 962.404 319.414 962.787 324.214ZM39.1348 272.934C104.387 266.29 167.196 275.065 226.44 307.083C166.149 298.766 105.857 290.451 42.5254 280.844C39.3601 277.254 39.0283 272.947 39.1348 272.934Z" fill="#CB9959"/>
</svg>
