<svg width="608" height="850" viewBox="0 0 608 850" fill="none" xmlns="http://www.w3.org/2000/svg">
<path fill-rule="evenodd" clip-rule="evenodd" d="M96.2889 31.3999C124.204 4.28827 154.757 -6.85528 194.108 4.27584C211.898 9.30797 232.193 6.08193 251.319 5.51802C259.874 5.26635 268.764 -0.236623 276.797 1.04927C333.71 10.1628 390.298 2.60653 447.093 1.22799C461.258 0.884554 476.422 19.1313 490.196 30.0122C516.265 50.605 540.734 73.328 567.596 92.7788C593.705 111.683 602.906 133.822 587.923 162.763C578.584 180.8 562.068 195.14 552.865 213.221C544.324 230.003 541.584 249.671 535.592 267.838C531.091 281.483 528.895 301.492 519.406 306.3C510.049 311.042 492.71 300.539 479.096 296.047C475.297 294.793 472.288 291.142 465.882 286.293C451.012 333.505 448.106 379.133 478.394 416.776C518.562 466.696 534.461 521.537 539.798 584.297C543.075 622.835 558.877 661.78 575.829 697.309C596.486 740.603 608.998 784.278 607.66 831.964C607.504 837.527 605.315 843.033 596.785 848.782C594.276 831.613 592.965 814.161 588.983 797.341C582.769 771.092 579.6 742.461 566.508 719.835C536.356 667.731 518.654 613.405 517.825 553.334C517.279 513.77 503.201 479.082 478.01 448.894C441.209 404.794 429.376 354.546 444.221 299.506C454.975 259.629 446.896 222.355 436.305 184.469C432.794 171.91 432.024 158.584 428.918 138.659C463.728 156.97 457.558 184.227 462.411 206.752C466.68 226.567 469.041 247.317 476.931 265.635C481.84 277.03 495.467 284.67 504.261 293.11C510.258 289.541 513.542 288.579 513.624 287.396C516.859 240.624 532.332 200.536 566.722 166.183C585.044 147.882 579.914 125.497 556.563 107.994C528.081 86.643 500.492 63.6465 475.18 38.6626C454.199 17.9521 432.475 14.041 404.251 18.1518C376.012 22.2642 346.761 19.7354 317.959 19.5249C306.106 19.4381 293.439 14.6213 282.566 17.4428C243.96 27.4632 206.801 27.9485 167.401 18.3256C152.211 14.6152 129.932 26.567 115.18 37.2934C87.2919 57.5731 62.4984 82.1136 36.4442 104.912C13.6736 124.836 7.82096 153.174 29.7606 169.721C68.2773 198.772 84.4049 235.048 83.1287 281.488C83.0525 284.26 86.0238 287.116 89.5086 293.435C120.273 282.303 134.118 258.953 138.047 228.688C140.552 209.388 139.323 189.609 141.735 170.29C143.086 159.47 148.446 149.151 152 138.607C156.166 138.719 160.333 138.831 164.5 138.943C165.369 150.868 170.213 164.274 166.418 174.461C150.198 217.998 155.99 259.993 170.797 301.869C190.402 357.317 183.286 406.402 147.144 455.027C130.462 477.472 120.044 510.423 120.364 538.456C121.061 599.463 105.493 652.896 75.8533 705.668C57.652 738.076 49.667 776.333 38.0662 812.277C34.2107 824.223 33.3791 837.146 23.9735 850C22.4129 844.09 18.2685 837.451 19.6961 832.382C32.5303 786.816 40.9218 738.913 61.2059 696.796C88.1642 640.821 108.491 586.641 103.541 522.573C101.695 498.677 115.411 469.355 130.8 449.205C166.151 402.914 173.883 355.8 150.872 300.511C147.676 291.043 145.173 283.911 142.594 276.557C140.037 278.058 138.26 279.173 136.42 280.169C118.551 289.848 100.672 299.508 82.7957 309.172C76.6416 290.878 71.7544 272.025 63.9989 254.437C55.2108 234.507 47.7497 211.735 32.8866 197.16C-12.8522 152.305 -11.3388 116.984 40.3006 80.7046C60.5356 66.4888 78.454 48.7216 96.2889 31.3999ZM206.45 408.876C228.316 381.695 260.42 375.763 350.103 377.94C377.908 383.655 406.144 381.279 422.837 408.562C352.31 386.355 281.861 391.186 206.45 408.876Z" fill="#CB9959"/>
</svg>
