<svg width="740" height="850" viewBox="0 0 740 850" fill="none" xmlns="http://www.w3.org/2000/svg">
<path fill-rule="evenodd" clip-rule="evenodd" d="M350.4 224.867C368.601 209.786 379.473 209.34 397.854 224.369C469.318 282.799 540.73 341.292 612.131 399.8C634.674 418.271 657.081 436.909 679.634 455.368C687.349 461.683 692.823 468.854 690.799 479.561C688.882 489.701 681.054 493.71 672.523 496.656C657.803 501.739 642.884 502.802 627.828 497.948C626.391 497.485 624.888 497.173 623.392 496.964C622.532 496.843 621.623 497.069 619.954 497.201C618.136 505.783 619.527 514.568 618.946 524.125C618.746 577.87 618.58 630.707 618.332 683.544C618.272 696.502 618.839 697.256 631.832 700.266C660.798 706.976 689.857 713.47 716.789 726.644C721.049 728.728 728.709 730.038 726.72 736.43C724.724 742.845 717.476 740.568 712.297 739.903C689.644 736.993 668.093 729.261 645.881 724.335C604.332 715.12 562.135 710.65 520.007 705.532C517.105 705.179 514.62 706.191 512.282 707.684C495.399 718.466 477.263 727.206 461.08 739.125C458.884 740.743 456.687 742.39 454.676 744.227C449.338 749.106 449.367 753.601 456.198 756.932C463.008 760.254 469.895 763.445 476.89 766.352C487.274 770.667 497.742 774.824 507.015 781.294C526.595 794.955 528.259 813.764 511.235 830.305C499.481 841.726 485.146 847.814 468.853 849.163C465.214 849.464 460.962 849.522 459.684 845.139C458.37 840.634 462.317 838.771 465.451 837.042C475.024 831.759 484.829 826.821 492.773 819.104C502.285 809.863 501.783 804.18 490.72 796.65C482.867 791.305 473.78 788.568 465.066 785.048C455.223 781.071 445.149 777.505 436.549 771.019C423.73 761.351 421.838 749.009 431.467 736.209C440.274 724.503 453.141 717.861 465.079 710.107C468.012 708.202 471.669 707.157 473.572 701.472C450.67 703.804 429.007 695.222 406.705 705.213C372.66 720.464 337.342 732.828 303.321 748.24C292.687 753.057 281.867 757.774 273.861 766.587C276.939 772.743 282.073 774.378 286.422 776.963C293.472 781.153 300.7 785.085 305.975 791.628C315.229 803.107 313.625 816.26 301.701 824.849C288.097 834.647 272.076 838.641 256.287 842.946C242.516 846.701 228.397 848.824 214.153 849.925C212.06 850.086 209.899 849.99 207.828 849.655C204.133 849.057 200.354 848.015 199.844 843.551C199.402 839.671 202.286 837.466 205.347 835.934C214.916 831.148 225.291 828.784 235.543 826.009C248.418 822.524 261.285 818.962 273.99 814.915C278.696 813.416 285.45 812.198 285.847 806.473C286.237 800.85 279.584 798.98 275.476 796.091C269.771 792.078 263.555 788.722 258.182 784.322C245.25 773.732 245.068 760.67 257.543 749.388C267.128 740.72 278.742 735.176 290.413 730.115C312.388 720.586 334.649 711.72 357.711 702.198C354.851 700.145 352.318 700.351 349.85 700.345C317.35 700.277 284.946 702.504 252.651 705.666C202.826 710.543 153.357 718.023 104.461 728.967C74.2764 735.723 45.0575 746.381 14.4193 751.313C12.3279 751.65 10.2233 752.176 8.12833 752.16C4.5825 752.133 1.41372 750.951 0.276767 747.184C-0.787047 743.659 1.37403 741.155 4.06095 739.652C9.6101 736.548 15.2538 733.51 21.1313 731.114C49.8706 719.399 79.6718 711.037 109.931 704.455C118.359 702.621 121.261 699.25 121.207 690.541C120.838 631.003 121.001 571.462 120.949 511.922C120.937 498.647 120.822 498.462 107.65 501.045C92.3169 504.051 77.417 503.242 63.1567 496.586C45.1664 488.188 43.6686 471.755 59.2318 459.317C90.5411 434.296 121.556 408.905 152.906 383.935C158.985 379.093 161.135 373.678 161.072 365.976C160.758 328.016 160.911 290.051 161.038 252.088C161.089 237.014 167.763 230.361 182.687 230.301C203.944 230.217 225.203 230.225 246.46 230.345C260.529 230.425 267.812 237.716 267.92 251.647C268.012 263.367 267.94 275.088 267.94 286.524C274.123 288.097 276.849 284.71 279.748 282.369C303.372 263.292 327.019 244.24 350.4 224.867ZM382.815 305.682C375.673 299.262 371.337 300.596 364.661 305.937C294.976 361.687 225.099 417.198 155.119 472.578C149.584 476.958 147.231 481.545 147.247 488.67C147.4 553.963 147.197 619.257 147.175 684.551C147.174 688.091 146.303 691.857 148.697 695.338C153.215 696.193 157.612 694.77 162.014 694.025C197.006 688.102 232.184 683.403 267.534 680.577C306.545 677.458 345.679 675.773 384.838 676.925C393.619 677.183 396.33 674.323 396.237 665.554C395.844 628.812 395.834 592.059 396.212 555.316C396.528 524.7 417.208 497.911 446.673 488.781C476.223 479.625 507.4 489.786 525.209 514.414C535.203 528.234 539.025 544 539.075 560.735C539.188 599 539.016 637.266 539.058 675.531C539.063 679.818 537.61 685.109 544.557 686.014C560.12 688.042 575.668 690.191 590.949 692.254C594.142 688.204 592.976 684.1 592.98 680.3C593.046 616.22 592.871 552.138 593.166 488.059C593.205 479.642 590.638 474.039 584.057 468.761C532.19 427.169 480.585 385.251 427.865 342.642C412.783 330.394 397.246 318.655 382.815 305.682ZM507.662 529.572C498.105 514.405 483.563 506.512 466.397 507.061C439.664 507.917 419.574 529.84 419.269 556.867C418.854 593.609 419.281 630.361 419.041 667.106C418.994 674.436 421.539 677.145 428.977 677.458C454.121 678.513 479.255 679.981 504.361 681.746C515.227 682.51 516.44 681.987 516.456 670.878C516.503 637.471 516.47 604.065 516.47 568.859C517.429 554.889 515.245 541.606 507.662 529.572ZM315.483 476.04C324.64 475.974 332.132 478.649 338.325 486.388C341.442 491.545 342.371 496.533 342.366 501.801C342.332 532.786 342.427 563.771 342.318 594.755C342.26 611.052 333.604 620.672 317.209 620.927C284.42 621.439 251.614 621.412 218.824 620.975C203.727 620.774 195.667 611.61 195.565 596.396C195.35 564.514 195.218 532.631 195.061 500.748C194.982 484.645 203.486 476.141 219.825 476.125C251.711 476.092 283.598 476.27 315.483 476.04ZM244.157 557.651C237.814 557.968 231.475 558.412 225.128 558.563C219.726 558.692 217.568 561.445 217.69 566.598C217.883 574.767 218.095 582.938 218.078 591.108C218.066 596.455 220.482 598.818 225.791 598.742C233.657 598.629 241.538 598.469 249.391 598.815C256.31 599.12 258.451 595.87 258.137 589.478C257.84 583.44 258.122 577.374 258.13 571.32C258.147 559.079 258.141 559.078 244.157 557.651ZM310.203 557.754C303.539 557.896 296.883 558.401 290.22 558.61C277.814 558.999 276.689 560.154 277.32 572.367C278.692 598.945 278.692 598.946 305.374 598.747C319.518 598.641 319.517 598.641 319.639 583.081C319.648 577.921 319.288 572.727 319.755 567.609C320.424 560.287 316.769 557.613 310.203 557.754ZM312.65 497.367C303.847 497.474 295.042 497.468 286.239 497.474C280.276 497.478 277.234 500.163 277.484 506.382C277.812 514.562 278.069 522.751 278.087 530.936C278.101 537.061 280.954 539.794 286.983 539.744C295.178 539.676 303.375 539.804 311.571 539.799C314.641 539.797 317.767 539.775 319.501 534.69C319.556 524.671 319.549 514.65 319.692 504.632C319.762 499.732 317.666 497.306 312.65 497.367ZM255.582 498.481C245.385 496.325 235.066 497.804 224.808 497.479C220.232 497.334 218.241 499.967 218.224 504.313C218.188 513.718 218.161 523.123 218.184 532.527C218.195 536.889 220.466 539.484 224.812 539.558C233.904 539.714 243.004 539.711 252.095 539.523C255.517 539.453 257.995 537.401 257.96 533.811C257.851 522.367 259.893 510.838 255.582 498.481ZM384.752 243.441C377.059 237.1 372.286 237.486 364.772 243.53C275.12 315.636 185.165 387.363 95.4203 459.353C88.9788 464.52 81.3882 468.763 77.1732 476.479C89.4615 484.413 106.582 482.283 120.426 471.256C176.947 426.232 233.435 381.167 290.912 335.261C313.65 317.027 336.348 298.742 359.143 280.58C371.248 270.935 377.887 271.2 389.811 280.966C422.22 307.508 454.661 334.014 487.142 360.468C521.274 388.268 555.465 415.993 589.634 443.747C601.178 453.123 612.355 463.009 624.383 471.717C638.25 481.754 655.196 482.102 665.232 473.022C653.147 463.216 641.149 453.548 629.223 443.792C547.676 377.078 466.053 310.455 384.752 243.441ZM193.706 252.803C185.418 252.495 183.379 255.9 183.558 263.545C183.963 280.815 183.628 298.103 183.593 317.207C183.798 329.919 184.003 342.631 184.226 356.474C187.658 355.074 188.921 354.855 189.803 354.156C206.902 340.606 223.938 326.977 241.035 313.425C244.22 310.899 245.026 307.654 245.008 303.8C244.943 289.551 244.802 275.295 245.159 261.054C245.323 254.477 242.473 252.722 236.434 252.841C222.194 253.12 207.931 253.333 193.706 252.803ZM707.042 266.456C713.025 266.531 713.844 272.101 714.471 276.417C715.809 285.622 720.397 290.31 729.905 290.985C734.199 291.29 739.933 292.638 739.484 298.623C739.07 304.135 733.885 305.574 729.201 305.598C719.857 305.646 715.367 310.218 714.571 319.279C714.363 321.643 713.422 324.011 712.462 326.222C711.291 328.923 709.058 330.609 706.024 330.401C703.345 330.218 701.727 328.297 700.74 325.936C700.159 324.547 699.41 323.07 699.395 321.626C699.278 310.251 693.684 305.172 682.305 305.651C678.16 305.826 674.311 303.789 673.898 298.987C673.463 293.933 677.422 292.561 681.391 291.379C687.962 289.422 696.783 291.11 698.664 280.38C698.966 278.794 698.974 277.854 699.242 276.996C700.626 272.557 700.343 266.372 707.042 266.456ZM569.059 0.205781C578.505 0.349367 587.253 -1.13453 597.719 2.21945C554.464 37.1117 540.203 76.6103 575.9 122.989C589.314 140.417 609.036 148.835 631.548 150C653.756 151.148 671.857 141.503 690.212 127.406C692.203 139.32 688.929 148.31 684.998 156.847C658.357 214.719 587.567 237.183 531.393 205.791C469.083 170.969 453.723 89.5365 499.79 36.4929C517.79 15.7682 540.906 3.85293 569.059 0.205781ZM561.231 16.2732C527.639 26.527 505.709 45.906 494.124 78.4236C478.122 129.705 506.882 183.097 559.103 199.288C606.234 213.901 654.238 185.868 663.188 160.323C620.975 172.267 584.014 164.836 557.775 128.28C531.636 91.864 534.073 54.2674 561.231 16.2732ZM278.534 69.3171C284.693 69.832 285.752 73.8682 286.211 78.32C287.154 87.4637 290.883 93.5199 301.246 94.0837C305.592 94.3201 311.211 95.8698 310.967 101.653C310.706 107.844 305.136 108.686 300.146 108.845C292.265 109.098 287.633 112.61 287.035 120.763C286.969 121.653 286.559 122.513 286.343 123.395C285.183 128.135 284.341 133.882 278.076 133.578C271.745 133.271 271.075 127.088 270.904 122.539C270.554 113.285 265.855 109.611 257.255 109.233C254.884 109.129 252.424 108.632 250.219 107.767C247.598 106.74 245.538 104.787 245.663 101.626C245.772 98.9057 247.532 96.5981 249.927 96.3269C263.87 94.7481 272.378 88.1106 273.214 73.2702C273.326 71.2914 275.645 69.9048 278.534 69.3171Z" fill="#CB9959"/>
</svg>
