<svg width="1000" height="575" viewBox="0 0 1000 575" fill="none" xmlns="http://www.w3.org/2000/svg">
<path fill-rule="evenodd" clip-rule="evenodd" d="M367.306 532.037C373.362 531.314 382.411 528.4 383.594 538.265C384.743 547.845 375.962 547.332 369.446 548.425C342.074 553.018 315.11 559.117 289.568 570.382C287.434 571.323 285.284 572.234 283.111 573.082C277.936 575.102 272.349 576.596 269.616 570.108C267.051 564.018 270.975 560.46 276.345 557.945C287.99 552.489 299.981 547.962 312.862 543.784C331.119 538.153 349.062 534.218 367.306 532.037ZM799.736 1.2591C817.366 -2.08152 834.611 1.52122 851.049 8.57453C853.175 9.48649 855.697 10.472 856.973 12.2054C865.486 23.7694 879.17 26.6474 890.849 32.8968C949.945 64.5187 987.439 112.887 998.461 179.078C1006.09 224.919 985.278 265.268 937.488 275.575C908.776 281.767 882.608 272.806 857.608 259.469C846.526 253.557 835.714 247.135 824.602 241.282C814.034 235.715 803.254 234.867 791.663 239.163C778.266 244.129 765.088 249.907 751.003 252.872C700.743 263.452 654.282 255.743 614.203 222.21C582.315 195.531 569.991 160.809 576.327 119.608C576.758 116.801 578.285 114.012 575.785 109.963C567.562 112.071 558.903 114.116 550.344 116.513C491.768 132.919 433.939 151.449 378.874 177.682C365.13 184.229 352.029 191.926 339.7 200.899C317.594 216.987 318.388 230.524 342.907 242.805C365.614 254.178 390.443 258.721 415.194 263.177C461.754 271.56 509.008 274.927 555.683 282.445C597.244 289.139 638.607 296.756 677.109 314.95C702.037 326.729 722.783 343.099 735.76 368.115C749.116 393.858 745.458 417.927 724.726 439.489C708.997 455.847 689.794 466.859 668.846 474.818C633.288 488.327 596.239 494.042 558.344 496.072C533.167 497.42 508.128 496.5 482.224 495.144C443.899 491.74 406.411 488.131 368.869 485.248C345.87 483.482 322.859 481.612 299.735 481.638C288.005 481.651 276.423 483.082 264.767 483.744C260.028 484.014 255.75 485.676 251.746 488.407C241.876 495.137 230.88 498.925 218.93 499.361C214.431 499.525 211.179 501.546 208.075 504.305C192.318 518.308 173.887 524.15 153.03 521.713C148.364 521.168 145.232 522.871 141.912 525.413C132.541 532.587 122.521 538.414 110.667 540.567C105.415 541.52 99.4816 542.895 95.1079 540.656C84.1846 535.063 75.2035 539.324 65.5396 543.594C55.0096 548.247 43.9119 550.241 32.2115 548.677C17.1409 546.663 6.31122 539.108 1.81498 524.609C-2.60444 510.357 1.16942 497.419 11.8003 486.814C30.4487 468.21 73.5798 457.421 95.149 474.693C97.1349 476.283 99.3253 476.494 101.759 475.92C113.521 473.149 125.109 471.746 134.501 461.576C144.828 450.393 159.385 445.39 175.031 445.712C183.306 445.883 190.72 444.771 198.392 440.586C212.571 432.853 227.84 430.222 244.106 435.018C253.525 437.795 263.218 434.102 272.72 433.136C302.266 430.133 331.725 432.408 361.166 433.966C387.979 435.385 414.713 438.249 441.508 440.094C483.202 442.965 524.952 445.455 566.748 443.671C603.914 442.085 640.758 437.915 675.304 422.525C688.811 416.508 701.171 408.768 710.057 396.62C719.148 384.193 717.868 376.041 705.819 366.629C685.546 350.794 661.672 342.948 637.38 336.235C594.72 324.445 550.925 319.545 507.063 314.842C457.761 309.556 408.15 305.952 360.171 292.091C343.804 287.363 328.143 280.925 314.351 270.657C283.522 247.702 279.316 210.991 304.373 181.898C324.089 159.005 349.843 144.518 376.545 131.668C434.449 103.803 495.725 85.4603 557.45 68.4886C576.874 63.1477 596.409 58.2069 615.911 53.1497C618.781 52.4055 621.437 51.3889 623.849 49.6263C655.16 26.7484 691.086 16.0078 728.858 11.1693C752.531 8.13686 776.234 5.71231 799.736 1.2591ZM336.882 508.87C341.891 508.975 345.515 511.196 345.941 516.406C346.351 521.424 342.719 523.823 338.413 524.502C329.223 525.952 319.929 526.739 310.738 528.18C288.544 531.659 266.785 536.976 245.503 544.209C243.584 544.862 241.582 545.546 239.589 545.648C236.165 545.822 233.232 544.599 231.906 541.1C230.48 537.336 231.498 534.038 234.806 531.938C237.48 530.24 240.576 529.206 244.126 527.641C272.934 517.526 301.9 511.421 331.641 508.985C333.38 508.842 335.136 508.834 336.882 508.87ZM87.7964 491.105C76.1876 481.011 63.2267 482.002 48.3286 485.363C38.2043 488.08 29.3844 493.045 22.437 500.956C15.479 508.881 15.5726 519.275 21.8921 526.468C31.0881 536.935 58.2982 533.046 65.2027 522.394C56.4942 523.474 48.4747 526.866 39.9458 524.485C28.9309 521.409 23.8499 510.619 30.3091 501.401C38.0442 490.362 49.9598 488.252 62.3745 489.911C71.9839 491.196 80.1078 495.026 78.7691 507.239C78.7106 507.771 79.0151 508.818 79.2251 508.839C89.7755 509.841 94.0767 521.488 102.503 523.82C113.051 526.738 121.459 518.401 129.187 511.625C124.291 512.512 120.613 516.2 115.617 516.742C110.115 517.339 105.537 515.798 103.489 510.376C101.312 504.614 104.603 500.832 109.366 498.315C112.181 496.827 115.34 495.988 118.346 494.861C120.589 494.02 121.757 492.669 120.237 489.408C116.186 488.906 112.204 491.01 108.025 491.646C101.26 492.675 93.942 496.448 87.7964 491.105ZM173.931 467.65C174.127 464.158 170.886 463.607 168.167 464.191C165.074 464.854 162.111 466.119 158.07 467.62C152.651 472.243 158.784 472.516 160.656 473.791C170.464 480.472 173.214 487.089 170.416 498.36C170.01 499.993 168.983 501.654 171.275 503.645C177.736 502.811 184.318 501.458 189.919 494.923C179.889 488.35 173.233 480.107 173.931 467.65ZM795.146 399.155C802.142 399.053 803.022 404.702 803.228 410.346C803.899 428.774 795.953 443.774 784.165 456.964C765.525 477.82 741.912 490.733 715.328 498.534C710.701 499.892 705.376 500.648 703.253 495.014C700.881 488.718 705.929 486.302 710.699 484.297C735.148 474.019 758.197 461.681 775.602 439.976C782.472 430.566 787.18 421.024 787.018 409.632C786.939 404.043 789.101 399.242 795.146 399.155ZM835.501 423.046C836.317 417.785 838.777 413.935 844.552 414.603C850.171 415.252 850.698 419.871 850.783 424.539C851.108 442.445 840.859 455.08 829.657 467.26C828.867 468.119 828.021 468.927 826.764 470.198C818.108 478.549 809.293 485.747 799.875 492.171C795.413 495.214 790.087 498.256 785.901 492.661C781.659 486.991 785.167 482.322 790.047 478.629C801.238 470.162 811.977 461.181 821.363 450.692C828.496 442.72 833.831 433.803 835.501 423.046ZM245.657 461.292C244.198 454.274 237.016 449.657 227.989 450.187C217.304 450.814 207.466 454.324 199.19 461.235C195.492 464.322 192.158 468.102 194.321 473.928C205.021 468.514 209.943 468.798 213.615 476.676C216.423 482.702 219.959 482.404 224.719 480.805C228.017 479.697 231.266 478.443 235.764 476.748C242.015 473.48 247.355 469.462 245.657 461.292ZM718.216 415.31C711.834 421.137 705.232 426.355 697.91 430.719C671.748 446.312 642.665 452.544 613.144 457.143C555.81 466.075 498.372 461.865 441.007 457.501C389.763 453.603 338.591 448.601 287.096 450.12C279.285 450.351 271.473 450.675 264.001 452.865C264.089 465.348 264.387 465.901 272.014 465.457C317.67 462.8 363.094 466.534 408.446 470.885C463.986 476.214 519.461 481.662 575.379 477.342C609.146 474.734 641.734 467.644 673.932 453.284C699.898 439.567 714.225 427.324 718.216 415.31ZM324.442 254.896C325.306 256.053 326.399 256.866 327.498 257.67C349.673 273.892 375.86 278.989 401.931 284.118C439.799 291.569 478.522 292.22 518.208 298.107C530.523 297.811 542.5 301.226 554.799 301.298C534.077 296.645 512.893 295.127 491.953 291.984C435.312 283.481 377.543 280.035 324.442 254.896ZM755.027 27.1116C719.753 27.8819 686.244 35.8218 653.493 52.2083C631.989 63.7591 613.003 78.2694 602.189 100.789C582.354 142.096 595.055 188.57 634.108 214.944C678.024 244.601 725.075 247.767 773.099 226.214C797.536 215.247 819.595 214.779 842.654 229.823C863.126 243.178 884.405 255.451 909.571 258.992C947.879 264.381 979.882 238.208 981.447 199.499C982.626 170.309 972.915 144.336 957.785 120.135C935.035 83.7465 905.949 54.7948 863.515 42.015C860.017 40.9615 856.958 40.6947 853.398 42.1175C838.563 48.0462 822.946 47.698 807.567 45.9544C793.638 44.3752 779.734 41.2672 768.65 31.6722C764.526 28.1027 760.181 26.9992 755.027 27.1116ZM817.114 85.8988C825.402 68.4798 842.548 61.8927 862.376 68.4661C878.098 73.6784 890.636 83.7138 901.371 95.9339C924.876 122.691 940.388 153.268 944.76 189.018C947.791 213.798 936.256 233.945 916.024 238.554C912.656 239.321 909.079 239.174 904.827 239.412C875.971 235.359 857.711 217.01 841.994 195.73C825.041 172.777 814.21 147.071 811.58 118.365C810.549 107.118 812.242 96.1381 817.114 85.8988ZM853.543 84.4613C843.299 82.0576 834.886 86.9917 831.871 97.0023C829.109 106.173 829.339 115.267 831.113 124.669C838.18 162.12 855.572 193.04 888.257 215.898C891.975 217.584 895.568 219.665 899.432 220.884C913.02 225.17 922.269 219.962 925.775 206.068C926.62 202.72 926.95 199.113 926.788 195.659C925.145 160.649 909.091 132.044 886.565 106.458C877.566 96.2372 867.278 87.6846 853.543 84.4613ZM630.331 111.963C645.053 84.0196 668.656 70.313 700.408 71.6917C733.149 73.1135 759.626 92.691 767.753 121.008C779.198 160.883 753.159 200.763 711.113 207.976C685.427 212.382 663.223 205.395 643.579 187.669C622.698 163.515 617.596 136.134 630.331 111.963ZM752.374 134.544C746.642 102.966 720.437 83.9102 687.486 88.9925C665.996 92.3072 650.344 104.534 643.665 125.864C637.327 146.103 644.378 166.716 661.078 179.947C691.113 203.742 732.66 193.442 749.651 156.861C751.859 149.582 753.787 142.333 752.374 134.544ZM591.962 77.3343C520.379 96.3321 450.335 116.27 383.005 148.466C362.1 158.847 341.932 170.318 325.534 187.395C330.182 185.145 334.346 182.131 338.73 179.483C370.865 160.072 405.248 145.607 440.513 133.001C486.471 116.573 533.071 102.329 580.502 90.8226C586.91 89.2679 591.264 86.047 591.962 77.3343ZM846.043 25.9798C832.647 14.8312 797.128 12.6725 784.601 22.6986C801.753 31.2457 819.52 31.6235 839.02 29.721C841.736 29.1882 844.864 29.3894 846.043 25.9798Z" fill="#CB9959"/>
</svg>
