<svg width="648" height="131" viewBox="0 0 648 131" fill="none" xmlns="http://www.w3.org/2000/svg">
<path fill-rule="evenodd" clip-rule="evenodd" d="M36.3281 29.35C43.6344 32.5024 48.1185 36.4931 50.8135 42.2455C52.1281 45.0513 53.8847 45.7172 56.9189 46.0288C64.916 46.8498 72.3543 47.5179 78.6904 40.6743C80.6921 38.5123 85.0288 38.5115 88.2969 37.5219C88.6359 40.8822 89.1785 44.2396 89.2402 47.6049C89.2791 49.7307 88.9305 51.9947 88.1787 53.978C86.2639 59.0295 86.3688 63.9469 87.7832 69.1098C89.4488 75.1901 88.0912 80.8064 84.8281 86.2875C80.8011 93.0521 82.6054 99.9792 85.4766 106.729C88.0725 112.832 90.6773 118.934 93.082 125.113C93.6867 126.666 93.5396 128.514 92.5908 130.619C92.0648 129.796 91.3831 129.033 91.0371 128.14C88.6405 121.958 86.843 115.475 83.8203 109.622C80.5958 103.379 80.1476 96.9003 80.126 90.2485C80.1211 88.7479 81.0686 87.0623 82.0049 85.7719C86.1504 80.0586 86.5771 73.9796 84.9893 67.2436C84.1964 63.8803 84.5442 60.1445 84.915 56.6342C85.4666 51.4141 86.4963 46.2442 87.4717 40.1127C81.1721 41.4205 76.9235 43.7934 73.9932 48.0034C72.1209 50.6931 70.354 50.9569 67.2891 50.1245C63.5154 49.0997 59.4501 48.7175 55.5273 48.8032C52.2085 48.8754 50.6244 47.8564 49.0117 44.8989C46.7119 40.6809 43.4166 37.0051 39.8174 32.1059C36.2348 38.3716 35.868 43.3891 36.0332 48.7563C36.1725 53.2795 36.0167 58.0815 34.6396 62.3207C32.4462 69.0735 32.5594 75.3306 35.4209 81.7153C38.4653 88.508 38.1358 95.0021 33.207 100.867C26.3647 109.008 20.3262 117.484 20.2529 128.776C20.2491 129.361 19.4396 129.942 18.4209 130.306C18.0828 122.467 18.9807 114.979 23.7998 108.456C26.4676 104.844 29.4764 101.474 32.0068 97.7739C35.0179 93.3706 35.7486 88.4972 33.2588 83.5805C29.2943 75.752 29.2987 67.9189 32.9131 59.5746C33.1969 55.2296 33.1134 51.2609 33.5723 47.3559C34.2536 41.5585 35.3193 35.8059 36.3281 29.35ZM142.48 4.81586C146.762 0.657741 151.448 -1.05134 157.483 0.655703C160.212 1.42745 163.324 0.932656 166.258 0.846133C167.57 0.807559 168.934 -0.0366793 170.166 0.160586C178.895 1.55833 187.574 0.399383 196.284 0.187929C198.457 0.135257 200.783 2.93414 202.896 4.60297C206.894 7.76135 210.647 11.2467 214.767 14.2299C218.771 17.1293 220.182 20.5246 217.884 24.9633C216.452 27.7297 213.918 29.9294 212.507 32.7026C211.197 35.2764 210.776 38.2933 209.857 41.0795C209.167 43.1723 208.83 46.2405 207.375 46.978C205.94 47.7048 203.281 46.0946 201.193 45.4057C200.611 45.2134 200.149 44.6533 199.166 43.9096C196.885 51.1506 196.44 58.149 201.085 63.9223C207.245 71.5786 209.684 79.9892 210.503 89.6147C211.006 95.5253 213.429 101.499 216.029 106.948C219.197 113.588 221.116 120.286 220.911 127.6C220.887 128.453 220.551 129.298 219.243 130.18C218.858 127.547 218.658 124.87 218.047 122.29C217.094 118.265 216.608 113.873 214.6 110.403C209.975 102.411 207.26 94.0797 207.133 84.8666C207.049 78.7985 204.89 73.4781 201.026 68.8481C195.382 62.0844 193.567 54.3776 195.844 45.936C197.493 39.82 196.254 34.103 194.63 28.2924C194.091 26.3663 193.973 24.322 193.497 21.2661C198.836 24.0745 197.889 28.2557 198.634 31.7104C199.289 34.7494 199.651 37.9321 200.861 40.7416C201.614 42.489 203.704 43.6602 205.053 44.9545C205.972 44.4073 206.476 44.2599 206.488 44.0786C206.984 36.9051 209.358 30.7564 214.633 25.4877C217.442 22.6809 216.655 19.2474 213.074 16.5629C208.706 13.2884 204.475 9.76181 200.593 5.93012C197.375 2.75369 194.043 2.15316 189.714 2.78363C185.383 3.41435 180.897 3.02688 176.479 2.99457C174.662 2.98127 172.718 2.24249 171.051 2.67523C165.13 4.21208 159.431 4.28683 153.388 2.81098C151.058 2.24189 147.64 4.07502 145.378 5.72016C141.101 8.83036 137.298 12.5939 133.303 16.0903C129.81 19.1462 128.912 23.4929 132.277 26.0307C138.185 30.4862 140.659 36.0498 140.463 43.1723C140.451 43.5975 140.907 44.0361 141.441 45.0053C146.16 43.298 148.283 39.7164 148.886 35.0746C149.27 32.1146 149.081 29.0807 149.451 26.1176C149.658 24.4583 150.48 22.8754 151.025 21.2582C151.664 21.2755 152.303 21.2929 152.942 21.31C153.076 23.139 153.818 25.1948 153.236 26.7573C150.749 33.4346 151.637 39.8757 153.908 46.2983C156.915 54.8024 155.824 62.331 150.281 69.7885C147.723 73.231 146.125 78.285 146.174 82.5844C146.281 91.9412 143.892 100.136 139.347 108.23C136.555 113.2 135.33 119.069 133.551 124.581C132.96 126.414 132.832 128.395 131.39 130.367C131.15 129.46 130.514 128.442 130.733 127.664C132.702 120.676 133.99 113.329 137.101 106.87C141.235 98.2845 144.352 89.9742 143.593 80.1479C143.31 76.4832 145.413 71.9863 147.773 68.8959C153.195 61.7963 154.382 54.57 150.853 46.0903C150.362 44.6382 149.979 43.5443 149.583 42.4164C149.191 42.6466 148.918 42.8173 148.636 42.9702C145.895 44.4546 143.153 45.9361 140.411 47.4184C139.467 44.6127 138.718 41.7213 137.528 39.0239C136.18 35.9671 135.036 32.4742 132.757 30.2387C125.742 23.3594 125.974 17.9424 133.894 12.3784C136.997 10.1981 139.745 7.47249 142.48 4.81586ZM92.7266 78.3168C98.9279 81.4803 105.129 84.6436 111.323 87.8217C111.376 87.8487 111.372 88.1179 111.307 88.2133C111.218 88.3406 111.043 88.4083 110.578 88.4301C104.13 85.6021 98.0097 82.8451 91.8896 80.0883C92.1685 79.4979 92.4477 78.9072 92.7266 78.3168ZM27.3711 76.7768C23.9641 78.0536 20.5567 79.3301 16.7861 80.7397C13.7359 81.838 11.0489 82.8034 8.3623 83.769C8.17828 83.226 7.99454 82.683 7.81055 82.1401C14.1539 79.8931 20.4974 77.6459 26.8408 75.3989C27.0175 75.858 27.1944 76.3176 27.3711 76.7768ZM92.8115 73.7748C102.016 73.6382 110.946 75.1144 119.419 79.3061C114.12 78.3805 108.821 77.4554 103.088 76.4565C99.2972 75.9434 95.9408 75.5036 92.585 75.0639C92.6605 74.6344 92.736 74.2043 92.8115 73.7748ZM25.8525 71.5034C17.3141 72.1216 8.77567 72.7405 0.237305 73.3588C0.158333 72.9715 0.0789721 72.584 0 72.1967C1.6246 71.7991 3.25006 71.4009 5.31152 70.9702C12.4282 70.637 19.1082 70.3373 25.7881 70.0375C25.8095 70.5261 25.8311 71.0148 25.8525 71.5034ZM114.976 68.0668C113.619 68.15 112.262 68.234 110.454 68.3168C104.256 68.7335 98.5087 69.1499 92.7617 69.5668C92.7224 69.0129 92.6828 68.4586 92.6436 67.9047C100.042 67.3856 107.44 66.8672 114.838 66.3481C114.884 66.921 114.93 67.4939 114.976 68.0668ZM4.67383 61.9428C12.4661 61.1495 19.9671 62.1974 27.042 66.0209C19.8422 65.0278 12.642 64.0354 5.0791 62.8881C4.70096 62.4592 4.66107 61.9441 4.67383 61.9428ZM159.377 62.7123C162.731 58.5435 167.654 57.6333 181.409 57.9672C185.674 58.8437 190.004 58.4794 192.564 62.6635C181.748 59.2576 170.943 59.9992 159.377 62.7123Z" fill="#C9A574"/>
<path d="M275.3 76.1691C269.22 76.1691 264.42 75.1024 260.9 72.9691C257.434 70.7824 255.7 67.9291 255.7 64.4091C255.7 60.5157 257.62 56.8624 261.46 53.4491C265.567 49.8224 270.954 47.3691 277.62 46.0891C278.527 45.9291 279.487 45.7957 280.5 45.6891C281.514 45.5824 282.527 45.5291 283.54 45.5291C289.727 45.5291 293.914 47.0224 296.1 50.0091C296.314 50.2757 296.42 50.6224 296.42 51.0491C296.42 51.9024 296.18 52.0357 295.7 51.4491C293.78 48.7291 289.594 47.3691 283.14 47.3691C281.114 47.3691 279.3 47.5291 277.7 47.8491C272.1 48.9157 267.647 51.0224 264.34 54.1691C261.194 57.1557 259.62 60.3291 259.62 63.6891C259.62 66.8891 261.06 69.4491 263.94 71.3691C266.767 73.2891 270.607 74.2491 275.46 74.2491C280.047 74.2491 284.287 73.6891 288.18 72.5691C292.074 71.5024 295.647 69.9824 298.9 68.0091C304.234 64.7557 306.9 60.4357 306.9 55.0491C306.9 48.8624 303.034 43.2891 295.3 38.3291C293.327 37.0491 291.674 35.9291 290.34 34.9691C289.007 33.9557 287.967 33.1024 287.22 32.4091C284.394 29.6891 282.98 26.8091 282.98 23.7691C282.98 22.9691 283.06 22.2224 283.22 21.5291C283.967 18.0624 286.287 15.2624 290.18 13.1291C293.754 11.1557 297.62 10.1691 301.78 10.1691C306.527 10.1691 310.127 10.9957 312.58 12.6491C314.34 13.8224 315.22 15.6091 315.22 18.0091C315.22 19.5557 314.767 20.9957 313.86 22.3291C313.007 23.6091 311.887 24.2491 310.5 24.2491C309.487 24.2491 308.58 23.8491 307.78 23.0491C307.087 22.3557 306.74 21.5291 306.74 20.5691C306.74 18.0091 307.994 16.7291 310.5 16.7291C311.994 16.7291 312.9 17.2091 313.22 18.1691C313.487 16.7291 312.927 15.4757 311.54 14.4091C309.354 12.7024 306.5 11.8491 302.98 11.8491C299.3 11.8491 295.94 12.8891 292.9 14.9691C289.647 17.1557 288.02 19.6891 288.02 22.5691C288.02 26.3024 291.434 30.1424 298.26 34.0891C307.807 39.5291 312.58 45.8224 312.58 52.9691C312.58 56.1157 311.567 59.1557 309.54 62.0891C307.514 65.0757 304.82 67.5291 301.46 69.4491C293.78 73.9291 285.06 76.1691 275.3 76.1691ZM335.47 68.9691C334.296 68.9691 333.336 68.6224 332.59 67.9291C331.523 67.0224 330.99 65.5024 330.99 63.3691C330.99 61.9824 331.23 60.4091 331.71 58.6491C329.896 61.6891 328.003 64.1691 326.03 66.0891C324.003 67.9557 322.19 68.8891 320.59 68.8891C319.203 68.8891 318.11 68.2757 317.31 67.0491C316.456 65.8757 316.03 64.2491 316.03 62.1691C316.03 57.1024 318.296 51.8757 322.83 46.4891C323.576 45.5824 324.43 44.7557 325.39 44.0091C326.35 43.2624 327.39 42.5957 328.51 42.0091C330.803 40.8357 333.016 40.2491 335.15 40.2491C337.763 40.2491 339.843 41.1024 341.39 42.8091C341.763 43.1824 341.95 43.6091 341.95 44.0891C341.95 44.9957 341.47 45.3424 340.51 45.1291C339.976 43.2091 338.723 42.2491 336.75 42.2491C334.51 42.2491 331.87 43.8224 328.83 46.9691C327.763 48.1424 326.75 49.3691 325.79 50.6491C324.83 51.8757 323.923 53.1824 323.07 54.5691C320.776 58.4091 319.63 61.5291 319.63 63.9291C319.63 65.7424 320.323 66.6491 321.71 66.6491C323.256 66.6491 325.043 65.4757 327.07 63.1291C328.19 61.8491 329.336 60.2757 330.51 58.4091C331.683 56.5424 332.91 54.3824 334.19 51.9291C334.723 50.9157 335.203 50.0891 335.63 49.4491C336.056 48.8091 336.403 48.3291 336.67 48.0091C337.523 47.1557 338.536 46.7557 339.71 46.8091L341.31 47.0491C342.003 47.2091 342.59 47.2357 343.07 47.1291C342.59 47.6091 342.003 48.3824 341.31 49.4491C340.67 50.4624 339.923 51.7957 339.07 53.4491C338.163 55.2091 337.416 56.8091 336.83 58.2491C336.243 59.6891 335.843 60.9691 335.63 62.0891C335.523 62.6224 335.443 63.1291 335.39 63.6091C335.336 64.0357 335.31 64.4357 335.31 64.8091C335.31 66.1957 335.683 66.8891 336.43 66.8891C337.496 66.8891 338.963 65.7157 340.83 63.3691L341.15 62.9691L342.27 63.6891L341.95 64.1691C339.763 67.3691 337.603 68.9691 335.47 68.9691ZM347.181 68.8091C345.635 68.8091 344.861 68.0357 344.861 66.4891C344.861 65.5291 345.181 64.2224 345.821 62.5691L361.341 22.8891C361.448 22.7291 361.501 22.5691 361.501 22.4091C361.501 22.2491 361.501 22.1157 361.501 22.0091C361.501 21.2091 361.181 20.3824 360.541 19.5291H364.861C366.355 19.5291 367.101 19.8757 367.101 20.5691C367.101 20.8891 366.941 21.4491 366.621 22.2491L351.101 61.7691C350.408 63.4757 350.061 64.9957 350.061 66.3291C350.061 67.5557 350.435 68.3824 351.181 68.8091H347.181ZM365.886 68.8091C362.419 68.8091 360.686 66.9157 360.686 63.1291C360.686 62.3824 360.739 61.6091 360.846 60.8091C361.006 60.0091 361.246 59.2091 361.566 58.4091C364.392 50.9424 366.792 44.8624 368.766 40.1691H363.566L364.526 38.4091H369.486L371.406 32.8091C372.099 30.8357 372.686 29.6624 373.166 29.2891C373.539 29.0224 374.392 28.8891 375.726 28.8891L379.166 28.9691C378.099 29.8757 377.299 30.9691 376.766 32.2491L374.126 38.4091H380.206L379.246 40.1691H373.406C373.032 41.0224 372.659 41.8757 372.286 42.7291C371.966 43.5824 371.592 44.4624 371.166 45.3691C370.046 47.8224 369.086 50.1424 368.286 52.3291C367.326 54.8357 366.552 56.9957 365.966 58.8091C365.432 60.6224 365.112 62.0624 365.006 63.1291C364.792 65.7424 365.486 67.0491 367.086 67.0491C368.579 67.0491 370.392 65.4491 372.526 62.2491L373.486 63.3691C370.926 66.9957 368.392 68.8091 365.886 68.8091ZM411.485 68.9691C410.312 68.9691 409.352 68.6224 408.605 67.9291C407.539 67.0224 407.005 65.5024 407.005 63.3691C407.005 61.9824 407.245 60.4091 407.725 58.6491C405.912 61.6891 404.019 64.1691 402.045 66.0891C400.019 67.9557 398.205 68.8891 396.605 68.8891C395.219 68.8891 394.125 68.2757 393.325 67.0491C392.472 65.8757 392.045 64.2491 392.045 62.1691C392.045 57.1024 394.312 51.8757 398.845 46.4891C399.592 45.5824 400.445 44.7557 401.405 44.0091C402.365 43.2624 403.405 42.5957 404.525 42.0091C406.819 40.8357 409.032 40.2491 411.165 40.2491C413.779 40.2491 415.859 41.1024 417.405 42.8091C417.779 43.1824 417.965 43.6091 417.965 44.0891C417.965 44.9957 417.485 45.3424 416.525 45.1291C415.992 43.2091 414.739 42.2491 412.765 42.2491C410.525 42.2491 407.885 43.8224 404.845 46.9691C403.779 48.1424 402.765 49.3691 401.805 50.6491C400.845 51.8757 399.939 53.1824 399.085 54.5691C396.792 58.4091 395.645 61.5291 395.645 63.9291C395.645 65.7424 396.339 66.6491 397.725 66.6491C399.272 66.6491 401.059 65.4757 403.085 63.1291C404.205 61.8491 405.352 60.2757 406.525 58.4091C407.699 56.5424 408.925 54.3824 410.205 51.9291C410.739 50.9157 411.219 50.0891 411.645 49.4491C412.072 48.8091 412.419 48.3291 412.685 48.0091C413.539 47.1557 414.552 46.7557 415.725 46.8091L417.325 47.0491C418.019 47.2091 418.605 47.2357 419.085 47.1291C418.605 47.6091 418.019 48.3824 417.325 49.4491C416.685 50.4624 415.939 51.7957 415.085 53.4491C414.179 55.2091 413.432 56.8091 412.845 58.2491C412.259 59.6891 411.859 60.9691 411.645 62.0891C411.539 62.6224 411.459 63.1291 411.405 63.6091C411.352 64.0357 411.325 64.4357 411.325 64.8091C411.325 66.1957 411.699 66.8891 412.445 66.8891C413.512 66.8891 414.979 65.7157 416.845 63.3691L417.165 62.9691L418.285 63.6891L417.965 64.1691C415.779 67.3691 413.619 68.9691 411.485 68.9691ZM419.117 69.3691C420.184 66.7557 421.517 63.5291 423.117 59.6891C424.717 55.8491 426.664 51.4224 428.957 46.4091C429.437 45.3424 429.89 44.4624 430.317 43.7691C430.744 43.0757 431.144 42.5424 431.517 42.1691C432.264 41.4224 433.224 41.0491 434.397 41.0491C434.504 41.0491 434.69 41.0491 434.957 41.0491C435.224 41.0491 435.597 41.1024 436.077 41.2091C436.824 41.2624 437.384 41.2624 437.757 41.2091C435.784 42.3824 432.824 47.5557 428.877 56.7291C429.517 55.8224 430.37 54.8357 431.437 53.7691C432.557 52.6491 433.864 51.4224 435.357 50.0891C436.317 49.1824 437.384 48.3291 438.557 47.5291C439.73 46.6757 441.01 45.8757 442.397 45.1291C445.544 43.3691 447.864 42.4891 449.357 42.4891C449.73 42.4891 449.997 42.5157 450.157 42.5691C449.304 44.0624 448.504 45.5024 447.757 46.8891C447.064 48.2757 446.397 49.5824 445.757 50.8091C442.664 56.7824 440.93 60.9157 440.557 63.2091C440.504 63.5824 440.45 63.9291 440.397 64.2491C440.397 64.5691 440.397 64.8624 440.397 65.1291C440.397 66.5157 440.904 67.2091 441.917 67.2091C443.57 67.2091 445.544 65.5291 447.837 62.1691L448.957 62.9691C446.237 67.0757 443.49 69.1291 440.717 69.1291C437.357 69.1291 435.677 67.3957 435.677 63.9291C435.677 61.1024 437.41 56.9157 440.877 51.3691C441.41 50.5157 441.677 49.7957 441.677 49.2091C441.677 48.5691 441.384 48.2491 440.797 48.2491C440.21 48.2491 439.437 48.5691 438.477 49.2091C437.57 49.7957 436.477 50.6757 435.197 51.8491C433.17 53.7157 431.277 55.9557 429.517 58.5691C427.757 61.1291 426.157 64.0624 424.717 67.3691C424.397 68.1691 423.57 68.6491 422.237 68.8091C420.53 68.9691 419.49 69.1557 419.117 69.3691ZM472.151 68.8091C469.058 68.8091 467.511 66.8357 467.511 62.8891C467.511 61.1824 467.805 59.5824 468.391 58.0891C464.391 65.1291 460.551 68.6491 456.871 68.6491C456.658 68.6491 456.445 68.6491 456.231 68.6491C456.018 68.5957 455.778 68.5424 455.511 68.4891C452.845 67.7424 451.511 65.7157 451.511 62.4091C451.511 59.9557 452.178 57.2357 453.511 54.2491C454.151 52.8091 454.845 51.4491 455.591 50.1691C456.391 48.8357 457.271 47.6091 458.231 46.4891C461.591 42.4357 465.431 40.4091 469.751 40.4091C471.671 40.4091 473.458 40.8891 475.111 41.8491C476.018 40.0891 477.085 37.6357 478.311 34.4891C479.591 31.2891 481.058 27.4224 482.711 22.8891C483.351 21.1291 484.018 19.9824 484.711 19.4491C485.511 18.9157 486.578 18.6757 487.911 18.7291L489.591 18.9691C489.965 19.0224 490.285 19.0757 490.551 19.1291C490.818 19.1291 491.058 19.1024 491.271 19.0491C490.738 19.6357 489.751 21.2891 488.311 24.0091C486.871 26.6757 485.005 30.4357 482.711 35.2891C480.365 40.1957 478.365 44.5691 476.711 48.4091C475.111 52.2491 473.831 55.5024 472.871 58.1691C472.071 60.4091 471.671 62.3557 471.671 64.0091C471.671 65.8224 472.285 66.7291 473.511 66.7291C475.111 66.7291 476.818 65.2624 478.631 62.3291L478.951 61.9291L480.231 62.5691L479.911 62.9691C477.458 66.8624 474.871 68.8091 472.151 68.8091ZM457.671 66.4091C459.431 66.4091 461.565 64.6757 464.071 61.2091C466.738 57.4224 470.285 51.3957 474.711 43.1291C474.071 42.4891 473.298 42.1691 472.391 42.1691C470.205 42.1691 467.645 43.6357 464.711 46.5691C461.938 49.2891 459.618 52.4091 457.751 55.9291C456.258 58.7024 455.511 61.1291 455.511 63.2091C455.511 65.3424 456.231 66.4091 457.671 66.4091ZM500.373 73.4491C496 73.4491 493.653 71.6891 493.333 68.1691C493.28 66.6757 493.68 65.3424 494.533 64.1691C495.44 62.9424 496.587 62.3291 497.973 62.3291C498.987 62.3291 499.867 62.7557 500.613 63.6091C501.307 64.4091 501.653 65.2624 501.653 66.1691C501.653 68.6757 500.48 69.9291 498.133 69.9291C497.547 69.9291 496.987 69.7957 496.453 69.5291C495.973 69.3157 495.6 68.9424 495.333 68.4091C495.653 70.3291 497.253 71.2891 500.133 71.2891C500.773 71.2891 501.36 71.2091 501.893 71.0491C506.48 69.8224 510.347 67.1824 513.493 63.1291C514.88 61.3691 516.427 58.8624 518.133 55.6091C519.84 52.3557 521.733 48.4091 523.813 43.7691L534.373 20.3291C534.907 19.1557 535.493 18.1157 536.133 17.2091C536.827 16.2491 537.547 15.3424 538.293 14.4891C531.787 14.2757 525.147 15.2891 518.373 17.5291C511.227 19.9291 506 23.1824 502.693 27.2891C501.147 29.2624 500.373 31.0757 500.373 32.7291C500.373 36.0891 502.8 37.7691 507.653 37.7691C513.627 37.7691 518.48 35.4224 522.213 30.7291C523.12 29.6091 523.973 28.2757 524.773 26.7291C525.627 25.1291 526.4 23.2624 527.093 21.1291C527.253 20.7557 527.467 20.5691 527.733 20.5691C528.16 20.5691 528.293 20.8624 528.133 21.4491C527.92 22.1424 527.707 22.8357 527.493 23.5291C527.333 24.2224 527.12 24.8891 526.853 25.5291C526.427 26.8091 525.92 28.0091 525.333 29.1291C524.747 30.1957 524.107 31.1824 523.413 32.0891C519.84 37.1024 514.773 39.6091 508.213 39.6091C505.173 39.6091 502.8 38.8091 501.093 37.2091C499.333 35.6091 498.453 33.6091 498.453 31.2091C498.453 29.0757 499.2 26.8891 500.693 24.6491C503.2 20.8624 508.107 17.8491 515.413 15.6091C518.613 14.6491 521.92 13.9291 525.333 13.4491C528.8 12.9157 532.373 12.6491 536.053 12.6491C536.747 12.6491 537.413 12.6491 538.053 12.6491C538.747 12.6491 539.413 12.6757 540.053 12.7291C543.307 9.90241 546.693 8.48908 550.213 8.48908C551.6 8.48908 553.013 8.78241 554.453 9.36908C554.72 9.47574 554.853 9.68908 554.853 10.0091C554.853 10.6491 554.667 10.8891 554.293 10.7291C553.333 10.2491 552.267 10.0091 551.093 10.0091C548.48 10.0091 546 11.0491 543.653 13.1291C548.027 13.1824 551.44 14.1157 553.893 15.9291C557.36 18.4891 558.933 21.5024 558.613 24.9691C558.133 30.4091 554.747 34.8357 548.453 38.2491C543.653 40.9157 538.693 42.2491 533.573 42.2491C533.2 42.2491 532.8 42.2491 532.373 42.2491C532 42.2491 531.6 42.2224 531.173 42.1691C530.8 43.3424 530.267 44.7557 529.573 46.4091C528.88 48.0091 528.053 49.8224 527.093 51.8491C524.907 56.4891 521.627 60.9424 517.253 65.2091C511.6 70.7024 505.973 73.4491 500.373 73.4491ZM533.493 40.4891C537.12 40.4891 540.56 39.3691 543.813 37.1291C546.853 35.0491 549.333 32.2224 551.253 28.6491C552.107 27.0491 552.533 25.5024 552.533 24.0091C552.533 21.3424 551.467 19.1291 549.333 17.3691C547.2 15.6624 544.667 14.9157 541.733 15.1291C540.827 16.3024 539.84 18.0624 538.773 20.4091C537.707 22.7024 536.587 25.5824 535.413 29.0491C534.773 30.9157 534.16 32.8091 533.573 34.7291C532.987 36.6491 532.4 38.5424 531.813 40.4091C532.08 40.4624 532.347 40.4891 532.613 40.4891C532.933 40.4891 533.227 40.4891 533.493 40.4891ZM572.891 68.9691C571.718 68.9691 570.758 68.6224 570.011 67.9291C568.945 67.0224 568.411 65.5024 568.411 63.3691C568.411 61.9824 568.651 60.4091 569.131 58.6491C567.318 61.6891 565.425 64.1691 563.451 66.0891C561.425 67.9557 559.611 68.8891 558.011 68.8891C556.625 68.8891 555.531 68.2757 554.731 67.0491C553.878 65.8757 553.451 64.2491 553.451 62.1691C553.451 57.1024 555.718 51.8757 560.251 46.4891C560.998 45.5824 561.851 44.7557 562.811 44.0091C563.771 43.2624 564.811 42.5957 565.931 42.0091C568.225 40.8357 570.438 40.2491 572.571 40.2491C575.185 40.2491 577.265 41.1024 578.811 42.8091C579.185 43.1824 579.371 43.6091 579.371 44.0891C579.371 44.9957 578.891 45.3424 577.931 45.1291C577.398 43.2091 576.145 42.2491 574.171 42.2491C571.931 42.2491 569.291 43.8224 566.251 46.9691C565.185 48.1424 564.171 49.3691 563.211 50.6491C562.251 51.8757 561.345 53.1824 560.491 54.5691C558.198 58.4091 557.051 61.5291 557.051 63.9291C557.051 65.7424 557.745 66.6491 559.131 66.6491C560.678 66.6491 562.465 65.4757 564.491 63.1291C565.611 61.8491 566.758 60.2757 567.931 58.4091C569.105 56.5424 570.331 54.3824 571.611 51.9291C572.145 50.9157 572.625 50.0891 573.051 49.4491C573.478 48.8091 573.825 48.3291 574.091 48.0091C574.945 47.1557 575.958 46.7557 577.131 46.8091L578.731 47.0491C579.425 47.2091 580.011 47.2357 580.491 47.1291C580.011 47.6091 579.425 48.3824 578.731 49.4491C578.091 50.4624 577.345 51.7957 576.491 53.4491C575.585 55.2091 574.838 56.8091 574.251 58.2491C573.665 59.6891 573.265 60.9691 573.051 62.0891C572.945 62.6224 572.865 63.1291 572.811 63.6091C572.758 64.0357 572.731 64.4357 572.731 64.8091C572.731 66.1957 573.105 66.8891 573.851 66.8891C574.918 66.8891 576.385 65.7157 578.251 63.3691L578.571 62.9691L579.691 63.6891L579.371 64.1691C577.185 67.3691 575.025 68.9691 572.891 68.9691ZM603.883 68.9691C600.043 68.9691 598.123 66.5424 598.123 61.6891C598.123 60.3557 598.283 59.1291 598.603 58.0091C596.47 61.9024 595.137 64.1957 594.603 64.8891C592.63 67.6624 590.683 68.9691 588.763 68.8091C584.977 68.3824 583.083 66.0624 583.083 61.8491C583.083 60.1424 583.67 57.6891 584.843 54.4891C586.07 51.2357 587.83 47.1824 590.123 42.3291C590.657 41.1557 591.697 40.5691 593.243 40.5691L598.043 40.6491C596.123 42.0891 594.417 44.3291 592.923 47.3691C591.217 50.8891 589.91 53.9557 589.003 56.5691C588.097 59.1291 587.643 61.2357 587.643 62.8891C587.643 65.3424 588.523 66.5691 590.283 66.5691C592.523 66.5691 595.323 63.1824 598.683 56.4091C599.75 54.2224 600.79 52.0091 601.803 49.7691C602.817 47.4757 603.83 45.2091 604.843 42.9691C605.43 41.8491 606.443 41.2891 607.883 41.2891H612.763C612.017 41.7157 610.95 42.7024 609.563 44.2491C608.923 45.3157 608.23 46.5691 607.483 48.0091C606.79 49.3957 606.017 50.9424 605.163 52.6491C603.083 56.9691 602.043 60.7291 602.043 63.9291C602.043 66.2224 602.897 67.3691 604.603 67.3691C608.55 67.3691 612.363 62.7291 616.043 53.4491C615.297 51.6891 614.923 50.0624 614.923 48.5691C614.923 47.5024 615.083 46.4624 615.403 45.4491C615.99 43.4757 616.817 41.9824 617.883 40.9691C618.843 40.0091 619.777 39.5291 620.683 39.5291C621.59 39.5291 622.043 39.9557 622.043 40.8091L621.643 42.2491C619.51 49.5024 617.51 54.9424 615.643 58.5691C612.123 65.5024 608.203 68.9691 603.883 68.9691ZM627.125 69.1291C624.458 69.1291 622.405 68.3291 620.965 66.7291C619.791 65.3957 619.205 63.7957 619.205 61.9291C619.205 59.2091 620.058 57.8491 621.765 57.8491C622.405 57.8491 622.991 58.0891 623.525 58.5691C624.058 59.1024 624.325 59.7157 624.325 60.4091C624.325 60.8357 624.218 61.1824 624.005 61.4491C623.311 62.3024 622.965 63.2357 622.965 64.2491C622.965 65.2624 623.285 66.0891 623.925 66.7291C624.618 67.4224 625.498 67.7691 626.565 67.7691C627.685 67.7691 628.698 67.3957 629.605 66.6491C630.831 65.5291 631.445 63.9824 631.445 62.0091C631.445 60.3024 630.991 58.3824 630.085 56.2491C629.711 55.7157 629.258 55.0224 628.725 54.1691C628.245 53.3157 627.685 52.3024 627.045 51.1291C626.671 50.4891 626.405 49.8491 626.245 49.2091C626.138 48.5157 626.085 47.8491 626.085 47.2091C626.085 44.9691 626.911 43.1824 628.565 41.8491C630.271 40.4624 632.458 39.7691 635.125 39.7691C635.871 39.7691 636.591 39.8491 637.285 40.0091C638.031 40.1691 638.698 40.4624 639.285 40.8891C640.511 41.7957 641.125 42.9157 641.125 44.2491C641.125 44.8357 641.018 45.3691 640.805 45.8491C640.325 47.2357 639.285 47.9291 637.685 47.9291C635.925 47.9291 635.045 47.0224 635.045 45.2091C635.045 44.6757 635.125 44.2224 635.285 43.8491C635.445 43.3157 636.031 42.7824 637.045 42.2491C636.671 41.5557 635.978 41.2091 634.965 41.2091C634.058 41.2091 633.391 41.4224 632.965 41.8491C631.685 42.9691 631.045 44.3824 631.045 46.0891C631.045 47.2624 631.365 48.5424 632.005 49.9291C632.111 50.1424 633.151 51.8224 635.125 54.9691C636.458 57.1024 637.125 58.8891 637.125 60.3291C637.125 62.6224 636.058 64.6491 633.925 66.4091C631.791 68.2224 629.525 69.1291 627.125 69.1291Z" fill="#F6F2EC"/>
<path d="M272.309 112.498C262.848 112.175 253.887 111.855 244.926 111.534C244.933 111.063 244.939 110.592 244.946 110.12C263.565 110.12 282.184 110.12 300.803 110.12C300.822 110.747 300.84 111.374 300.859 112.001C291.509 112.168 282.159 112.335 272.309 112.498Z" fill="#9FC4C6"/>
<path d="M334.891 119.953C333.627 119.953 332.459 119.745 331.387 119.329C330.315 118.897 329.387 118.297 328.603 117.529C327.819 116.761 327.203 115.857 326.755 114.817C326.323 113.777 326.107 112.641 326.107 111.409C326.107 110.177 326.323 109.041 326.755 108.001C327.203 106.961 327.819 106.057 328.603 105.289C329.403 104.521 330.339 103.929 331.411 103.513C332.483 103.081 333.651 102.865 334.915 102.865C336.131 102.865 337.275 103.073 338.347 103.489C339.419 103.889 340.323 104.497 341.059 105.313L339.931 106.441C339.243 105.737 338.483 105.233 337.651 104.929C336.819 104.609 335.923 104.449 334.963 104.449C333.955 104.449 333.019 104.625 332.155 104.977C331.291 105.313 330.539 105.801 329.899 106.441C329.259 107.065 328.755 107.801 328.387 108.649C328.035 109.481 327.859 110.401 327.859 111.409C327.859 112.417 328.035 113.345 328.387 114.193C328.755 115.025 329.259 115.761 329.899 116.401C330.539 117.025 331.291 117.513 332.155 117.865C333.019 118.201 333.955 118.369 334.963 118.369C335.923 118.369 336.819 118.209 337.651 117.889C338.483 117.569 339.243 117.057 339.931 116.353L341.059 117.481C340.323 118.297 339.419 118.913 338.347 119.329C337.275 119.745 336.123 119.953 334.891 119.953ZM351.837 119.953C350.573 119.953 349.397 119.745 348.309 119.329C347.237 118.897 346.301 118.297 345.501 117.529C344.717 116.745 344.101 115.841 343.653 114.817C343.221 113.777 343.005 112.641 343.005 111.409C343.005 110.177 343.221 109.049 343.653 108.025C344.101 106.985 344.717 106.081 345.501 105.313C346.301 104.529 347.237 103.929 348.309 103.513C349.381 103.081 350.557 102.865 351.837 102.865C353.101 102.865 354.269 103.081 355.341 103.513C356.413 103.929 357.341 104.521 358.125 105.289C358.925 106.057 359.541 106.961 359.973 108.001C360.421 109.041 360.645 110.177 360.645 111.409C360.645 112.641 360.421 113.777 359.973 114.817C359.541 115.857 358.925 116.761 358.125 117.529C357.341 118.297 356.413 118.897 355.341 119.329C354.269 119.745 353.101 119.953 351.837 119.953ZM351.837 118.369C352.845 118.369 353.773 118.201 354.621 117.865C355.485 117.513 356.229 117.025 356.853 116.401C357.493 115.761 357.989 115.025 358.341 114.193C358.693 113.345 358.869 112.417 358.869 111.409C358.869 110.401 358.693 109.481 358.341 108.649C357.989 107.801 357.493 107.065 356.853 106.441C356.229 105.801 355.485 105.313 354.621 104.977C353.773 104.625 352.845 104.449 351.837 104.449C350.829 104.449 349.893 104.625 349.029 104.977C348.165 105.313 347.413 105.801 346.773 106.441C346.149 107.065 345.653 107.801 345.285 108.649C344.933 109.481 344.757 110.401 344.757 111.409C344.757 112.401 344.933 113.321 345.285 114.169C345.653 115.017 346.149 115.761 346.773 116.401C347.413 117.025 348.165 117.513 349.029 117.865C349.893 118.201 350.829 118.369 351.837 118.369ZM361.704 119.809L369.384 103.009H371.136L378.816 119.809H376.944L369.888 104.041H370.608L363.552 119.809H361.704ZM364.728 115.321L365.256 113.881H375.024L375.552 115.321H364.728ZM386.227 119.953C384.979 119.953 383.779 119.753 382.627 119.353C381.491 118.937 380.611 118.409 379.987 117.769L380.683 116.401C381.275 116.977 382.067 117.465 383.059 117.865C384.067 118.249 385.123 118.441 386.227 118.441C387.283 118.441 388.139 118.313 388.795 118.057C389.467 117.785 389.955 117.425 390.259 116.977C390.579 116.529 390.739 116.033 390.739 115.489C390.739 114.833 390.547 114.305 390.163 113.905C389.795 113.505 389.307 113.193 388.699 112.969C388.091 112.729 387.419 112.521 386.683 112.345C385.947 112.169 385.211 111.985 384.475 111.793C383.739 111.585 383.059 111.313 382.435 110.977C381.827 110.641 381.331 110.201 380.947 109.657C380.579 109.097 380.395 108.369 380.395 107.473C380.395 106.641 380.611 105.881 381.043 105.193C381.491 104.489 382.171 103.929 383.083 103.513C383.995 103.081 385.163 102.865 386.587 102.865C387.531 102.865 388.467 103.001 389.395 103.273C390.323 103.529 391.123 103.889 391.795 104.353L391.195 105.769C390.475 105.289 389.707 104.937 388.891 104.713C388.091 104.489 387.315 104.377 386.563 104.377C385.555 104.377 384.723 104.513 384.067 104.785C383.411 105.057 382.923 105.425 382.603 105.889C382.299 106.337 382.147 106.849 382.147 107.425C382.147 108.081 382.331 108.609 382.699 109.009C383.083 109.409 383.579 109.721 384.187 109.945C384.811 110.169 385.491 110.369 386.227 110.545C386.963 110.721 387.691 110.913 388.411 111.121C389.147 111.329 389.819 111.601 390.427 111.937C391.051 112.257 391.547 112.689 391.915 113.233C392.299 113.777 392.491 114.489 392.491 115.369C392.491 116.185 392.267 116.945 391.819 117.649C391.371 118.337 390.683 118.897 389.755 119.329C388.843 119.745 387.667 119.953 386.227 119.953ZM399.39 119.809V104.545H393.486V103.009H407.07V104.545H401.166V119.809H399.39ZM406.376 119.809L414.056 103.009H415.808L423.488 119.809H421.616L414.56 104.041H415.28L408.224 119.809H406.376ZM409.4 115.321L409.928 113.881H419.696L420.224 115.321H409.4ZM426.267 119.809V103.009H428.043V118.273H437.451V119.809H426.267ZM446.681 119.809V103.009H452.969C454.393 103.009 455.617 103.241 456.641 103.705C457.665 104.153 458.449 104.809 458.993 105.673C459.553 106.521 459.833 107.553 459.833 108.769C459.833 109.953 459.553 110.977 458.993 111.841C458.449 112.689 457.665 113.345 456.641 113.809C455.617 114.273 454.393 114.505 452.969 114.505H447.665L448.457 113.665V119.809H446.681ZM448.457 113.809L447.665 112.945H452.921C454.601 112.945 455.873 112.585 456.737 111.865C457.617 111.129 458.057 110.097 458.057 108.769C458.057 107.425 457.617 106.385 456.737 105.649C455.873 104.913 454.601 104.545 452.921 104.545H447.665L448.457 103.705V113.809ZM465.257 110.521H474.137V112.033H465.257V110.521ZM465.449 118.273H475.553V119.809H463.673V103.009H475.193V104.545H465.449V118.273ZM482.992 119.809V104.545H477.088V103.009H490.672V104.545H484.768V119.809H482.992ZM507.086 119.953C505.822 119.953 504.654 119.745 503.582 119.329C502.51 118.897 501.582 118.297 500.798 117.529C500.014 116.761 499.398 115.857 498.95 114.817C498.518 113.777 498.302 112.641 498.302 111.409C498.302 110.177 498.518 109.041 498.95 108.001C499.398 106.961 500.014 106.057 500.798 105.289C501.598 104.521 502.534 103.929 503.606 103.513C504.678 103.081 505.846 102.865 507.11 102.865C508.326 102.865 509.47 103.073 510.542 103.489C511.614 103.889 512.518 104.497 513.254 105.313L512.126 106.441C511.438 105.737 510.678 105.233 509.846 104.929C509.014 104.609 508.118 104.449 507.158 104.449C506.15 104.449 505.214 104.625 504.35 104.977C503.486 105.313 502.734 105.801 502.094 106.441C501.454 107.065 500.95 107.801 500.582 108.649C500.23 109.481 500.054 110.401 500.054 111.409C500.054 112.417 500.23 113.345 500.582 114.193C500.95 115.025 501.454 115.761 502.094 116.401C502.734 117.025 503.486 117.513 504.35 117.865C505.214 118.201 506.15 118.369 507.158 118.369C508.118 118.369 509.014 118.209 509.846 117.889C510.678 117.569 511.438 117.057 512.126 116.353L513.254 117.481C512.518 118.297 511.614 118.913 510.542 119.329C509.47 119.745 508.318 119.953 507.086 119.953ZM513.93 119.809L521.61 103.009H523.362L531.042 119.809H529.17L522.114 104.041H522.834L515.778 119.809H513.93ZM516.954 115.321L517.482 113.881H527.25L527.778 115.321H516.954ZM533.821 119.809V103.009H540.109C541.533 103.009 542.757 103.241 543.781 103.705C544.805 104.153 545.589 104.809 546.133 105.673C546.693 106.521 546.973 107.553 546.973 108.769C546.973 109.953 546.693 110.977 546.133 111.841C545.589 112.689 544.805 113.345 543.781 113.809C542.757 114.257 541.533 114.481 540.109 114.481H534.805L535.597 113.665V119.809H533.821ZM545.293 119.809L540.973 113.713H542.893L547.237 119.809H545.293ZM535.597 113.809L534.805 112.969H540.061C541.741 112.969 543.013 112.601 543.877 111.865C544.757 111.129 545.197 110.097 545.197 108.769C545.197 107.425 544.757 106.385 543.877 105.649C543.013 104.913 541.741 104.545 540.061 104.545H534.805L535.597 103.705V113.809ZM552.749 110.521H561.629V112.033H552.749V110.521ZM552.941 118.273H563.045V119.809H551.165V103.009H562.685V104.545H552.941V118.273Z" fill="#F6F2EC"/>
<path d="M635.904 111.868C619.896 112.716 604.364 112.811 588.859 111.764C588.866 111.206 588.873 110.649 588.88 110.091C608.255 110.091 627.629 110.091 647.004 110.091C647.01 110.427 647.015 110.763 647.021 111.099C643.468 111.333 639.916 111.568 635.904 111.868Z" fill="#9FC4C6"/>
</svg>
