<svg width="403" height="121" viewBox="0 0 403 121" fill="none" xmlns="http://www.w3.org/2000/svg">
<path d="M30.3739 71.36C24.2939 71.36 19.4939 70.2933 15.9739 68.16C12.5073 65.9733 10.7739 63.12 10.7739 59.6C10.7739 55.7067 12.6939 52.0533 16.5339 48.64C20.6406 45.0133 26.0273 42.56 32.6939 41.28C33.6006 41.12 34.5606 40.9867 35.5739 40.88C36.5873 40.7733 37.6006 40.72 38.6139 40.72C44.8006 40.72 48.9873 42.2133 51.1739 45.2C51.3873 45.4667 51.4939 45.8133 51.4939 46.24C51.4939 47.0933 51.2539 47.2267 50.7739 46.64C48.8539 43.92 44.6673 42.56 38.2139 42.56C36.1873 42.56 34.3739 42.72 32.7739 43.04C27.1739 44.1067 22.7206 46.2133 19.4139 49.36C16.2673 52.3467 14.6939 55.52 14.6939 58.88C14.6939 62.08 16.1339 64.64 19.0139 66.56C21.8406 68.48 25.6806 69.44 30.5339 69.44C35.1206 69.44 39.3606 68.88 43.2539 67.76C47.1473 66.6933 50.7206 65.1733 53.9739 63.2C59.3073 59.9467 61.9739 55.6267 61.9739 50.24C61.9739 44.0533 58.1073 38.48 50.3739 33.52C48.4006 32.24 46.7473 31.12 45.4139 30.16C44.0806 29.1467 43.0406 28.2933 42.2939 27.6C39.4673 24.88 38.0539 22 38.0539 18.96C38.0539 18.16 38.1339 17.4133 38.2939 16.72C39.0406 13.2533 41.3606 10.4533 45.2539 8.32C48.8273 6.34666 52.6939 5.36 56.8539 5.36C61.6006 5.36 65.2006 6.18666 67.6539 7.84C69.4139 9.01333 70.2939 10.8 70.2939 13.2C70.2939 14.7467 69.8406 16.1867 68.9339 17.52C68.0806 18.8 66.9606 19.44 65.5739 19.44C64.5606 19.44 63.6539 19.04 62.8539 18.24C62.1606 17.5467 61.8139 16.72 61.8139 15.76C61.8139 13.2 63.0673 11.92 65.5739 11.92C67.0673 11.92 67.9739 12.4 68.2939 13.36C68.5606 11.92 68.0006 10.6667 66.6139 9.6C64.4273 7.89333 61.5739 7.04 58.0539 7.04C54.3739 7.04 51.0139 8.08 47.9739 10.16C44.7206 12.3467 43.0939 14.88 43.0939 17.76C43.0939 21.4933 46.5073 25.3333 53.3339 29.28C62.8806 34.72 67.6539 41.0133 67.6539 48.16C67.6539 51.3067 66.6406 54.3467 64.6139 57.28C62.5873 60.2667 59.8939 62.72 56.5339 64.64C48.8539 69.12 40.1339 71.36 30.3739 71.36ZM90.5433 64.16C89.37 64.16 88.41 63.8133 87.6633 63.12C86.5966 62.2133 86.0633 60.6933 86.0633 58.56C86.0633 57.1733 86.3033 55.6 86.7833 53.84C84.97 56.88 83.0766 59.36 81.1033 61.28C79.0766 63.1467 77.2633 64.08 75.6633 64.08C74.2766 64.08 73.1833 63.4667 72.3833 62.24C71.53 61.0667 71.1033 59.44 71.1033 57.36C71.1033 52.2933 73.37 47.0667 77.9033 41.68C78.65 40.7733 79.5033 39.9467 80.4633 39.2C81.4233 38.4533 82.4633 37.7867 83.5833 37.2C85.8766 36.0267 88.09 35.44 90.2233 35.44C92.8366 35.44 94.9166 36.2933 96.4633 38C96.8366 38.3733 97.0233 38.8 97.0233 39.28C97.0233 40.1867 96.5433 40.5333 95.5833 40.32C95.05 38.4 93.7966 37.44 91.8233 37.44C89.5833 37.44 86.9433 39.0133 83.9033 42.16C82.8366 43.3333 81.8233 44.56 80.8633 45.84C79.9033 47.0667 78.9966 48.3733 78.1433 49.76C75.85 53.6 74.7033 56.72 74.7033 59.12C74.7033 60.9333 75.3966 61.84 76.7833 61.84C78.33 61.84 80.1166 60.6667 82.1433 58.32C83.2633 57.04 84.41 55.4667 85.5833 53.6C86.7566 51.7333 87.9833 49.5733 89.2633 47.12C89.7966 46.1067 90.2766 45.28 90.7033 44.64C91.13 44 91.4766 43.52 91.7433 43.2C92.5966 42.3467 93.61 41.9467 94.7833 42L96.3833 42.24C97.0766 42.4 97.6633 42.4267 98.1433 42.32C97.6633 42.8 97.0766 43.5733 96.3833 44.64C95.7433 45.6533 94.9966 46.9867 94.1433 48.64C93.2366 50.4 92.49 52 91.9033 53.44C91.3166 54.88 90.9166 56.16 90.7033 57.28C90.5966 57.8133 90.5166 58.32 90.4633 58.8C90.41 59.2267 90.3833 59.6267 90.3833 60C90.3833 61.3867 90.7566 62.08 91.5033 62.08C92.57 62.08 94.0366 60.9067 95.9033 58.56L96.2233 58.16L97.3433 58.88L97.0233 59.36C94.8366 62.56 92.6766 64.16 90.5433 64.16ZM102.255 64C100.709 64 99.9352 63.2267 99.9352 61.68C99.9352 60.72 100.255 59.4133 100.895 57.76L116.415 18.08C116.522 17.92 116.575 17.76 116.575 17.6C116.575 17.44 116.575 17.3067 116.575 17.2C116.575 16.4 116.255 15.5733 115.615 14.72H119.935C121.429 14.72 122.175 15.0667 122.175 15.76C122.175 16.08 122.015 16.64 121.695 17.44L106.175 56.96C105.482 58.6667 105.135 60.1867 105.135 61.52C105.135 62.7467 105.509 63.5733 106.255 64H102.255ZM120.96 64C117.493 64 115.76 62.1067 115.76 58.32C115.76 57.5733 115.813 56.8 115.92 56C116.08 55.2 116.32 54.4 116.64 53.6C119.466 46.1333 121.866 40.0533 123.84 35.36H118.64L119.6 33.6H124.56L126.48 28C127.173 26.0267 127.76 24.8533 128.24 24.48C128.613 24.2133 129.466 24.08 130.8 24.08L134.24 24.16C133.173 25.0667 132.373 26.16 131.84 27.44L129.2 33.6H135.28L134.32 35.36H128.48C128.106 36.2133 127.733 37.0667 127.36 37.92C127.04 38.7733 126.666 39.6533 126.24 40.56C125.12 43.0133 124.16 45.3333 123.36 47.52C122.4 50.0267 121.626 52.1867 121.04 54C120.506 55.8133 120.186 57.2533 120.08 58.32C119.866 60.9333 120.56 62.24 122.16 62.24C123.653 62.24 125.466 60.64 127.6 57.44L128.56 58.56C126 62.1867 123.466 64 120.96 64ZM166.559 64.16C165.386 64.16 164.426 63.8133 163.679 63.12C162.612 62.2133 162.079 60.6933 162.079 58.56C162.079 57.1733 162.319 55.6 162.799 53.84C160.986 56.88 159.092 59.36 157.119 61.28C155.092 63.1467 153.279 64.08 151.679 64.08C150.292 64.08 149.199 63.4667 148.399 62.24C147.546 61.0667 147.119 59.44 147.119 57.36C147.119 52.2933 149.386 47.0667 153.919 41.68C154.666 40.7733 155.519 39.9467 156.479 39.2C157.439 38.4533 158.479 37.7867 159.599 37.2C161.892 36.0267 164.106 35.44 166.239 35.44C168.852 35.44 170.932 36.2933 172.479 38C172.852 38.3733 173.039 38.8 173.039 39.28C173.039 40.1867 172.559 40.5333 171.599 40.32C171.066 38.4 169.812 37.44 167.839 37.44C165.599 37.44 162.959 39.0133 159.919 42.16C158.852 43.3333 157.839 44.56 156.879 45.84C155.919 47.0667 155.012 48.3733 154.159 49.76C151.866 53.6 150.719 56.72 150.719 59.12C150.719 60.9333 151.412 61.84 152.799 61.84C154.346 61.84 156.132 60.6667 158.159 58.32C159.279 57.04 160.426 55.4667 161.599 53.6C162.772 51.7333 163.999 49.5733 165.279 47.12C165.812 46.1067 166.292 45.28 166.719 44.64C167.146 44 167.492 43.52 167.759 43.2C168.612 42.3467 169.626 41.9467 170.799 42L172.399 42.24C173.092 42.4 173.679 42.4267 174.159 42.32C173.679 42.8 173.092 43.5733 172.399 44.64C171.759 45.6533 171.012 46.9867 170.159 48.64C169.252 50.4 168.506 52 167.919 53.44C167.332 54.88 166.932 56.16 166.719 57.28C166.612 57.8133 166.532 58.32 166.479 58.8C166.426 59.2267 166.399 59.6267 166.399 60C166.399 61.3867 166.772 62.08 167.519 62.08C168.586 62.08 170.052 60.9067 171.919 58.56L172.239 58.16L173.359 58.88L173.039 59.36C170.852 62.56 168.692 64.16 166.559 64.16ZM174.191 64.56C175.257 61.9467 176.591 58.72 178.191 54.88C179.791 51.04 181.737 46.6133 184.031 41.6C184.511 40.5333 184.964 39.6533 185.391 38.96C185.817 38.2667 186.217 37.7333 186.591 37.36C187.337 36.6133 188.297 36.24 189.471 36.24C189.577 36.24 189.764 36.24 190.031 36.24C190.297 36.24 190.671 36.2933 191.151 36.4C191.897 36.4533 192.457 36.4533 192.831 36.4C190.857 37.5733 187.897 42.7467 183.951 51.92C184.591 51.0133 185.444 50.0267 186.511 48.96C187.631 47.84 188.937 46.6133 190.431 45.28C191.391 44.3733 192.457 43.52 193.631 42.72C194.804 41.8667 196.084 41.0667 197.471 40.32C200.617 38.56 202.937 37.68 204.431 37.68C204.804 37.68 205.071 37.7067 205.231 37.76C204.377 39.2533 203.577 40.6933 202.831 42.08C202.137 43.4667 201.471 44.7733 200.831 46C197.737 51.9733 196.004 56.1067 195.631 58.4C195.577 58.7733 195.524 59.12 195.471 59.44C195.471 59.76 195.471 60.0533 195.471 60.32C195.471 61.7067 195.977 62.4 196.991 62.4C198.644 62.4 200.617 60.72 202.911 57.36L204.031 58.16C201.311 62.2667 198.564 64.32 195.791 64.32C192.431 64.32 190.751 62.5867 190.751 59.12C190.751 56.2933 192.484 52.1067 195.951 46.56C196.484 45.7067 196.751 44.9867 196.751 44.4C196.751 43.76 196.457 43.44 195.871 43.44C195.284 43.44 194.511 43.76 193.551 44.4C192.644 44.9867 191.551 45.8667 190.271 47.04C188.244 48.9067 186.351 51.1467 184.591 53.76C182.831 56.32 181.231 59.2533 179.791 62.56C179.471 63.36 178.644 63.84 177.311 64C175.604 64.16 174.564 64.3467 174.191 64.56ZM227.225 64C224.132 64 222.585 62.0267 222.585 58.08C222.585 56.3733 222.879 54.7733 223.465 53.28C219.465 60.32 215.625 63.84 211.945 63.84C211.732 63.84 211.519 63.84 211.305 63.84C211.092 63.7867 210.852 63.7333 210.585 63.68C207.919 62.9333 206.585 60.9067 206.585 57.6C206.585 55.1467 207.252 52.4267 208.585 49.44C209.225 48 209.919 46.64 210.665 45.36C211.465 44.0267 212.345 42.8 213.305 41.68C216.665 37.6267 220.505 35.6 224.825 35.6C226.745 35.6 228.532 36.08 230.185 37.04C231.092 35.28 232.159 32.8267 233.385 29.68C234.665 26.48 236.132 22.6133 237.785 18.08C238.425 16.32 239.092 15.1733 239.785 14.64C240.585 14.1067 241.652 13.8667 242.985 13.92L244.665 14.16C245.039 14.2133 245.359 14.2667 245.625 14.32C245.892 14.32 246.132 14.2933 246.345 14.24C245.812 14.8267 244.825 16.48 243.385 19.2C241.945 21.8667 240.079 25.6267 237.785 30.48C235.439 35.3867 233.439 39.76 231.785 43.6C230.185 47.44 228.905 50.6933 227.945 53.36C227.145 55.6 226.745 57.5467 226.745 59.2C226.745 61.0133 227.359 61.92 228.585 61.92C230.185 61.92 231.892 60.4533 233.705 57.52L234.025 57.12L235.305 57.76L234.985 58.16C232.532 62.0533 229.945 64 227.225 64ZM212.745 61.6C214.505 61.6 216.639 59.8667 219.145 56.4C221.812 52.6133 225.359 46.5867 229.785 38.32C229.145 37.68 228.372 37.36 227.465 37.36C225.279 37.36 222.719 38.8267 219.785 41.76C217.012 44.48 214.692 47.6 212.825 51.12C211.332 53.8933 210.585 56.32 210.585 58.4C210.585 60.5333 211.305 61.6 212.745 61.6ZM255.447 68.64C251.074 68.64 248.727 66.88 248.407 63.36C248.354 61.8667 248.754 60.5333 249.607 59.36C250.514 58.1333 251.66 57.52 253.047 57.52C254.06 57.52 254.94 57.9467 255.687 58.8C256.38 59.6 256.727 60.4533 256.727 61.36C256.727 63.8667 255.554 65.12 253.207 65.12C252.62 65.12 252.06 64.9867 251.527 64.72C251.047 64.5067 250.674 64.1333 250.407 63.6C250.727 65.52 252.327 66.48 255.207 66.48C255.847 66.48 256.434 66.4 256.967 66.24C261.554 65.0133 265.42 62.3733 268.567 58.32C269.954 56.56 271.5 54.0533 273.207 50.8C274.914 47.5467 276.807 43.6 278.887 38.96L289.447 15.52C289.98 14.3467 290.567 13.3067 291.207 12.4C291.9 11.44 292.62 10.5333 293.367 9.68C286.86 9.46666 280.22 10.48 273.447 12.72C266.3 15.12 261.074 18.3733 257.767 22.48C256.22 24.4533 255.447 26.2667 255.447 27.92C255.447 31.28 257.874 32.96 262.727 32.96C268.7 32.96 273.554 30.6133 277.287 25.92C278.194 24.8 279.047 23.4667 279.847 21.92C280.7 20.32 281.474 18.4533 282.167 16.32C282.327 15.9467 282.54 15.76 282.807 15.76C283.234 15.76 283.367 16.0533 283.207 16.64C282.994 17.3333 282.78 18.0267 282.567 18.72C282.407 19.4133 282.194 20.08 281.927 20.72C281.5 22 280.994 23.2 280.407 24.32C279.82 25.3867 279.18 26.3733 278.487 27.28C274.914 32.2933 269.847 34.8 263.287 34.8C260.247 34.8 257.874 34 256.167 32.4C254.407 30.8 253.527 28.8 253.527 26.4C253.527 24.2667 254.274 22.08 255.767 19.84C258.274 16.0533 263.18 13.04 270.487 10.8C273.687 9.84 276.994 9.12 280.407 8.64C283.874 8.10666 287.447 7.84 291.127 7.84C291.82 7.84 292.487 7.84 293.127 7.84C293.82 7.84 294.487 7.86666 295.127 7.92C298.38 5.09333 301.767 3.68 305.287 3.68C306.674 3.68 308.087 3.97333 309.527 4.56C309.794 4.66666 309.927 4.88 309.927 5.2C309.927 5.84 309.74 6.08 309.367 5.92C308.407 5.44 307.34 5.2 306.167 5.2C303.554 5.2 301.074 6.24 298.727 8.32C303.1 8.37333 306.514 9.30666 308.967 11.12C312.434 13.68 314.007 16.6933 313.687 20.16C313.207 25.6 309.82 30.0267 303.527 33.44C298.727 36.1067 293.767 37.44 288.647 37.44C288.274 37.44 287.874 37.44 287.447 37.44C287.074 37.44 286.674 37.4133 286.247 37.36C285.874 38.5333 285.34 39.9467 284.647 41.6C283.954 43.2 283.127 45.0133 282.167 47.04C279.98 51.68 276.7 56.1333 272.327 60.4C266.674 65.8933 261.047 68.64 255.447 68.64ZM288.567 35.68C292.194 35.68 295.634 34.56 298.887 32.32C301.927 30.24 304.407 27.4133 306.327 23.84C307.18 22.24 307.607 20.6933 307.607 19.2C307.607 16.5333 306.54 14.32 304.407 12.56C302.274 10.8533 299.74 10.1067 296.807 10.32C295.9 11.4933 294.914 13.2533 293.847 15.6C292.78 17.8933 291.66 20.7733 290.487 24.24C289.847 26.1067 289.234 28 288.647 29.92C288.06 31.84 287.474 33.7333 286.887 35.6C287.154 35.6533 287.42 35.68 287.687 35.68C288.007 35.68 288.3 35.68 288.567 35.68ZM327.965 64.16C326.792 64.16 325.832 63.8133 325.085 63.12C324.019 62.2133 323.485 60.6933 323.485 58.56C323.485 57.1733 323.725 55.6 324.205 53.84C322.392 56.88 320.499 59.36 318.525 61.28C316.499 63.1467 314.685 64.08 313.085 64.08C311.699 64.08 310.605 63.4667 309.805 62.24C308.952 61.0667 308.525 59.44 308.525 57.36C308.525 52.2933 310.792 47.0667 315.325 41.68C316.072 40.7733 316.925 39.9467 317.885 39.2C318.845 38.4533 319.885 37.7867 321.005 37.2C323.299 36.0267 325.512 35.44 327.645 35.44C330.259 35.44 332.339 36.2933 333.885 38C334.259 38.3733 334.445 38.8 334.445 39.28C334.445 40.1867 333.965 40.5333 333.005 40.32C332.472 38.4 331.219 37.44 329.245 37.44C327.005 37.44 324.365 39.0133 321.325 42.16C320.259 43.3333 319.245 44.56 318.285 45.84C317.325 47.0667 316.419 48.3733 315.565 49.76C313.272 53.6 312.125 56.72 312.125 59.12C312.125 60.9333 312.819 61.84 314.205 61.84C315.752 61.84 317.539 60.6667 319.565 58.32C320.685 57.04 321.832 55.4667 323.005 53.6C324.179 51.7333 325.405 49.5733 326.685 47.12C327.219 46.1067 327.699 45.28 328.125 44.64C328.552 44 328.899 43.52 329.165 43.2C330.019 42.3467 331.032 41.9467 332.205 42L333.805 42.24C334.499 42.4 335.085 42.4267 335.565 42.32C335.085 42.8 334.499 43.5733 333.805 44.64C333.165 45.6533 332.419 46.9867 331.565 48.64C330.659 50.4 329.912 52 329.325 53.44C328.739 54.88 328.339 56.16 328.125 57.28C328.019 57.8133 327.939 58.32 327.885 58.8C327.832 59.2267 327.805 59.6267 327.805 60C327.805 61.3867 328.179 62.08 328.925 62.08C329.992 62.08 331.459 60.9067 333.325 58.56L333.645 58.16L334.765 58.88L334.445 59.36C332.259 62.56 330.099 64.16 327.965 64.16ZM358.957 64.16C355.117 64.16 353.197 61.7333 353.197 56.88C353.197 55.5467 353.357 54.32 353.677 53.2C351.544 57.0933 350.21 59.3867 349.677 60.08C347.704 62.8533 345.757 64.16 343.837 64C340.05 63.5733 338.157 61.2533 338.157 57.04C338.157 55.3333 338.744 52.88 339.917 49.68C341.144 46.4267 342.904 42.3733 345.197 37.52C345.73 36.3467 346.77 35.76 348.317 35.76L353.117 35.84C351.197 37.28 349.49 39.52 347.997 42.56C346.29 46.08 344.984 49.1467 344.077 51.76C343.17 54.32 342.717 56.4267 342.717 58.08C342.717 60.5333 343.597 61.76 345.357 61.76C347.597 61.76 350.397 58.3733 353.757 51.6C354.824 49.4133 355.864 47.2 356.877 44.96C357.89 42.6667 358.904 40.4 359.917 38.16C360.504 37.04 361.517 36.48 362.957 36.48H367.837C367.09 36.9067 366.024 37.8933 364.637 39.44C363.997 40.5067 363.304 41.76 362.557 43.2C361.864 44.5867 361.09 46.1333 360.237 47.84C358.157 52.16 357.117 55.92 357.117 59.12C357.117 61.4133 357.97 62.56 359.677 62.56C363.624 62.56 367.437 57.92 371.117 48.64C370.37 46.88 369.997 45.2533 369.997 43.76C369.997 42.6933 370.157 41.6533 370.477 40.64C371.064 38.6667 371.89 37.1733 372.957 36.16C373.917 35.2 374.85 34.72 375.757 34.72C376.664 34.72 377.117 35.1467 377.117 36L376.717 37.44C374.584 44.6933 372.584 50.1333 370.717 53.76C367.197 60.6933 363.277 64.16 358.957 64.16ZM382.198 64.32C379.532 64.32 377.478 63.52 376.038 61.92C374.865 60.5867 374.278 58.9867 374.278 57.12C374.278 54.4 375.132 53.04 376.838 53.04C377.478 53.04 378.065 53.28 378.598 53.76C379.132 54.2933 379.398 54.9067 379.398 55.6C379.398 56.0267 379.292 56.3733 379.078 56.64C378.385 57.4933 378.038 58.4267 378.038 59.44C378.038 60.4533 378.358 61.28 378.998 61.92C379.692 62.6133 380.572 62.96 381.638 62.96C382.758 62.96 383.772 62.5867 384.678 61.84C385.905 60.72 386.518 59.1733 386.518 57.2C386.518 55.4933 386.065 53.5733 385.158 51.44C384.785 50.9067 384.332 50.2133 383.798 49.36C383.318 48.5067 382.758 47.4933 382.118 46.32C381.745 45.68 381.478 45.04 381.318 44.4C381.212 43.7067 381.158 43.04 381.158 42.4C381.158 40.16 381.985 38.3733 383.638 37.04C385.345 35.6533 387.532 34.96 390.198 34.96C390.945 34.96 391.665 35.04 392.358 35.2C393.105 35.36 393.772 35.6533 394.358 36.08C395.585 36.9867 396.198 38.1067 396.198 39.44C396.198 40.0267 396.092 40.56 395.878 41.04C395.398 42.4267 394.358 43.12 392.758 43.12C390.998 43.12 390.118 42.2133 390.118 40.4C390.118 39.8667 390.198 39.4133 390.358 39.04C390.518 38.5067 391.105 37.9733 392.118 37.44C391.745 36.7467 391.052 36.4 390.038 36.4C389.132 36.4 388.465 36.6133 388.038 37.04C386.758 38.16 386.118 39.5733 386.118 41.28C386.118 42.4533 386.438 43.7333 387.078 45.12C387.185 45.3333 388.225 47.0133 390.198 50.16C391.532 52.2933 392.198 54.08 392.198 55.52C392.198 57.8133 391.132 59.84 388.998 61.6C386.865 63.4133 384.598 64.32 382.198 64.32Z" fill="#1F2A37"/>
<path d="M27.3825 107.689C17.9217 107.366 8.96084 107.046 0 106.725C0.00653 106.254 0.0130768 105.782 0.0196228 105.311C18.6387 105.311 37.2578 105.311 55.8768 105.311C55.8954 105.938 55.9139 106.565 55.9324 107.192C46.5825 107.359 37.2325 107.526 27.3825 107.689Z" fill="#5F8F91"/>
<path d="M89.9646 115.144C88.7006 115.144 87.5326 114.936 86.4606 114.52C85.3886 114.088 84.4606 113.488 83.6766 112.72C82.8926 111.952 82.2766 111.048 81.8286 110.008C81.3966 108.968 81.1806 107.832 81.1806 106.6C81.1806 105.368 81.3966 104.232 81.8286 103.192C82.2766 102.152 82.8926 101.248 83.6766 100.48C84.4766 99.712 85.4126 99.12 86.4846 98.704C87.5566 98.272 88.7246 98.056 89.9886 98.056C91.2046 98.056 92.3486 98.264 93.4206 98.68C94.4926 99.08 95.3966 99.688 96.1326 100.504L95.0046 101.632C94.3166 100.928 93.5566 100.424 92.7246 100.12C91.8926 99.8 90.9966 99.64 90.0366 99.64C89.0286 99.64 88.0926 99.816 87.2286 100.168C86.3646 100.504 85.6126 100.992 84.9726 101.632C84.3326 102.256 83.8286 102.992 83.4606 103.84C83.1086 104.672 82.9326 105.592 82.9326 106.6C82.9326 107.608 83.1086 108.536 83.4606 109.384C83.8286 110.216 84.3326 110.952 84.9726 111.592C85.6126 112.216 86.3646 112.704 87.2286 113.056C88.0926 113.392 89.0286 113.56 90.0366 113.56C90.9966 113.56 91.8926 113.4 92.7246 113.08C93.5566 112.76 94.3166 112.248 95.0046 111.544L96.1326 112.672C95.3966 113.488 94.4926 114.104 93.4206 114.52C92.3486 114.936 91.1966 115.144 89.9646 115.144ZM106.911 115.144C105.647 115.144 104.471 114.936 103.383 114.52C102.311 114.088 101.375 113.488 100.575 112.72C99.7911 111.936 99.1751 111.032 98.7271 110.008C98.2951 108.968 98.0791 107.832 98.0791 106.6C98.0791 105.368 98.2951 104.24 98.7271 103.216C99.1751 102.176 99.7911 101.272 100.575 100.504C101.375 99.72 102.311 99.12 103.383 98.704C104.455 98.272 105.631 98.056 106.911 98.056C108.175 98.056 109.343 98.272 110.415 98.704C111.487 99.12 112.415 99.712 113.199 100.48C113.999 101.248 114.615 102.152 115.047 103.192C115.495 104.232 115.719 105.368 115.719 106.6C115.719 107.832 115.495 108.968 115.047 110.008C114.615 111.048 113.999 111.952 113.199 112.72C112.415 113.488 111.487 114.088 110.415 114.52C109.343 114.936 108.175 115.144 106.911 115.144ZM106.911 113.56C107.919 113.56 108.847 113.392 109.695 113.056C110.559 112.704 111.303 112.216 111.927 111.592C112.567 110.952 113.063 110.216 113.415 109.384C113.767 108.536 113.943 107.608 113.943 106.6C113.943 105.592 113.767 104.672 113.415 103.84C113.063 102.992 112.567 102.256 111.927 101.632C111.303 100.992 110.559 100.504 109.695 100.168C108.847 99.816 107.919 99.64 106.911 99.64C105.903 99.64 104.967 99.816 104.103 100.168C103.239 100.504 102.487 100.992 101.847 101.632C101.223 102.256 100.727 102.992 100.359 103.84C100.007 104.672 99.8311 105.592 99.8311 106.6C99.8311 107.592 100.007 108.512 100.359 109.36C100.727 110.208 101.223 110.952 101.847 111.592C102.487 112.216 103.239 112.704 104.103 113.056C104.967 113.392 105.903 113.56 106.911 113.56ZM116.777 115L124.457 98.2H126.209L133.889 115H132.017L124.961 99.232H125.681L118.625 115H116.777ZM119.801 110.512L120.329 109.072H130.097L130.625 110.512H119.801ZM141.301 115.144C140.053 115.144 138.853 114.944 137.701 114.544C136.565 114.128 135.685 113.6 135.061 112.96L135.757 111.592C136.349 112.168 137.141 112.656 138.133 113.056C139.141 113.44 140.197 113.632 141.301 113.632C142.357 113.632 143.213 113.504 143.869 113.248C144.541 112.976 145.029 112.616 145.333 112.168C145.653 111.72 145.813 111.224 145.813 110.68C145.813 110.024 145.621 109.496 145.237 109.096C144.869 108.696 144.381 108.384 143.773 108.16C143.165 107.92 142.493 107.712 141.757 107.536C141.021 107.36 140.285 107.176 139.549 106.984C138.813 106.776 138.133 106.504 137.509 106.168C136.901 105.832 136.405 105.392 136.021 104.848C135.653 104.288 135.469 103.56 135.469 102.664C135.469 101.832 135.685 101.072 136.117 100.384C136.565 99.68 137.245 99.12 138.157 98.704C139.069 98.272 140.237 98.056 141.661 98.056C142.605 98.056 143.541 98.192 144.469 98.464C145.397 98.72 146.197 99.08 146.869 99.544L146.269 100.96C145.549 100.48 144.781 100.128 143.965 99.904C143.165 99.68 142.389 99.568 141.637 99.568C140.629 99.568 139.797 99.704 139.141 99.976C138.485 100.248 137.997 100.616 137.677 101.08C137.373 101.528 137.221 102.04 137.221 102.616C137.221 103.272 137.405 103.8 137.773 104.2C138.157 104.6 138.653 104.912 139.261 105.136C139.885 105.36 140.565 105.56 141.301 105.736C142.037 105.912 142.765 106.104 143.485 106.312C144.221 106.52 144.893 106.792 145.501 107.128C146.125 107.448 146.621 107.88 146.989 108.424C147.373 108.968 147.565 109.68 147.565 110.56C147.565 111.376 147.341 112.136 146.893 112.84C146.445 113.528 145.757 114.088 144.829 114.52C143.917 114.936 142.741 115.144 141.301 115.144ZM154.464 115V99.736H148.56V98.2H162.144V99.736H156.24V115H154.464ZM161.449 115L169.129 98.2H170.881L178.561 115H176.689L169.633 99.232H170.353L163.297 115H161.449ZM164.473 110.512L165.001 109.072H174.769L175.297 110.512H164.473ZM181.34 115V98.2H183.116V113.464H192.524V115H181.34ZM201.755 115V98.2H208.043C209.467 98.2 210.691 98.432 211.715 98.896C212.739 99.344 213.523 100 214.067 100.864C214.627 101.712 214.907 102.744 214.907 103.96C214.907 105.144 214.627 106.168 214.067 107.032C213.523 107.88 212.739 108.536 211.715 109C210.691 109.464 209.467 109.696 208.043 109.696H202.739L203.531 108.856V115H201.755ZM203.531 109L202.739 108.136H207.995C209.675 108.136 210.947 107.776 211.811 107.056C212.691 106.32 213.131 105.288 213.131 103.96C213.131 102.616 212.691 101.576 211.811 100.84C210.947 100.104 209.675 99.736 207.995 99.736H202.739L203.531 98.896V109ZM220.331 105.712H229.211V107.224H220.331V105.712ZM220.523 113.464H230.627V115H218.747V98.2H230.267V99.736H220.523V113.464ZM238.065 115V99.736H232.161V98.2H245.745V99.736H239.841V115H238.065ZM262.16 115.144C260.896 115.144 259.728 114.936 258.656 114.52C257.584 114.088 256.656 113.488 255.872 112.72C255.088 111.952 254.472 111.048 254.024 110.008C253.592 108.968 253.376 107.832 253.376 106.6C253.376 105.368 253.592 104.232 254.024 103.192C254.472 102.152 255.088 101.248 255.872 100.48C256.672 99.712 257.608 99.12 258.68 98.704C259.752 98.272 260.92 98.056 262.184 98.056C263.4 98.056 264.544 98.264 265.616 98.68C266.688 99.08 267.592 99.688 268.328 100.504L267.2 101.632C266.512 100.928 265.752 100.424 264.92 100.12C264.088 99.8 263.192 99.64 262.232 99.64C261.224 99.64 260.288 99.816 259.424 100.168C258.56 100.504 257.808 100.992 257.168 101.632C256.528 102.256 256.024 102.992 255.656 103.84C255.304 104.672 255.128 105.592 255.128 106.6C255.128 107.608 255.304 108.536 255.656 109.384C256.024 110.216 256.528 110.952 257.168 111.592C257.808 112.216 258.56 112.704 259.424 113.056C260.288 113.392 261.224 113.56 262.232 113.56C263.192 113.56 264.088 113.4 264.92 113.08C265.752 112.76 266.512 112.248 267.2 111.544L268.328 112.672C267.592 113.488 266.688 114.104 265.616 114.52C264.544 114.936 263.392 115.144 262.16 115.144ZM269.004 115L276.684 98.2H278.436L286.116 115H284.244L277.188 99.232H277.908L270.852 115H269.004ZM272.028 110.512L272.556 109.072H282.324L282.852 110.512H272.028ZM288.895 115V98.2H295.183C296.607 98.2 297.831 98.432 298.855 98.896C299.879 99.344 300.663 100 301.207 100.864C301.767 101.712 302.047 102.744 302.047 103.96C302.047 105.144 301.767 106.168 301.207 107.032C300.663 107.88 299.879 108.536 298.855 109C297.831 109.448 296.607 109.672 295.183 109.672H289.879L290.671 108.856V115H288.895ZM300.367 115L296.047 108.904H297.967L302.311 115H300.367ZM290.671 109L289.879 108.16H295.135C296.815 108.16 298.087 107.792 298.951 107.056C299.831 106.32 300.271 105.288 300.271 103.96C300.271 102.616 299.831 101.576 298.951 100.84C298.087 100.104 296.815 99.736 295.135 99.736H289.879L290.671 98.896V109ZM307.823 105.712H316.703V107.224H307.823V105.712ZM308.015 113.464H318.119V115H306.239V98.2H317.759V99.736H308.015V113.464Z" fill="#1F2A37"/>
<path d="M390.977 107.059C374.97 107.907 359.438 108.002 343.933 106.955C343.94 106.397 343.947 105.84 343.954 105.282C363.328 105.282 382.703 105.282 402.078 105.282C402.083 105.618 402.089 105.954 402.094 106.29C398.542 106.524 394.99 106.758 390.977 107.059Z" fill="#5F8F91"/>
</svg>
