<svg width="648" height="131" viewBox="0 0 648 131" fill="none" xmlns="http://www.w3.org/2000/svg">
<path d="M30.3739 76.1691C24.2939 76.1691 19.4939 75.1024 15.9739 72.9691C12.5073 70.7824 10.7739 67.9291 10.7739 64.4091C10.7739 60.5157 12.6939 56.8624 16.5339 53.4491C20.6406 49.8224 26.0273 47.3691 32.6939 46.0891C33.6006 45.9291 34.5606 45.7957 35.5739 45.6891C36.5873 45.5824 37.6006 45.5291 38.6139 45.5291C44.8006 45.5291 48.9873 47.0224 51.1739 50.0091C51.3873 50.2757 51.4939 50.6224 51.4939 51.0491C51.4939 51.9024 51.2539 52.0357 50.7739 51.4491C48.8539 48.7291 44.6673 47.3691 38.2139 47.3691C36.1873 47.3691 34.3739 47.5291 32.7739 47.8491C27.1739 48.9157 22.7206 51.0224 19.4139 54.1691C16.2673 57.1557 14.6939 60.3291 14.6939 63.6891C14.6939 66.8891 16.1339 69.4491 19.0139 71.3691C21.8406 73.2891 25.6806 74.2491 30.5339 74.2491C35.1206 74.2491 39.3606 73.6891 43.2539 72.5691C47.1473 71.5024 50.7206 69.9824 53.9739 68.0091C59.3073 64.7557 61.9739 60.4357 61.9739 55.0491C61.9739 48.8624 58.1073 43.2891 50.3739 38.3291C48.4006 37.0491 46.7473 35.9291 45.4139 34.9691C44.0806 33.9557 43.0406 33.1024 42.2939 32.4091C39.4673 29.6891 38.0539 26.8091 38.0539 23.7691C38.0539 22.9691 38.1339 22.2224 38.2939 21.5291C39.0406 18.0624 41.3606 15.2624 45.2539 13.1291C48.8273 11.1557 52.6939 10.1691 56.8539 10.1691C61.6006 10.1691 65.2006 10.9957 67.6539 12.6491C69.4139 13.8224 70.2939 15.6091 70.2939 18.0091C70.2939 19.5557 69.8406 20.9957 68.9339 22.3291C68.0806 23.6091 66.9606 24.2491 65.5739 24.2491C64.5606 24.2491 63.6539 23.8491 62.8539 23.0491C62.1606 22.3557 61.8139 21.5291 61.8139 20.5691C61.8139 18.0091 63.0673 16.7291 65.5739 16.7291C67.0673 16.7291 67.9739 17.2091 68.2939 18.1691C68.5606 16.7291 68.0006 15.4757 66.6139 14.4091C64.4273 12.7024 61.5739 11.8491 58.0539 11.8491C54.3739 11.8491 51.0139 12.8891 47.9739 14.9691C44.7206 17.1557 43.0939 19.6891 43.0939 22.5691C43.0939 26.3024 46.5073 30.1424 53.3339 34.0891C62.8806 39.5291 67.6539 45.8224 67.6539 52.9691C67.6539 56.1157 66.6406 59.1557 64.6139 62.0891C62.5873 65.0757 59.8939 67.5291 56.5339 69.4491C48.8539 73.9291 40.1339 76.1691 30.3739 76.1691ZM90.5433 68.9691C89.37 68.9691 88.41 68.6224 87.6633 67.9291C86.5966 67.0224 86.0633 65.5024 86.0633 63.3691C86.0633 61.9824 86.3033 60.4091 86.7833 58.6491C84.97 61.6891 83.0766 64.1691 81.1033 66.0891C79.0766 67.9557 77.2633 68.8891 75.6633 68.8891C74.2766 68.8891 73.1833 68.2757 72.3833 67.0491C71.53 65.8757 71.1033 64.2491 71.1033 62.1691C71.1033 57.1024 73.37 51.8757 77.9033 46.4891C78.65 45.5824 79.5033 44.7557 80.4633 44.0091C81.4233 43.2624 82.4633 42.5957 83.5833 42.0091C85.8766 40.8357 88.09 40.2491 90.2233 40.2491C92.8366 40.2491 94.9166 41.1024 96.4633 42.8091C96.8366 43.1824 97.0233 43.6091 97.0233 44.0891C97.0233 44.9957 96.5433 45.3424 95.5833 45.1291C95.05 43.2091 93.7966 42.2491 91.8233 42.2491C89.5833 42.2491 86.9433 43.8224 83.9033 46.9691C82.8366 48.1424 81.8233 49.3691 80.8633 50.6491C79.9033 51.8757 78.9966 53.1824 78.1433 54.5691C75.85 58.4091 74.7033 61.5291 74.7033 63.9291C74.7033 65.7424 75.3966 66.6491 76.7833 66.6491C78.33 66.6491 80.1166 65.4757 82.1433 63.1291C83.2633 61.8491 84.41 60.2757 85.5833 58.4091C86.7566 56.5424 87.9833 54.3824 89.2633 51.9291C89.7966 50.9157 90.2766 50.0891 90.7033 49.4491C91.13 48.8091 91.4766 48.3291 91.7433 48.0091C92.5966 47.1557 93.61 46.7557 94.7833 46.8091L96.3833 47.0491C97.0766 47.2091 97.6633 47.2357 98.1433 47.1291C97.6633 47.6091 97.0766 48.3824 96.3833 49.4491C95.7433 50.4624 94.9966 51.7957 94.1433 53.4491C93.2366 55.2091 92.49 56.8091 91.9033 58.2491C91.3166 59.6891 90.9166 60.9691 90.7033 62.0891C90.5966 62.6224 90.5166 63.1291 90.4633 63.6091C90.41 64.0357 90.3833 64.4357 90.3833 64.8091C90.3833 66.1957 90.7566 66.8891 91.5033 66.8891C92.57 66.8891 94.0366 65.7157 95.9033 63.3691L96.2233 62.9691L97.3433 63.6891L97.0233 64.1691C94.8366 67.3691 92.6766 68.9691 90.5433 68.9691ZM102.255 68.8091C100.709 68.8091 99.9352 68.0357 99.9352 66.4891C99.9352 65.5291 100.255 64.2224 100.895 62.5691L116.415 22.8891C116.522 22.7291 116.575 22.5691 116.575 22.4091C116.575 22.2491 116.575 22.1157 116.575 22.0091C116.575 21.2091 116.255 20.3824 115.615 19.5291H119.935C121.429 19.5291 122.175 19.8757 122.175 20.5691C122.175 20.8891 122.015 21.4491 121.695 22.2491L106.175 61.7691C105.482 63.4757 105.135 64.9957 105.135 66.3291C105.135 67.5557 105.509 68.3824 106.255 68.8091H102.255ZM120.96 68.8091C117.493 68.8091 115.76 66.9157 115.76 63.1291C115.76 62.3824 115.813 61.6091 115.92 60.8091C116.08 60.0091 116.32 59.2091 116.64 58.4091C119.466 50.9424 121.866 44.8624 123.84 40.1691H118.64L119.6 38.4091H124.56L126.48 32.8091C127.173 30.8357 127.76 29.6624 128.24 29.2891C128.613 29.0224 129.466 28.8891 130.8 28.8891L134.24 28.9691C133.173 29.8757 132.373 30.9691 131.84 32.2491L129.2 38.4091H135.28L134.32 40.1691H128.48C128.106 41.0224 127.733 41.8757 127.36 42.7291C127.04 43.5824 126.666 44.4624 126.24 45.3691C125.12 47.8224 124.16 50.1424 123.36 52.3291C122.4 54.8357 121.626 56.9957 121.04 58.8091C120.506 60.6224 120.186 62.0624 120.08 63.1291C119.866 65.7424 120.56 67.0491 122.16 67.0491C123.653 67.0491 125.466 65.4491 127.6 62.2491L128.56 63.3691C126 66.9957 123.466 68.8091 120.96 68.8091ZM166.559 68.9691C165.386 68.9691 164.426 68.6224 163.679 67.9291C162.612 67.0224 162.079 65.5024 162.079 63.3691C162.079 61.9824 162.319 60.4091 162.799 58.6491C160.986 61.6891 159.092 64.1691 157.119 66.0891C155.092 67.9557 153.279 68.8891 151.679 68.8891C150.292 68.8891 149.199 68.2757 148.399 67.0491C147.546 65.8757 147.119 64.2491 147.119 62.1691C147.119 57.1024 149.386 51.8757 153.919 46.4891C154.666 45.5824 155.519 44.7557 156.479 44.0091C157.439 43.2624 158.479 42.5957 159.599 42.0091C161.892 40.8357 164.106 40.2491 166.239 40.2491C168.852 40.2491 170.932 41.1024 172.479 42.8091C172.852 43.1824 173.039 43.6091 173.039 44.0891C173.039 44.9957 172.559 45.3424 171.599 45.1291C171.066 43.2091 169.812 42.2491 167.839 42.2491C165.599 42.2491 162.959 43.8224 159.919 46.9691C158.852 48.1424 157.839 49.3691 156.879 50.6491C155.919 51.8757 155.012 53.1824 154.159 54.5691C151.866 58.4091 150.719 61.5291 150.719 63.9291C150.719 65.7424 151.412 66.6491 152.799 66.6491C154.346 66.6491 156.132 65.4757 158.159 63.1291C159.279 61.8491 160.426 60.2757 161.599 58.4091C162.772 56.5424 163.999 54.3824 165.279 51.9291C165.812 50.9157 166.292 50.0891 166.719 49.4491C167.146 48.8091 167.492 48.3291 167.759 48.0091C168.612 47.1557 169.626 46.7557 170.799 46.8091L172.399 47.0491C173.092 47.2091 173.679 47.2357 174.159 47.1291C173.679 47.6091 173.092 48.3824 172.399 49.4491C171.759 50.4624 171.012 51.7957 170.159 53.4491C169.252 55.2091 168.506 56.8091 167.919 58.2491C167.332 59.6891 166.932 60.9691 166.719 62.0891C166.612 62.6224 166.532 63.1291 166.479 63.6091C166.426 64.0357 166.399 64.4357 166.399 64.8091C166.399 66.1957 166.772 66.8891 167.519 66.8891C168.586 66.8891 170.052 65.7157 171.919 63.3691L172.239 62.9691L173.359 63.6891L173.039 64.1691C170.852 67.3691 168.692 68.9691 166.559 68.9691ZM174.191 69.3691C175.257 66.7557 176.591 63.5291 178.191 59.6891C179.791 55.8491 181.737 51.4224 184.031 46.4091C184.511 45.3424 184.964 44.4624 185.391 43.7691C185.817 43.0757 186.217 42.5424 186.591 42.1691C187.337 41.4224 188.297 41.0491 189.471 41.0491C189.577 41.0491 189.764 41.0491 190.031 41.0491C190.297 41.0491 190.671 41.1024 191.151 41.2091C191.897 41.2624 192.457 41.2624 192.831 41.2091C190.857 42.3824 187.897 47.5557 183.951 56.7291C184.591 55.8224 185.444 54.8357 186.511 53.7691C187.631 52.6491 188.937 51.4224 190.431 50.0891C191.391 49.1824 192.457 48.3291 193.631 47.5291C194.804 46.6757 196.084 45.8757 197.471 45.1291C200.617 43.3691 202.937 42.4891 204.431 42.4891C204.804 42.4891 205.071 42.5157 205.231 42.5691C204.377 44.0624 203.577 45.5024 202.831 46.8891C202.137 48.2757 201.471 49.5824 200.831 50.8091C197.737 56.7824 196.004 60.9157 195.631 63.2091C195.577 63.5824 195.524 63.9291 195.471 64.2491C195.471 64.5691 195.471 64.8624 195.471 65.1291C195.471 66.5157 195.977 67.2091 196.991 67.2091C198.644 67.2091 200.617 65.5291 202.911 62.1691L204.031 62.9691C201.311 67.0757 198.564 69.1291 195.791 69.1291C192.431 69.1291 190.751 67.3957 190.751 63.9291C190.751 61.1024 192.484 56.9157 195.951 51.3691C196.484 50.5157 196.751 49.7957 196.751 49.2091C196.751 48.5691 196.457 48.2491 195.871 48.2491C195.284 48.2491 194.511 48.5691 193.551 49.2091C192.644 49.7957 191.551 50.6757 190.271 51.8491C188.244 53.7157 186.351 55.9557 184.591 58.5691C182.831 61.1291 181.231 64.0624 179.791 67.3691C179.471 68.1691 178.644 68.6491 177.311 68.8091C175.604 68.9691 174.564 69.1557 174.191 69.3691ZM227.225 68.8091C224.132 68.8091 222.585 66.8357 222.585 62.8891C222.585 61.1824 222.879 59.5824 223.465 58.0891C219.465 65.1291 215.625 68.6491 211.945 68.6491C211.732 68.6491 211.519 68.6491 211.305 68.6491C211.092 68.5957 210.852 68.5424 210.585 68.4891C207.919 67.7424 206.585 65.7157 206.585 62.4091C206.585 59.9557 207.252 57.2357 208.585 54.2491C209.225 52.8091 209.919 51.4491 210.665 50.1691C211.465 48.8357 212.345 47.6091 213.305 46.4891C216.665 42.4357 220.505 40.4091 224.825 40.4091C226.745 40.4091 228.532 40.8891 230.185 41.8491C231.092 40.0891 232.159 37.6357 233.385 34.4891C234.665 31.2891 236.132 27.4224 237.785 22.8891C238.425 21.1291 239.092 19.9824 239.785 19.4491C240.585 18.9157 241.652 18.6757 242.985 18.7291L244.665 18.9691C245.039 19.0224 245.359 19.0757 245.625 19.1291C245.892 19.1291 246.132 19.1024 246.345 19.0491C245.812 19.6357 244.825 21.2891 243.385 24.0091C241.945 26.6757 240.079 30.4357 237.785 35.2891C235.439 40.1957 233.439 44.5691 231.785 48.4091C230.185 52.2491 228.905 55.5024 227.945 58.1691C227.145 60.4091 226.745 62.3557 226.745 64.0091C226.745 65.8224 227.359 66.7291 228.585 66.7291C230.185 66.7291 231.892 65.2624 233.705 62.3291L234.025 61.9291L235.305 62.5691L234.985 62.9691C232.532 66.8624 229.945 68.8091 227.225 68.8091ZM212.745 66.4091C214.505 66.4091 216.639 64.6757 219.145 61.2091C221.812 57.4224 225.359 51.3957 229.785 43.1291C229.145 42.4891 228.372 42.1691 227.465 42.1691C225.279 42.1691 222.719 43.6357 219.785 46.5691C217.012 49.2891 214.692 52.4091 212.825 55.9291C211.332 58.7024 210.585 61.1291 210.585 63.2091C210.585 65.3424 211.305 66.4091 212.745 66.4091ZM255.447 73.4491C251.074 73.4491 248.727 71.6891 248.407 68.1691C248.354 66.6757 248.754 65.3424 249.607 64.1691C250.514 62.9424 251.66 62.3291 253.047 62.3291C254.06 62.3291 254.94 62.7557 255.687 63.6091C256.38 64.4091 256.727 65.2624 256.727 66.1691C256.727 68.6757 255.554 69.9291 253.207 69.9291C252.62 69.9291 252.06 69.7957 251.527 69.5291C251.047 69.3157 250.674 68.9424 250.407 68.4091C250.727 70.3291 252.327 71.2891 255.207 71.2891C255.847 71.2891 256.434 71.2091 256.967 71.0491C261.554 69.8224 265.42 67.1824 268.567 63.1291C269.954 61.3691 271.5 58.8624 273.207 55.6091C274.914 52.3557 276.807 48.4091 278.887 43.7691L289.447 20.3291C289.98 19.1557 290.567 18.1157 291.207 17.2091C291.9 16.2491 292.62 15.3424 293.367 14.4891C286.86 14.2757 280.22 15.2891 273.447 17.5291C266.3 19.9291 261.074 23.1824 257.767 27.2891C256.22 29.2624 255.447 31.0757 255.447 32.7291C255.447 36.0891 257.874 37.7691 262.727 37.7691C268.7 37.7691 273.554 35.4224 277.287 30.7291C278.194 29.6091 279.047 28.2757 279.847 26.7291C280.7 25.1291 281.474 23.2624 282.167 21.1291C282.327 20.7557 282.54 20.5691 282.807 20.5691C283.234 20.5691 283.367 20.8624 283.207 21.4491C282.994 22.1424 282.78 22.8357 282.567 23.5291C282.407 24.2224 282.194 24.8891 281.927 25.5291C281.5 26.8091 280.994 28.0091 280.407 29.1291C279.82 30.1957 279.18 31.1824 278.487 32.0891C274.914 37.1024 269.847 39.6091 263.287 39.6091C260.247 39.6091 257.874 38.8091 256.167 37.2091C254.407 35.6091 253.527 33.6091 253.527 31.2091C253.527 29.0757 254.274 26.8891 255.767 24.6491C258.274 20.8624 263.18 17.8491 270.487 15.6091C273.687 14.6491 276.994 13.9291 280.407 13.4491C283.874 12.9157 287.447 12.6491 291.127 12.6491C291.82 12.6491 292.487 12.6491 293.127 12.6491C293.82 12.6491 294.487 12.6757 295.127 12.7291C298.38 9.90241 301.767 8.48908 305.287 8.48908C306.674 8.48908 308.087 8.78241 309.527 9.36908C309.794 9.47574 309.927 9.68908 309.927 10.0091C309.927 10.6491 309.74 10.8891 309.367 10.7291C308.407 10.2491 307.34 10.0091 306.167 10.0091C303.554 10.0091 301.074 11.0491 298.727 13.1291C303.1 13.1824 306.514 14.1157 308.967 15.9291C312.434 18.4891 314.007 21.5024 313.687 24.9691C313.207 30.4091 309.82 34.8357 303.527 38.2491C298.727 40.9157 293.767 42.2491 288.647 42.2491C288.274 42.2491 287.874 42.2491 287.447 42.2491C287.074 42.2491 286.674 42.2224 286.247 42.1691C285.874 43.3424 285.34 44.7557 284.647 46.4091C283.954 48.0091 283.127 49.8224 282.167 51.8491C279.98 56.4891 276.7 60.9424 272.327 65.2091C266.674 70.7024 261.047 73.4491 255.447 73.4491ZM288.567 40.4891C292.194 40.4891 295.634 39.3691 298.887 37.1291C301.927 35.0491 304.407 32.2224 306.327 28.6491C307.18 27.0491 307.607 25.5024 307.607 24.0091C307.607 21.3424 306.54 19.1291 304.407 17.3691C302.274 15.6624 299.74 14.9157 296.807 15.1291C295.9 16.3024 294.914 18.0624 293.847 20.4091C292.78 22.7024 291.66 25.5824 290.487 29.0491C289.847 30.9157 289.234 32.8091 288.647 34.7291C288.06 36.6491 287.474 38.5424 286.887 40.4091C287.154 40.4624 287.42 40.4891 287.687 40.4891C288.007 40.4891 288.3 40.4891 288.567 40.4891ZM327.965 68.9691C326.792 68.9691 325.832 68.6224 325.085 67.9291C324.019 67.0224 323.485 65.5024 323.485 63.3691C323.485 61.9824 323.725 60.4091 324.205 58.6491C322.392 61.6891 320.499 64.1691 318.525 66.0891C316.499 67.9557 314.685 68.8891 313.085 68.8891C311.699 68.8891 310.605 68.2757 309.805 67.0491C308.952 65.8757 308.525 64.2491 308.525 62.1691C308.525 57.1024 310.792 51.8757 315.325 46.4891C316.072 45.5824 316.925 44.7557 317.885 44.0091C318.845 43.2624 319.885 42.5957 321.005 42.0091C323.299 40.8357 325.512 40.2491 327.645 40.2491C330.259 40.2491 332.339 41.1024 333.885 42.8091C334.259 43.1824 334.445 43.6091 334.445 44.0891C334.445 44.9957 333.965 45.3424 333.005 45.1291C332.472 43.2091 331.219 42.2491 329.245 42.2491C327.005 42.2491 324.365 43.8224 321.325 46.9691C320.259 48.1424 319.245 49.3691 318.285 50.6491C317.325 51.8757 316.419 53.1824 315.565 54.5691C313.272 58.4091 312.125 61.5291 312.125 63.9291C312.125 65.7424 312.819 66.6491 314.205 66.6491C315.752 66.6491 317.539 65.4757 319.565 63.1291C320.685 61.8491 321.832 60.2757 323.005 58.4091C324.179 56.5424 325.405 54.3824 326.685 51.9291C327.219 50.9157 327.699 50.0891 328.125 49.4491C328.552 48.8091 328.899 48.3291 329.165 48.0091C330.019 47.1557 331.032 46.7557 332.205 46.8091L333.805 47.0491C334.499 47.2091 335.085 47.2357 335.565 47.1291C335.085 47.6091 334.499 48.3824 333.805 49.4491C333.165 50.4624 332.419 51.7957 331.565 53.4491C330.659 55.2091 329.912 56.8091 329.325 58.2491C328.739 59.6891 328.339 60.9691 328.125 62.0891C328.019 62.6224 327.939 63.1291 327.885 63.6091C327.832 64.0357 327.805 64.4357 327.805 64.8091C327.805 66.1957 328.179 66.8891 328.925 66.8891C329.992 66.8891 331.459 65.7157 333.325 63.3691L333.645 62.9691L334.765 63.6891L334.445 64.1691C332.259 67.3691 330.099 68.9691 327.965 68.9691ZM358.957 68.9691C355.117 68.9691 353.197 66.5424 353.197 61.6891C353.197 60.3557 353.357 59.1291 353.677 58.0091C351.544 61.9024 350.21 64.1957 349.677 64.8891C347.704 67.6624 345.757 68.9691 343.837 68.8091C340.05 68.3824 338.157 66.0624 338.157 61.8491C338.157 60.1424 338.744 57.6891 339.917 54.4891C341.144 51.2357 342.904 47.1824 345.197 42.3291C345.73 41.1557 346.77 40.5691 348.317 40.5691L353.117 40.6491C351.197 42.0891 349.49 44.3291 347.997 47.3691C346.29 50.8891 344.984 53.9557 344.077 56.5691C343.17 59.1291 342.717 61.2357 342.717 62.8891C342.717 65.3424 343.597 66.5691 345.357 66.5691C347.597 66.5691 350.397 63.1824 353.757 56.4091C354.824 54.2224 355.864 52.0091 356.877 49.7691C357.89 47.4757 358.904 45.2091 359.917 42.9691C360.504 41.8491 361.517 41.2891 362.957 41.2891H367.837C367.09 41.7157 366.024 42.7024 364.637 44.2491C363.997 45.3157 363.304 46.5691 362.557 48.0091C361.864 49.3957 361.09 50.9424 360.237 52.6491C358.157 56.9691 357.117 60.7291 357.117 63.9291C357.117 66.2224 357.97 67.3691 359.677 67.3691C363.624 67.3691 367.437 62.7291 371.117 53.4491C370.37 51.6891 369.997 50.0624 369.997 48.5691C369.997 47.5024 370.157 46.4624 370.477 45.4491C371.064 43.4757 371.89 41.9824 372.957 40.9691C373.917 40.0091 374.85 39.5291 375.757 39.5291C376.664 39.5291 377.117 39.9557 377.117 40.8091L376.717 42.2491C374.584 49.5024 372.584 54.9424 370.717 58.5691C367.197 65.5024 363.277 68.9691 358.957 68.9691ZM382.198 69.1291C379.532 69.1291 377.478 68.3291 376.038 66.7291C374.865 65.3957 374.278 63.7957 374.278 61.9291C374.278 59.2091 375.132 57.8491 376.838 57.8491C377.478 57.8491 378.065 58.0891 378.598 58.5691C379.132 59.1024 379.398 59.7157 379.398 60.4091C379.398 60.8357 379.292 61.1824 379.078 61.4491C378.385 62.3024 378.038 63.2357 378.038 64.2491C378.038 65.2624 378.358 66.0891 378.998 66.7291C379.692 67.4224 380.572 67.7691 381.638 67.7691C382.758 67.7691 383.772 67.3957 384.678 66.6491C385.905 65.5291 386.518 63.9824 386.518 62.0091C386.518 60.3024 386.065 58.3824 385.158 56.2491C384.785 55.7157 384.332 55.0224 383.798 54.1691C383.318 53.3157 382.758 52.3024 382.118 51.1291C381.745 50.4891 381.478 49.8491 381.318 49.2091C381.212 48.5157 381.158 47.8491 381.158 47.2091C381.158 44.9691 381.985 43.1824 383.638 41.8491C385.345 40.4624 387.532 39.7691 390.198 39.7691C390.945 39.7691 391.665 39.8491 392.358 40.0091C393.105 40.1691 393.772 40.4624 394.358 40.8891C395.585 41.7957 396.198 42.9157 396.198 44.2491C396.198 44.8357 396.092 45.3691 395.878 45.8491C395.398 47.2357 394.358 47.9291 392.758 47.9291C390.998 47.9291 390.118 47.0224 390.118 45.2091C390.118 44.6757 390.198 44.2224 390.358 43.8491C390.518 43.3157 391.105 42.7824 392.118 42.2491C391.745 41.5557 391.052 41.2091 390.038 41.2091C389.132 41.2091 388.465 41.4224 388.038 41.8491C386.758 42.9691 386.118 44.3824 386.118 46.0891C386.118 47.2624 386.438 48.5424 387.078 49.9291C387.185 50.1424 388.225 51.8224 390.198 54.9691C391.532 57.1024 392.198 58.8891 392.198 60.3291C392.198 62.6224 391.132 64.6491 388.998 66.4091C386.865 68.2224 384.598 69.1291 382.198 69.1291Z" fill="#F7F4EC"/>
<path d="M27.3825 112.498C17.9217 112.175 8.96084 111.855 0 111.534C0.00653 111.063 0.0130768 110.592 0.0196228 110.12C18.6387 110.12 37.2578 110.12 55.8768 110.12C55.8954 110.747 55.9139 111.374 55.9324 112.001C46.5825 112.168 37.2325 112.335 27.3825 112.498Z" fill="#9FC4C6"/>
<path d="M89.9646 119.953C88.7006 119.953 87.5326 119.745 86.4606 119.329C85.3886 118.897 84.4606 118.297 83.6766 117.529C82.8926 116.761 82.2766 115.857 81.8286 114.817C81.3966 113.777 81.1806 112.641 81.1806 111.409C81.1806 110.177 81.3966 109.041 81.8286 108.001C82.2766 106.961 82.8926 106.057 83.6766 105.289C84.4766 104.521 85.4126 103.929 86.4846 103.513C87.5566 103.081 88.7246 102.865 89.9886 102.865C91.2046 102.865 92.3486 103.073 93.4206 103.489C94.4926 103.889 95.3966 104.497 96.1326 105.313L95.0046 106.441C94.3166 105.737 93.5566 105.233 92.7246 104.929C91.8926 104.609 90.9966 104.449 90.0366 104.449C89.0286 104.449 88.0926 104.625 87.2286 104.977C86.3646 105.313 85.6126 105.801 84.9726 106.441C84.3326 107.065 83.8286 107.801 83.4606 108.649C83.1086 109.481 82.9326 110.401 82.9326 111.409C82.9326 112.417 83.1086 113.345 83.4606 114.193C83.8286 115.025 84.3326 115.761 84.9726 116.401C85.6126 117.025 86.3646 117.513 87.2286 117.865C88.0926 118.201 89.0286 118.369 90.0366 118.369C90.9966 118.369 91.8926 118.209 92.7246 117.889C93.5566 117.569 94.3166 117.057 95.0046 116.353L96.1326 117.481C95.3966 118.297 94.4926 118.913 93.4206 119.329C92.3486 119.745 91.1966 119.953 89.9646 119.953ZM106.911 119.953C105.647 119.953 104.471 119.745 103.383 119.329C102.311 118.897 101.375 118.297 100.575 117.529C99.7911 116.745 99.1751 115.841 98.7271 114.817C98.2951 113.777 98.0791 112.641 98.0791 111.409C98.0791 110.177 98.2951 109.049 98.7271 108.025C99.1751 106.985 99.7911 106.081 100.575 105.313C101.375 104.529 102.311 103.929 103.383 103.513C104.455 103.081 105.631 102.865 106.911 102.865C108.175 102.865 109.343 103.081 110.415 103.513C111.487 103.929 112.415 104.521 113.199 105.289C113.999 106.057 114.615 106.961 115.047 108.001C115.495 109.041 115.719 110.177 115.719 111.409C115.719 112.641 115.495 113.777 115.047 114.817C114.615 115.857 113.999 116.761 113.199 117.529C112.415 118.297 111.487 118.897 110.415 119.329C109.343 119.745 108.175 119.953 106.911 119.953ZM106.911 118.369C107.919 118.369 108.847 118.201 109.695 117.865C110.559 117.513 111.303 117.025 111.927 116.401C112.567 115.761 113.063 115.025 113.415 114.193C113.767 113.345 113.943 112.417 113.943 111.409C113.943 110.401 113.767 109.481 113.415 108.649C113.063 107.801 112.567 107.065 111.927 106.441C111.303 105.801 110.559 105.313 109.695 104.977C108.847 104.625 107.919 104.449 106.911 104.449C105.903 104.449 104.967 104.625 104.103 104.977C103.239 105.313 102.487 105.801 101.847 106.441C101.223 107.065 100.727 107.801 100.359 108.649C100.007 109.481 99.8311 110.401 99.8311 111.409C99.8311 112.401 100.007 113.321 100.359 114.169C100.727 115.017 101.223 115.761 101.847 116.401C102.487 117.025 103.239 117.513 104.103 117.865C104.967 118.201 105.903 118.369 106.911 118.369ZM116.777 119.809L124.457 103.009H126.209L133.889 119.809H132.017L124.961 104.041H125.681L118.625 119.809H116.777ZM119.801 115.321L120.329 113.881H130.097L130.625 115.321H119.801ZM141.301 119.953C140.053 119.953 138.853 119.753 137.701 119.353C136.565 118.937 135.685 118.409 135.061 117.769L135.757 116.401C136.349 116.977 137.141 117.465 138.133 117.865C139.141 118.249 140.197 118.441 141.301 118.441C142.357 118.441 143.213 118.313 143.869 118.057C144.541 117.785 145.029 117.425 145.333 116.977C145.653 116.529 145.813 116.033 145.813 115.489C145.813 114.833 145.621 114.305 145.237 113.905C144.869 113.505 144.381 113.193 143.773 112.969C143.165 112.729 142.493 112.521 141.757 112.345C141.021 112.169 140.285 111.985 139.549 111.793C138.813 111.585 138.133 111.313 137.509 110.977C136.901 110.641 136.405 110.201 136.021 109.657C135.653 109.097 135.469 108.369 135.469 107.473C135.469 106.641 135.685 105.881 136.117 105.193C136.565 104.489 137.245 103.929 138.157 103.513C139.069 103.081 140.237 102.865 141.661 102.865C142.605 102.865 143.541 103.001 144.469 103.273C145.397 103.529 146.197 103.889 146.869 104.353L146.269 105.769C145.549 105.289 144.781 104.937 143.965 104.713C143.165 104.489 142.389 104.377 141.637 104.377C140.629 104.377 139.797 104.513 139.141 104.785C138.485 105.057 137.997 105.425 137.677 105.889C137.373 106.337 137.221 106.849 137.221 107.425C137.221 108.081 137.405 108.609 137.773 109.009C138.157 109.409 138.653 109.721 139.261 109.945C139.885 110.169 140.565 110.369 141.301 110.545C142.037 110.721 142.765 110.913 143.485 111.121C144.221 111.329 144.893 111.601 145.501 111.937C146.125 112.257 146.621 112.689 146.989 113.233C147.373 113.777 147.565 114.489 147.565 115.369C147.565 116.185 147.341 116.945 146.893 117.649C146.445 118.337 145.757 118.897 144.829 119.329C143.917 119.745 142.741 119.953 141.301 119.953ZM154.464 119.809V104.545H148.56V103.009H162.144V104.545H156.24V119.809H154.464ZM161.449 119.809L169.129 103.009H170.881L178.561 119.809H176.689L169.633 104.041H170.353L163.297 119.809H161.449ZM164.473 115.321L165.001 113.881H174.769L175.297 115.321H164.473ZM181.34 119.809V103.009H183.116V118.273H192.524V119.809H181.34ZM201.755 119.809V103.009H208.043C209.467 103.009 210.691 103.241 211.715 103.705C212.739 104.153 213.523 104.809 214.067 105.673C214.627 106.521 214.907 107.553 214.907 108.769C214.907 109.953 214.627 110.977 214.067 111.841C213.523 112.689 212.739 113.345 211.715 113.809C210.691 114.273 209.467 114.505 208.043 114.505H202.739L203.531 113.665V119.809H201.755ZM203.531 113.809L202.739 112.945H207.995C209.675 112.945 210.947 112.585 211.811 111.865C212.691 111.129 213.131 110.097 213.131 108.769C213.131 107.425 212.691 106.385 211.811 105.649C210.947 104.913 209.675 104.545 207.995 104.545H202.739L203.531 103.705V113.809ZM220.331 110.521H229.211V112.033H220.331V110.521ZM220.523 118.273H230.627V119.809H218.747V103.009H230.267V104.545H220.523V118.273ZM238.065 119.809V104.545H232.161V103.009H245.745V104.545H239.841V119.809H238.065ZM262.16 119.953C260.896 119.953 259.728 119.745 258.656 119.329C257.584 118.897 256.656 118.297 255.872 117.529C255.088 116.761 254.472 115.857 254.024 114.817C253.592 113.777 253.376 112.641 253.376 111.409C253.376 110.177 253.592 109.041 254.024 108.001C254.472 106.961 255.088 106.057 255.872 105.289C256.672 104.521 257.608 103.929 258.68 103.513C259.752 103.081 260.92 102.865 262.184 102.865C263.4 102.865 264.544 103.073 265.616 103.489C266.688 103.889 267.592 104.497 268.328 105.313L267.2 106.441C266.512 105.737 265.752 105.233 264.92 104.929C264.088 104.609 263.192 104.449 262.232 104.449C261.224 104.449 260.288 104.625 259.424 104.977C258.56 105.313 257.808 105.801 257.168 106.441C256.528 107.065 256.024 107.801 255.656 108.649C255.304 109.481 255.128 110.401 255.128 111.409C255.128 112.417 255.304 113.345 255.656 114.193C256.024 115.025 256.528 115.761 257.168 116.401C257.808 117.025 258.56 117.513 259.424 117.865C260.288 118.201 261.224 118.369 262.232 118.369C263.192 118.369 264.088 118.209 264.92 117.889C265.752 117.569 266.512 117.057 267.2 116.353L268.328 117.481C267.592 118.297 266.688 118.913 265.616 119.329C264.544 119.745 263.392 119.953 262.16 119.953ZM269.004 119.809L276.684 103.009H278.436L286.116 119.809H284.244L277.188 104.041H277.908L270.852 119.809H269.004ZM272.028 115.321L272.556 113.881H282.324L282.852 115.321H272.028ZM288.895 119.809V103.009H295.183C296.607 103.009 297.831 103.241 298.855 103.705C299.879 104.153 300.663 104.809 301.207 105.673C301.767 106.521 302.047 107.553 302.047 108.769C302.047 109.953 301.767 110.977 301.207 111.841C300.663 112.689 299.879 113.345 298.855 113.809C297.831 114.257 296.607 114.481 295.183 114.481H289.879L290.671 113.665V119.809H288.895ZM300.367 119.809L296.047 113.713H297.967L302.311 119.809H300.367ZM290.671 113.809L289.879 112.969H295.135C296.815 112.969 298.087 112.601 298.951 111.865C299.831 111.129 300.271 110.097 300.271 108.769C300.271 107.425 299.831 106.385 298.951 105.649C298.087 104.913 296.815 104.545 295.135 104.545H289.879L290.671 103.705V113.809ZM307.823 110.521H316.703V112.033H307.823V110.521ZM308.015 118.273H318.119V119.809H306.239V103.009H317.759V104.545H308.015V118.273Z" fill="#F7F4EC"/>
<path d="M390.977 111.868C374.97 112.716 359.438 112.811 343.933 111.764C343.94 111.206 343.947 110.649 343.954 110.091C363.328 110.091 382.703 110.091 402.078 110.091C402.083 110.427 402.089 110.763 402.094 111.099C398.542 111.333 394.99 111.568 390.977 111.868Z" fill="#9FC4C6"/>
<path fill-rule="evenodd" clip-rule="evenodd" d="M462.422 29.35C469.729 32.5024 474.213 36.4931 476.908 42.2455C478.222 45.0513 479.979 45.7172 483.013 46.0288C491.01 46.8498 498.449 47.5179 504.785 40.6743C506.786 38.5123 511.123 38.5115 514.391 37.5219C514.73 40.8822 515.273 44.2396 515.334 47.6049C515.373 49.7307 515.025 51.9947 514.273 53.978C512.358 59.0295 512.463 63.9469 513.877 69.1098C515.543 75.1901 514.185 80.8064 510.922 86.2875C506.895 93.0521 508.7 99.9792 511.571 106.729C514.167 112.832 516.772 118.934 519.176 125.113C519.781 126.666 519.634 128.514 518.685 130.619C518.159 129.796 517.477 129.033 517.131 128.14C514.735 121.958 512.937 115.475 509.915 109.622C506.69 103.379 506.242 96.9003 506.22 90.2485C506.215 88.7479 507.163 87.0623 508.099 85.7719C512.245 80.0586 512.671 73.9796 511.083 67.2436C510.291 63.8803 510.638 60.1445 511.009 56.6342C511.561 51.4141 512.59 46.2442 513.566 40.1127C507.266 41.4205 503.018 43.7934 500.087 48.0034C498.215 50.6931 496.448 50.9569 493.383 50.1245C489.61 49.0997 485.544 48.7175 481.622 48.8032C478.303 48.8754 476.719 47.8564 475.106 44.8989C472.806 40.6809 469.511 37.0051 465.912 32.1059C462.329 38.3716 461.962 43.3891 462.127 48.7563C462.267 53.2795 462.111 58.0815 460.734 62.3207C458.54 69.0735 458.654 75.3306 461.515 81.7153C464.559 88.508 464.23 95.0021 459.301 100.867C452.459 109.008 446.42 117.484 446.347 128.776C446.343 129.361 445.534 129.942 444.515 130.306C444.177 122.467 445.075 114.979 449.894 108.456C452.562 104.844 455.571 101.474 458.101 97.7739C461.112 93.3706 461.843 88.4972 459.353 83.5805C455.389 75.752 455.393 67.9189 459.007 59.5746C459.291 55.2296 459.208 51.2609 459.667 47.3559C460.348 41.5585 461.414 35.8059 462.422 29.35ZM568.575 4.81586C572.856 0.657741 577.542 -1.05134 583.578 0.655703C586.306 1.42745 589.419 0.932656 592.352 0.846133C593.664 0.807559 595.028 -0.0366793 596.26 0.160586C604.989 1.55833 613.668 0.399383 622.378 0.187929C624.551 0.135257 626.877 2.93414 628.99 4.60297C632.988 7.76135 636.741 11.2467 640.861 14.2299C644.865 17.1293 646.276 20.5246 643.978 24.9633C642.546 27.7297 640.013 29.9294 638.601 32.7026C637.291 35.2764 636.871 38.2933 635.952 41.0795C635.262 43.1723 634.925 46.2405 633.469 46.978C632.034 47.7048 629.375 46.0946 627.288 45.4057C626.705 45.2134 626.243 44.6533 625.26 43.9096C622.98 51.1506 622.534 58.149 627.179 63.9223C633.34 71.5786 635.779 79.9892 636.597 89.6147C637.1 95.5253 639.524 101.499 642.124 106.948C645.292 113.588 647.21 120.286 647.005 127.6C646.981 128.453 646.646 129.298 645.337 130.18C644.953 127.547 644.752 124.87 644.141 122.29C643.188 118.265 642.702 113.873 640.694 110.403C636.069 102.411 633.354 94.0797 633.227 84.8666C633.143 78.7985 630.984 73.4781 627.121 68.8481C621.476 62.0844 619.661 54.3776 621.938 45.936C623.587 39.82 622.349 34.103 620.724 28.2924C620.186 26.3663 620.068 24.322 619.591 21.2661C624.93 24.0745 623.984 28.2557 624.728 31.7104C625.383 34.7494 625.745 37.9321 626.956 40.7416C627.708 42.489 629.798 43.6602 631.147 44.9545C632.067 44.4073 632.57 44.2599 632.583 44.0786C633.079 36.9051 635.453 30.7564 640.727 25.4877C643.537 22.6809 642.75 19.2474 639.168 16.5629C634.8 13.2884 630.569 9.76181 626.687 5.93012C623.469 2.75369 620.137 2.15316 615.808 2.78363C611.477 3.41435 606.991 3.02688 602.574 2.99457C600.756 2.98127 598.813 2.24249 597.145 2.67523C591.224 4.21208 585.525 4.28683 579.482 2.81098C577.152 2.24189 573.735 4.07502 571.472 5.72016C567.195 8.83036 563.393 12.5939 559.397 16.0903C555.905 19.1462 555.007 23.4929 558.372 26.0307C564.279 30.4862 566.753 36.0498 566.557 43.1723C566.545 43.5975 567.001 44.0361 567.536 45.0053C572.254 43.298 574.377 39.7164 574.98 35.0746C575.364 32.1146 575.175 29.0807 575.545 26.1176C575.753 24.4583 576.575 22.8754 577.12 21.2582C577.759 21.2755 578.398 21.2929 579.037 21.31C579.17 23.139 579.913 25.1948 579.331 26.7573C576.843 33.4346 577.732 39.8757 580.002 46.2983C583.009 54.8024 581.918 62.331 576.375 69.7885C573.817 73.231 572.219 78.285 572.268 82.5844C572.375 91.9412 569.987 100.136 565.441 108.23C562.649 113.2 561.424 119.069 559.645 124.581C559.054 126.414 558.926 128.395 557.484 130.367C557.245 129.46 556.609 128.442 556.828 127.664C558.796 120.676 560.084 113.329 563.195 106.87C567.329 98.2845 570.446 89.9742 569.687 80.1479C569.404 76.4832 571.508 71.9863 573.868 68.8959C579.29 61.7963 580.476 54.57 576.947 46.0903C576.457 44.6382 576.073 43.5443 575.677 42.4164C575.285 42.6466 575.012 42.8173 574.73 42.9702C571.99 44.4546 569.247 45.9361 566.505 47.4184C565.562 44.6127 564.812 41.7213 563.623 39.0239C562.275 35.9671 561.131 32.4742 558.851 30.2387C551.836 23.3594 552.068 17.9424 559.988 12.3784C563.091 10.1981 565.839 7.47249 568.575 4.81586ZM518.821 78.3168C525.022 81.4803 531.224 84.6436 537.417 87.8217C537.47 87.8487 537.467 88.1179 537.401 88.2133C537.313 88.3406 537.138 88.4083 536.672 88.4301C530.224 85.6021 524.104 82.8451 517.984 80.0883C518.263 79.4979 518.542 78.9072 518.821 78.3168ZM453.465 76.7768C450.058 78.0536 446.651 79.3301 442.88 80.7397C439.83 81.838 437.143 82.8034 434.457 83.769C434.273 83.226 434.089 82.683 433.905 82.1401C440.248 79.8931 446.592 77.6459 452.935 75.3989C453.112 75.858 453.289 76.3176 453.465 76.7768ZM518.906 73.7748C528.11 73.6382 537.04 75.1144 545.513 79.3061C540.214 78.3805 534.916 77.4554 529.182 76.4565C525.391 75.9434 522.035 75.5036 518.679 75.0639C518.755 74.6344 518.83 74.2043 518.906 73.7748ZM451.947 71.5034C443.408 72.1216 434.87 72.7405 426.332 73.3588C426.253 72.9715 426.173 72.584 426.094 72.1967C427.719 71.7991 429.344 71.4009 431.406 70.9702C438.522 70.637 445.202 70.3373 451.882 70.0375C451.904 70.5261 451.925 71.0148 451.947 71.5034ZM541.07 68.0668C539.713 68.15 538.356 68.234 536.548 68.3168C530.35 68.7335 524.603 69.1499 518.856 69.5668C518.817 69.0129 518.777 68.4586 518.738 67.9047C526.136 67.3856 533.534 66.8672 540.932 66.3481C540.978 66.921 541.024 67.4939 541.07 68.0668ZM430.768 61.9428C438.56 61.1495 446.061 62.1974 453.136 66.0209C445.936 65.0278 438.736 64.0354 431.173 62.8881C430.795 62.4592 430.755 61.9441 430.768 61.9428ZM585.471 62.7123C588.825 58.5435 593.749 57.6333 607.503 57.9672C611.768 58.8437 616.099 58.4794 618.659 62.6635C607.842 59.2576 597.037 59.9992 585.471 62.7123Z" fill="#C9A574"/>
</svg>
