<svg width="266" height="157" viewBox="0 0 266 157" fill="none" xmlns="http://www.w3.org/2000/svg">
<path fill-rule="evenodd" clip-rule="evenodd" d="M43.5908 35.2196C52.3586 39.0024 57.7396 43.7911 60.9736 50.6942C62.5512 54.0614 64.6586 54.8604 68.2998 55.2342C77.8965 56.2195 86.8222 57.0212 94.4258 48.8084C96.8278 46.2141 102.032 46.2138 105.954 45.0262C106.361 49.0584 107.012 53.0866 107.086 57.1248C107.133 59.6759 106.714 62.3932 105.812 64.7733C103.514 70.8351 103.641 76.736 105.338 82.9315C107.337 90.2279 105.707 96.9674 101.791 103.545C96.9586 111.662 99.124 119.975 102.569 128.075C105.684 135.398 108.811 142.721 111.696 150.136C112.422 152 112.245 154.216 111.106 156.742C110.475 155.755 109.657 154.839 109.242 153.768C106.366 146.35 104.209 138.57 100.582 131.547C96.7126 124.055 96.1743 116.28 96.1484 108.298C96.1428 106.497 97.2798 104.475 98.4033 102.927C103.378 96.0705 103.89 88.7755 101.984 80.6922C101.033 76.6561 101.45 72.1732 101.896 67.9608C102.557 61.6965 103.792 55.4925 104.963 48.1346C97.4035 49.7039 92.3054 52.5523 88.7891 57.6043C86.5425 60.8318 84.4228 61.149 80.7451 60.1502C76.2165 58.9204 71.3383 58.4606 66.6309 58.5633C62.6478 58.6501 60.7469 57.4272 58.8115 53.8778C56.0517 48.8164 52.0973 44.4061 47.7783 38.5272C43.4792 46.0461 43.039 52.067 43.2373 58.5077C43.4044 63.9354 43.2168 69.697 41.5645 74.784C38.9322 82.8873 39.0692 90.3959 42.5029 98.0575C46.1562 106.209 45.7611 114.002 39.8467 121.04C31.6358 130.81 24.3887 140.981 24.3008 154.531C24.2962 155.234 23.325 155.93 22.1025 156.367C21.6968 146.96 22.7738 137.975 28.5566 130.146C31.758 125.812 35.3697 121.77 38.4062 117.329C42.0196 112.045 42.8951 106.197 39.9072 100.297C35.1499 90.9025 35.1559 81.5023 39.4932 71.4891C39.8337 66.275 39.7335 61.5121 40.2842 56.826C41.1017 49.8692 42.3802 42.9666 43.5908 35.2196ZM170.979 5.77914C176.117 0.789291 181.741 -1.26171 188.983 0.786949C192.257 1.71294 195.993 1.11924 199.513 1.01546C201.087 0.969055 202.723 -0.0432566 204.201 0.193199C214.676 1.87051 225.091 0.480119 235.544 0.226402C238.151 0.163198 240.942 3.52065 243.477 5.52328C248.274 9.31334 252.779 13.4962 257.723 17.076C262.527 20.5552 264.22 24.6295 261.463 29.9559C259.744 33.2755 256.705 35.9152 255.011 39.243C253.439 42.3316 252.935 45.9513 251.832 49.2948C251.004 51.8061 250.599 55.4889 248.853 56.3739C247.13 57.2459 243.94 55.3128 241.435 54.4862C240.735 54.2554 240.181 53.5836 239.002 52.6912C236.265 61.3803 235.731 69.778 241.305 76.7059C248.697 85.8936 251.624 95.9872 252.606 107.538C253.21 114.631 256.117 121.799 259.237 128.338C263.039 136.306 265.342 144.344 265.096 153.121C265.067 154.145 264.664 155.158 263.095 156.216C262.633 153.056 262.391 149.844 261.658 146.748C260.515 141.917 259.931 136.647 257.521 132.483C251.972 122.894 248.715 112.895 248.562 101.84C248.462 94.5581 245.871 88.1739 241.234 82.618C234.461 74.5016 232.284 65.2528 235.016 55.1229C236.995 47.7838 235.508 40.9236 233.559 33.951C232.912 31.6396 232.771 29.1867 232.199 25.5194C238.606 28.8894 237.47 33.906 238.363 38.0516C239.149 41.6984 239.583 45.518 241.035 48.8895C241.938 50.9867 244.447 52.3927 246.065 53.9461C247.169 53.2894 247.774 53.112 247.789 52.8944C248.384 44.2862 251.232 36.9082 257.562 30.5858C260.934 27.2174 259.989 23.0974 255.691 19.8758C250.45 15.9464 245.372 11.7141 240.714 7.11605C236.852 3.30433 232.854 2.58409 227.659 3.34066C222.462 4.09754 217.078 3.63234 211.777 3.59359C209.596 3.57762 207.265 2.69067 205.264 3.2098C198.158 5.05404 191.319 5.14396 184.067 3.37289C181.272 2.69011 177.171 4.88997 174.456 6.8641C169.324 10.5964 164.761 15.1127 159.966 19.3084C155.775 22.9755 154.698 28.1907 158.735 31.2362C165.824 36.5828 168.793 43.2603 168.558 51.8075C168.544 52.3175 169.09 52.8431 169.731 54.0057C175.393 51.9569 177.942 47.6598 178.665 42.0897C179.126 38.5377 178.9 34.8972 179.344 31.3416C179.592 29.3505 180.579 27.4512 181.233 25.5106C182 25.5312 182.767 25.5515 183.533 25.5721C183.693 27.7669 184.585 30.2343 183.887 32.1092C180.902 40.122 181.967 47.8514 184.692 55.5584C188.301 65.7632 186.991 74.797 180.34 83.7459C177.269 87.8769 175.351 93.9421 175.41 99.1014C175.538 110.329 172.674 120.163 167.219 129.876C163.869 135.84 162.399 142.882 160.264 149.497C159.554 151.696 159.401 154.074 157.67 156.44C157.383 155.352 156.62 154.13 156.883 153.197C159.245 144.811 160.789 135.994 164.522 128.243C169.484 117.941 173.225 107.969 172.314 96.1776C171.975 91.7797 174.499 86.3832 177.331 82.6746C183.837 74.1551 185.26 65.4841 181.025 55.3084C180.437 53.5659 179.977 52.2527 179.502 50.8993C179.031 51.1754 178.704 51.3809 178.365 51.5643C175.077 53.3456 171.786 55.1235 168.496 56.9022C167.363 53.5352 166.464 50.065 165.037 46.828C163.42 43.1599 162.046 38.9696 159.311 36.2869C150.893 28.0317 151.171 21.5303 160.675 14.8534C164.399 12.237 167.697 8.96712 170.979 5.77914ZM111.272 93.9803C118.714 97.7766 126.157 101.572 133.59 105.386C133.653 105.419 133.647 105.742 133.568 105.856C133.462 106.009 133.253 106.09 132.694 106.116C124.957 102.722 117.613 99.4144 110.269 96.1063C110.603 95.3978 110.938 94.6888 111.272 93.9803ZM32.8428 92.1317C28.7544 93.6638 24.6653 95.196 20.1406 96.8875C16.4804 98.2055 13.2561 99.3637 10.0322 100.522C9.81145 99.8709 9.59085 99.2196 9.37012 98.5682C16.9821 95.8719 24.594 93.1748 32.2061 90.4784C32.4181 91.0293 32.6307 91.5807 32.8428 92.1317ZM111.374 88.5301C122.42 88.3661 133.136 90.1376 143.304 95.1678C136.945 94.057 130.586 92.9457 123.705 91.7469C119.156 91.1313 115.129 90.6036 111.103 90.076C111.193 89.5607 111.283 89.0454 111.374 88.5301ZM31.0225 85.8045C20.7764 86.5465 10.5302 87.2882 0.28418 88.0301C0.189412 87.5654 0.094768 87.1003 0 86.6356C1.94952 86.1584 3.8993 85.6818 6.37305 85.1649C14.9133 84.7651 22.9293 84.4045 30.9453 84.0448C30.971 84.6311 30.9968 85.2181 31.0225 85.8045ZM137.973 81.6805C136.345 81.7803 134.716 81.8799 132.547 81.9793C125.109 82.4793 118.212 82.98 111.315 83.4803C111.268 82.8156 111.221 82.1508 111.174 81.4862C120.052 80.8632 128.93 80.24 137.808 79.617C137.863 80.3048 137.918 80.9928 137.973 81.6805ZM5.60938 74.3319C14.96 73.3799 23.9604 74.6373 32.4502 79.2254C23.8104 78.0336 15.1702 76.8424 6.09473 75.4657C5.64095 74.951 5.59407 74.3334 5.60938 74.3319ZM191.255 75.2547C195.279 70.2521 201.188 69.1597 217.694 69.5604C222.812 70.6121 228.008 70.1757 231.08 75.1971C218.1 71.11 205.134 71.9989 191.255 75.2547Z" fill="#C9A574"/>
</svg>
