<svg width="483" height="302" viewBox="0 0 483 302" fill="none" xmlns="http://www.w3.org/2000/svg">
<path d="M152.29 35.2196C161.058 39.0024 166.439 43.7911 169.673 50.6942C171.25 54.0613 173.358 54.8604 176.999 55.2342C186.596 56.2195 195.521 57.0211 203.125 48.8084C205.527 46.214 210.732 46.2138 214.653 45.0262C215.06 49.0585 215.711 53.0865 215.785 57.1248C215.832 59.6759 215.413 62.3931 214.511 64.7733C212.213 70.8351 212.34 76.736 214.037 82.9315C216.036 90.2279 214.406 96.9674 210.49 103.545C205.658 111.662 207.823 119.974 211.269 128.074C214.384 135.398 217.51 142.721 220.396 150.136C221.121 152 220.944 154.216 219.806 156.742C219.174 155.755 218.357 154.839 217.941 153.768C215.065 146.35 212.909 138.57 209.281 131.547C205.412 124.055 204.874 116.28 204.848 108.298C204.842 106.497 205.979 104.475 207.103 102.927C212.077 96.0705 212.589 88.7755 210.684 80.6922C209.732 76.6562 210.15 72.1732 210.595 67.9608C211.257 61.6965 212.492 55.4925 213.662 48.1346C206.103 49.7039 201.005 52.5516 197.488 57.6034C195.242 60.831 193.122 61.1481 189.444 60.1493C184.916 58.9194 180.038 58.4606 175.33 58.5633C171.347 58.6501 169.446 57.4272 167.511 53.8778C164.751 48.8163 160.796 44.4062 156.478 38.5272C152.178 46.0461 151.738 52.067 151.937 58.5077C152.104 63.9354 151.916 69.697 150.264 74.784C147.631 82.8873 147.768 90.3959 151.202 98.0575C154.855 106.209 154.46 114.002 148.546 121.04C140.335 130.81 133.088 140.981 133 154.531C132.995 155.234 132.024 155.93 130.802 156.367C130.396 146.96 131.473 137.975 137.256 130.146C140.457 125.812 144.069 121.77 147.105 117.329C150.719 112.045 151.594 106.196 148.606 100.296C143.849 90.9017 143.855 81.5021 148.192 71.4891C148.533 66.275 148.433 61.5121 148.983 56.826C149.801 49.8692 151.079 42.9666 152.29 35.2196ZM279.679 5.77914C284.816 0.789291 290.44 -1.26171 297.683 0.786949C300.957 1.71292 304.692 1.11924 308.212 1.01546C309.786 0.969057 311.422 -0.0432723 312.9 0.193199C323.375 1.87051 333.79 0.479141 344.243 0.225425C346.85 0.16222 349.641 3.52066 352.176 5.52328C356.974 9.31334 361.478 13.4952 366.422 17.075C371.227 20.5543 372.92 24.6294 370.162 29.9559C368.443 33.2753 365.404 35.9144 363.71 39.242C362.138 42.3307 361.634 45.9511 360.531 49.2948C359.703 51.8061 359.298 55.4889 357.552 56.3739C355.83 57.2458 352.639 55.3128 350.134 54.4862C349.435 54.2554 348.88 53.5836 347.701 52.6912C344.964 61.3804 344.43 69.778 350.004 76.7059C357.397 85.8936 360.323 95.9871 361.306 107.538C361.909 114.631 364.817 121.799 367.937 128.338C371.738 136.306 374.041 144.344 373.795 153.12C373.766 154.144 373.364 155.158 371.794 156.216C371.332 153.056 371.09 149.844 370.357 146.748C369.214 141.917 368.63 136.647 366.221 132.483C360.672 122.894 357.414 112.895 357.262 101.84C357.161 94.5579 354.57 88.173 349.934 82.617C343.161 74.5006 340.983 65.2527 343.715 55.1229C345.694 47.7838 344.207 40.9236 342.258 33.951C341.612 31.6396 341.47 29.1867 340.898 25.5194C347.305 28.8894 346.169 33.906 347.062 38.0516C347.848 41.6985 348.282 45.518 349.734 48.8895C350.638 50.9867 353.146 52.3928 354.765 53.9461C355.868 53.2895 356.473 53.1119 356.488 52.8944C357.084 44.2862 359.931 36.9082 366.261 30.5858C369.633 27.2174 368.688 23.0974 364.391 19.8758C359.149 15.9463 354.071 11.7133 349.413 7.11507C345.551 3.30338 341.553 2.58409 336.358 3.34066C331.161 4.09754 325.778 3.63234 320.477 3.59359C318.295 3.57762 315.964 2.69065 313.963 3.2098C306.858 5.05404 300.018 5.14396 292.767 3.37289C289.971 2.69008 285.87 4.88898 283.155 6.86312C278.023 10.5955 273.46 15.1126 268.665 19.3084C264.474 22.9755 263.397 28.1907 267.435 31.2362C274.523 36.5828 277.492 43.2595 277.257 51.8065C277.243 52.3167 277.789 52.8427 278.431 54.0057C284.093 51.9569 286.641 47.659 287.364 42.0887C287.825 38.5367 287.599 34.8962 288.043 31.3407C288.292 29.3496 289.279 27.4502 289.933 25.5096C290.699 25.5303 291.466 25.5515 292.232 25.5721C292.392 27.7669 293.284 30.2344 292.586 32.1092C289.601 40.1218 290.667 47.8506 293.392 55.5575C297 65.7624 295.691 74.7968 289.039 83.7459C285.969 87.8769 284.05 93.9421 284.109 99.1014C284.238 110.329 281.373 120.163 275.918 129.876C272.568 135.84 271.098 142.882 268.963 149.497C268.253 151.696 268.1 154.073 266.369 156.439C266.082 155.352 265.319 154.13 265.582 153.197C267.944 144.811 269.488 135.994 273.222 128.243C278.183 117.941 281.925 107.969 281.014 96.1776C280.674 91.7797 283.198 86.3832 286.03 82.6746C292.537 74.155 293.96 65.4832 289.725 55.3075C289.136 53.5651 288.676 52.2526 288.201 50.8993C287.731 51.1755 287.403 51.3809 287.064 51.5643C283.776 53.3456 280.485 55.1235 277.195 56.9022C276.063 53.5352 275.164 50.065 273.736 46.828C272.119 43.1599 270.745 38.9696 268.01 36.2869C259.592 28.0317 259.87 21.5303 269.374 14.8534C273.098 12.237 276.396 8.96709 279.679 5.77914ZM219.972 93.9803C227.413 97.7766 234.856 101.572 242.289 105.386C242.352 105.419 242.347 105.742 242.268 105.856C242.162 106.009 241.952 106.09 241.394 106.116C233.656 102.722 226.312 99.4134 218.968 96.1053C219.302 95.397 219.637 94.6886 219.972 93.9803ZM141.542 92.1317C137.454 93.6638 133.365 95.196 128.84 96.8875C125.18 98.2054 121.955 99.3637 118.731 100.522C118.511 99.8709 118.29 99.2196 118.069 98.5682C125.681 95.8719 133.293 93.1747 140.905 90.4784C141.117 91.0293 141.33 91.5807 141.542 92.1317ZM220.073 88.5301C231.119 88.3661 241.835 90.1376 252.003 95.1678C245.644 94.057 239.285 92.9457 232.404 91.7469C227.856 91.1313 223.829 90.6036 219.802 90.076C219.892 89.5607 219.983 89.0454 220.073 88.5301ZM139.722 85.8045C129.476 86.5465 119.229 87.2882 108.983 88.0301C108.889 87.5653 108.794 87.1004 108.699 86.6356C110.649 86.1584 112.599 85.6808 115.072 85.1639C123.612 84.7642 131.629 84.4045 139.645 84.0448C139.67 84.6311 139.696 85.2181 139.722 85.8045ZM246.672 81.6805C245.044 81.7803 243.416 81.8799 241.246 81.9793C233.808 82.4793 226.911 82.98 220.015 83.4803C219.968 82.8157 219.92 82.1508 219.873 81.4862C228.751 80.8632 237.629 80.24 246.507 79.617C246.562 80.3048 246.617 80.9927 246.672 81.6805ZM114.309 74.3319C123.659 73.3799 132.66 74.6373 141.149 79.2254C132.51 78.0336 123.869 76.8414 114.794 75.4647C114.34 74.9501 114.293 74.3334 114.309 74.3319ZM299.954 75.2547C303.978 70.2521 309.888 69.1597 326.394 69.5604C331.511 70.6121 336.707 70.1752 339.779 75.1961C326.799 71.1091 313.833 71.9989 299.954 75.2547Z" fill="#C9A574"/>
<path d="M36.4487 242.574C29.1527 242.574 23.3927 241.294 19.1687 238.734C15.0087 236.11 12.9288 232.686 12.9288 228.462C12.9288 223.79 15.2327 219.406 19.8407 215.31C24.7687 210.958 31.2327 208.014 39.2327 206.478C40.3207 206.286 41.4727 206.126 42.6887 205.998C43.9047 205.87 45.1207 205.806 46.3367 205.806C53.7607 205.806 58.7847 207.598 61.4087 211.182C61.6647 211.502 61.7927 211.918 61.7927 212.43C61.7927 213.454 61.5047 213.614 60.9287 212.91C58.6247 209.646 53.6007 208.014 45.8567 208.014C43.4247 208.014 41.2487 208.206 39.3287 208.59C32.6087 209.87 27.2647 212.398 23.2967 216.174C19.5207 219.758 17.6327 223.566 17.6327 227.598C17.6327 231.438 19.3607 234.51 22.8167 236.814C26.2087 239.118 30.8167 240.27 36.6407 240.27C42.1447 240.27 47.2327 239.598 51.9047 238.254C56.5767 236.974 60.8647 235.15 64.7687 232.782C71.1687 228.878 74.3687 223.694 74.3687 217.23C74.3687 209.806 69.7287 203.118 60.4487 197.166C58.0807 195.63 56.0967 194.286 54.4967 193.134C52.8967 191.918 51.6487 190.894 50.7527 190.062C47.3607 186.798 45.6647 183.342 45.6647 179.694C45.6647 178.734 45.7607 177.838 45.9527 177.006C46.8487 172.846 49.6327 169.486 54.3047 166.926C58.5927 164.558 63.2327 163.374 68.2247 163.374C73.9207 163.374 78.2407 164.366 81.1847 166.35C83.2967 167.758 84.3527 169.902 84.3527 172.782C84.3527 174.638 83.8087 176.366 82.7207 177.966C81.6967 179.502 80.3527 180.27 78.6887 180.27C77.4727 180.27 76.3847 179.79 75.4247 178.83C74.5927 177.998 74.1767 177.006 74.1767 175.854C74.1767 172.782 75.6807 171.246 78.6887 171.246C80.4807 171.246 81.5687 171.822 81.9527 172.974C82.2727 171.246 81.6007 169.742 79.9367 168.462C77.3127 166.414 73.8887 165.39 69.6647 165.39C65.2487 165.39 61.2167 166.638 57.5687 169.134C53.6647 171.758 51.7127 174.798 51.7127 178.254C51.7127 182.734 55.8087 187.342 64.0007 192.078C75.4567 198.606 81.1847 206.158 81.1847 214.734C81.1847 218.51 79.9687 222.158 77.5367 225.678C75.1047 229.262 71.8727 232.206 67.8407 234.51C58.6247 239.886 48.1607 242.574 36.4487 242.574ZM108.652 233.934C107.244 233.934 106.092 233.518 105.196 232.686C103.916 231.598 103.276 229.774 103.276 227.214C103.276 225.55 103.564 223.662 104.14 221.55C101.964 225.198 99.692 228.174 97.324 230.478C94.892 232.718 92.716 233.838 90.796 233.838C89.132 233.838 87.82 233.102 86.86 231.63C85.836 230.222 85.324 228.27 85.324 225.774C85.324 219.694 88.044 213.422 93.484 206.958C94.38 205.87 95.404 204.878 96.556 203.982C97.708 203.086 98.956 202.286 100.3 201.582C103.052 200.174 105.708 199.47 108.268 199.47C111.404 199.47 113.9 200.494 115.756 202.542C116.204 202.99 116.428 203.502 116.428 204.078C116.428 205.166 115.852 205.582 114.7 205.326C114.06 203.022 112.556 201.87 110.188 201.87C107.5 201.87 104.332 203.758 100.684 207.534C99.404 208.942 98.188 210.414 97.036 211.95C95.884 213.422 94.796 214.99 93.772 216.654C91.02 221.262 89.644 225.006 89.644 227.886C89.644 230.062 90.476 231.15 92.14 231.15C93.996 231.15 96.14 229.742 98.572 226.926C99.916 225.39 101.292 223.502 102.7 221.262C104.108 219.022 105.58 216.43 107.116 213.486C107.756 212.27 108.332 211.278 108.844 210.51C109.356 209.742 109.772 209.166 110.092 208.782C111.116 207.758 112.332 207.278 113.74 207.342L115.66 207.63C116.492 207.822 117.196 207.854 117.772 207.726C117.196 208.302 116.492 209.23 115.66 210.51C114.892 211.726 113.996 213.326 112.972 215.31C111.884 217.422 110.988 219.342 110.284 221.07C109.58 222.798 109.1 224.334 108.844 225.678C108.716 226.318 108.62 226.926 108.556 227.502C108.492 228.014 108.46 228.494 108.46 228.942C108.46 230.606 108.908 231.438 109.804 231.438C111.084 231.438 112.844 230.03 115.084 227.214L115.468 226.734L116.812 227.598L116.428 228.174C113.804 232.014 111.212 233.934 108.652 233.934ZM122.706 233.742C120.85 233.742 119.922 232.814 119.922 230.958C119.922 229.806 120.306 228.238 121.074 226.254L139.698 178.638C139.826 178.446 139.89 178.254 139.89 178.062C139.89 177.87 139.89 177.71 139.89 177.582C139.89 176.622 139.506 175.63 138.738 174.606H143.922C145.714 174.606 146.61 175.022 146.61 175.854C146.61 176.238 146.418 176.91 146.034 177.87L127.41 225.294C126.578 227.342 126.162 229.166 126.162 230.766C126.162 232.238 126.61 233.23 127.506 233.742H122.706ZM145.151 233.742C140.991 233.742 138.911 231.47 138.911 226.926C138.911 226.03 138.975 225.102 139.103 224.142C139.295 223.182 139.583 222.222 139.967 221.262C143.359 212.302 146.239 205.006 148.607 199.374H142.367L143.519 197.262H149.471L151.775 190.542C152.607 188.174 153.311 186.766 153.887 186.318C154.335 185.998 155.359 185.838 156.959 185.838L161.087 185.934C159.807 187.022 158.847 188.334 158.207 189.87L155.039 197.262H162.335L161.183 199.374H154.175C153.727 200.398 153.279 201.422 152.831 202.446C152.447 203.47 151.999 204.526 151.487 205.614C150.143 208.558 148.991 211.342 148.031 213.966C146.879 216.974 145.951 219.566 145.247 221.742C144.607 223.918 144.223 225.646 144.095 226.926C143.839 230.062 144.671 231.63 146.591 231.63C148.383 231.63 150.559 229.71 153.119 225.87L154.271 227.214C151.199 231.566 148.159 233.742 145.151 233.742ZM199.871 233.934C198.463 233.934 197.311 233.518 196.415 232.686C195.135 231.598 194.495 229.774 194.495 227.214C194.495 225.55 194.783 223.662 195.359 221.55C193.183 225.198 190.911 228.174 188.543 230.478C186.111 232.718 183.935 233.838 182.015 233.838C180.351 233.838 179.039 233.102 178.079 231.63C177.055 230.222 176.543 228.27 176.543 225.774C176.543 219.694 179.263 213.422 184.703 206.958C185.599 205.87 186.623 204.878 187.775 203.982C188.927 203.086 190.175 202.286 191.519 201.582C194.271 200.174 196.927 199.47 199.487 199.47C202.623 199.47 205.119 200.494 206.975 202.542C207.423 202.99 207.647 203.502 207.647 204.078C207.647 205.166 207.071 205.582 205.919 205.326C205.279 203.022 203.775 201.87 201.407 201.87C198.719 201.87 195.551 203.758 191.903 207.534C190.623 208.942 189.407 210.414 188.255 211.95C187.103 213.422 186.015 214.99 184.991 216.654C182.239 221.262 180.863 225.006 180.863 227.886C180.863 230.062 181.695 231.15 183.359 231.15C185.215 231.15 187.359 229.742 189.791 226.926C191.135 225.39 192.511 223.502 193.919 221.262C195.327 219.022 196.799 216.43 198.335 213.486C198.975 212.27 199.551 211.278 200.063 210.51C200.575 209.742 200.991 209.166 201.311 208.782C202.335 207.758 203.551 207.278 204.959 207.342L206.879 207.63C207.711 207.822 208.415 207.854 208.991 207.726C208.415 208.302 207.711 209.23 206.879 210.51C206.111 211.726 205.215 213.326 204.191 215.31C203.103 217.422 202.207 219.342 201.503 221.07C200.799 222.798 200.319 224.334 200.063 225.678C199.935 226.318 199.839 226.926 199.775 227.502C199.711 228.014 199.679 228.494 199.679 228.942C199.679 230.606 200.127 231.438 201.023 231.438C202.303 231.438 204.063 230.03 206.303 227.214L206.687 226.734L208.031 227.598L207.647 228.174C205.023 232.014 202.431 233.934 199.871 233.934ZM209.029 234.414C210.309 231.278 211.909 227.406 213.829 222.798C215.749 218.19 218.085 212.878 220.837 206.862C221.413 205.582 221.957 204.526 222.469 203.694C222.981 202.862 223.461 202.222 223.909 201.774C224.805 200.878 225.957 200.43 227.365 200.43C227.493 200.43 227.717 200.43 228.037 200.43C228.357 200.43 228.805 200.494 229.381 200.622C230.277 200.686 230.949 200.686 231.397 200.622C229.029 202.03 225.477 208.238 220.741 219.246C221.509 218.158 222.533 216.974 223.813 215.694C225.157 214.35 226.725 212.878 228.517 211.278C229.669 210.19 230.949 209.166 232.357 208.206C233.765 207.182 235.301 206.222 236.965 205.326C240.741 203.214 243.525 202.158 245.317 202.158C245.765 202.158 246.085 202.19 246.277 202.254C245.253 204.046 244.293 205.774 243.397 207.438C242.565 209.102 241.765 210.67 240.997 212.142C237.285 219.31 235.205 224.27 234.757 227.022C234.693 227.47 234.629 227.886 234.565 228.27C234.565 228.654 234.565 229.006 234.565 229.326C234.565 230.99 235.173 231.822 236.389 231.822C238.373 231.822 240.741 229.806 243.493 225.774L244.837 226.734C241.573 231.662 238.277 234.126 234.949 234.126C230.917 234.126 228.901 232.046 228.901 227.886C228.901 224.494 230.981 219.47 235.141 212.814C235.781 211.79 236.101 210.926 236.101 210.222C236.101 209.454 235.749 209.07 235.045 209.07C234.341 209.07 233.413 209.454 232.261 210.222C231.173 210.926 229.861 211.982 228.325 213.39C225.893 215.63 223.621 218.318 221.509 221.454C219.397 224.526 217.477 228.046 215.749 232.014C215.365 232.974 214.373 233.55 212.773 233.742C210.725 233.934 209.477 234.158 209.029 234.414ZM272.67 233.742C268.958 233.742 267.102 231.374 267.102 226.638C267.102 224.59 267.454 222.67 268.158 220.878C263.358 229.326 258.75 233.55 254.334 233.55C254.078 233.55 253.822 233.55 253.566 233.55C253.31 233.486 253.022 233.422 252.702 233.358C249.502 232.462 247.902 230.03 247.902 226.062C247.902 223.118 248.702 219.854 250.302 216.27C251.07 214.542 251.902 212.91 252.798 211.374C253.758 209.774 254.814 208.302 255.966 206.958C259.998 202.094 264.606 199.662 269.79 199.662C272.094 199.662 274.238 200.238 276.222 201.39C277.31 199.278 278.59 196.334 280.062 192.558C281.598 188.718 283.358 184.078 285.342 178.638C286.11 176.526 286.91 175.15 287.742 174.51C288.702 173.87 289.982 173.582 291.582 173.646L293.598 173.934C294.046 173.998 294.43 174.062 294.75 174.126C295.07 174.126 295.358 174.094 295.614 174.03C294.974 174.734 293.79 176.718 292.062 179.982C290.334 183.182 288.094 187.694 285.342 193.518C282.526 199.406 280.126 204.654 278.142 209.262C276.222 213.87 274.686 217.774 273.534 220.974C272.574 223.662 272.094 225.998 272.094 227.982C272.094 230.158 272.83 231.246 274.302 231.246C276.222 231.246 278.27 229.486 280.446 225.966L280.83 225.486L282.366 226.254L281.982 226.734C279.038 231.406 275.934 233.742 272.67 233.742ZM255.294 230.862C257.406 230.862 259.966 228.782 262.974 224.622C266.174 220.078 270.43 212.846 275.742 202.926C274.974 202.158 274.046 201.774 272.958 201.774C270.334 201.774 267.262 203.534 263.742 207.054C260.414 210.318 257.63 214.062 255.39 218.286C253.598 221.614 252.702 224.526 252.702 227.022C252.702 229.582 253.566 230.862 255.294 230.862ZM306.536 239.31C301.288 239.31 298.472 237.198 298.088 232.974C298.024 231.182 298.504 229.582 299.528 228.174C300.616 226.702 301.992 225.966 303.656 225.966C304.872 225.966 305.928 226.478 306.824 227.502C307.656 228.462 308.072 229.486 308.072 230.574C308.072 233.582 306.664 235.086 303.848 235.086C303.144 235.086 302.472 234.926 301.832 234.606C301.256 234.35 300.808 233.902 300.488 233.262C300.872 235.566 302.792 236.718 306.248 236.718C307.016 236.718 307.72 236.622 308.36 236.43C313.864 234.958 318.504 231.79 322.28 226.926C323.944 224.814 325.8 221.806 327.848 217.902C329.896 213.998 332.168 209.262 334.664 203.694L347.336 175.566C347.976 174.158 348.68 172.91 349.448 171.822C350.28 170.67 351.144 169.582 352.04 168.558C344.232 168.302 336.264 169.518 328.136 172.206C319.56 175.086 313.288 178.99 309.32 183.918C307.464 186.286 306.536 188.462 306.536 190.446C306.536 194.478 309.448 196.494 315.272 196.494C322.44 196.494 328.264 193.678 332.744 188.046C333.832 186.702 334.856 185.102 335.816 183.246C336.84 181.326 337.768 179.086 338.6 176.526C338.792 176.078 339.048 175.854 339.368 175.854C339.88 175.854 340.04 176.206 339.848 176.91C339.592 177.742 339.336 178.574 339.08 179.406C338.888 180.238 338.632 181.038 338.312 181.806C337.8 183.342 337.192 184.782 336.488 186.126C335.784 187.406 335.016 188.59 334.184 189.678C329.896 195.694 323.816 198.702 315.944 198.702C312.296 198.702 309.448 197.742 307.4 195.822C305.288 193.902 304.232 191.502 304.232 188.622C304.232 186.062 305.128 183.438 306.92 180.75C309.928 176.206 315.816 172.59 324.584 169.902C328.424 168.75 332.392 167.886 336.488 167.31C340.648 166.67 344.936 166.35 349.352 166.35C350.184 166.35 350.984 166.35 351.752 166.35C352.584 166.35 353.384 166.382 354.152 166.446C358.056 163.054 362.12 161.358 366.344 161.358C368.008 161.358 369.704 161.71 371.432 162.414C371.752 162.542 371.912 162.798 371.912 163.182C371.912 163.95 371.688 164.238 371.24 164.046C370.088 163.47 368.808 163.182 367.4 163.182C364.264 163.182 361.288 164.43 358.472 166.926C363.72 166.99 367.816 168.11 370.76 170.286C374.92 173.358 376.808 176.974 376.424 181.134C375.848 187.662 371.784 192.974 364.232 197.07C358.472 200.27 352.52 201.87 346.376 201.87C345.928 201.87 345.448 201.87 344.936 201.87C344.488 201.87 344.008 201.838 343.496 201.774C343.048 203.182 342.408 204.878 341.576 206.862C340.744 208.782 339.752 210.958 338.6 213.39C335.976 218.958 332.04 224.302 326.792 229.422C320.008 236.014 313.256 239.31 306.536 239.31ZM346.28 199.758C350.632 199.758 354.76 198.414 358.664 195.726C362.312 193.23 365.288 189.838 367.592 185.55C368.616 183.63 369.128 181.774 369.128 179.982C369.128 176.782 367.848 174.126 365.288 172.014C362.728 169.966 359.688 169.07 356.168 169.326C355.08 170.734 353.896 172.846 352.616 175.662C351.336 178.414 349.992 181.87 348.584 186.03C347.816 188.27 347.08 190.542 346.376 192.846C345.672 195.15 344.968 197.422 344.264 199.662C344.584 199.726 344.904 199.758 345.224 199.758C345.608 199.758 345.96 199.758 346.28 199.758ZM393.558 233.934C392.15 233.934 390.998 233.518 390.102 232.686C388.822 231.598 388.182 229.774 388.182 227.214C388.182 225.55 388.47 223.662 389.046 221.55C386.87 225.198 384.598 228.174 382.23 230.478C379.798 232.718 377.622 233.838 375.702 233.838C374.038 233.838 372.726 233.102 371.766 231.63C370.742 230.222 370.23 228.27 370.23 225.774C370.23 219.694 372.95 213.422 378.39 206.958C379.286 205.87 380.31 204.878 381.462 203.982C382.614 203.086 383.862 202.286 385.206 201.582C387.958 200.174 390.614 199.47 393.174 199.47C396.31 199.47 398.806 200.494 400.662 202.542C401.11 202.99 401.334 203.502 401.334 204.078C401.334 205.166 400.758 205.582 399.606 205.326C398.966 203.022 397.462 201.87 395.094 201.87C392.406 201.87 389.238 203.758 385.59 207.534C384.31 208.942 383.094 210.414 381.942 211.95C380.79 213.422 379.702 214.99 378.678 216.654C375.926 221.262 374.55 225.006 374.55 227.886C374.55 230.062 375.382 231.15 377.046 231.15C378.902 231.15 381.046 229.742 383.478 226.926C384.822 225.39 386.198 223.502 387.606 221.262C389.014 219.022 390.486 216.43 392.022 213.486C392.662 212.27 393.238 211.278 393.75 210.51C394.262 209.742 394.678 209.166 394.998 208.782C396.022 207.758 397.238 207.278 398.646 207.342L400.566 207.63C401.398 207.822 402.102 207.854 402.678 207.726C402.102 208.302 401.398 209.23 400.566 210.51C399.798 211.726 398.902 213.326 397.878 215.31C396.79 217.422 395.894 219.342 395.19 221.07C394.486 222.798 394.006 224.334 393.75 225.678C393.622 226.318 393.526 226.926 393.462 227.502C393.398 228.014 393.366 228.494 393.366 228.942C393.366 230.606 393.814 231.438 394.71 231.438C395.99 231.438 397.75 230.03 399.99 227.214L400.374 226.734L401.718 227.598L401.334 228.174C398.71 232.014 396.118 233.934 393.558 233.934ZM430.748 233.934C426.14 233.934 423.836 231.022 423.836 225.198C423.836 223.598 424.028 222.126 424.412 220.782C421.852 225.454 420.252 228.206 419.612 229.038C417.244 232.366 414.908 233.934 412.604 233.742C408.06 233.23 405.788 230.446 405.788 225.39C405.788 223.342 406.492 220.398 407.9 216.558C409.372 212.654 411.484 207.79 414.236 201.966C414.876 200.558 416.124 199.854 417.98 199.854L423.74 199.95C421.436 201.678 419.388 204.366 417.596 208.014C415.548 212.238 413.98 215.918 412.892 219.054C411.804 222.126 411.26 224.654 411.26 226.638C411.26 229.582 412.316 231.054 414.428 231.054C417.116 231.054 420.476 226.99 424.508 218.862C425.788 216.238 427.036 213.582 428.252 210.894C429.468 208.142 430.684 205.422 431.9 202.734C432.604 201.39 433.82 200.718 435.548 200.718H441.404C440.508 201.23 439.228 202.414 437.564 204.27C436.796 205.55 435.964 207.054 435.068 208.782C434.236 210.446 433.308 212.302 432.284 214.35C429.788 219.534 428.54 224.046 428.54 227.886C428.54 230.638 429.564 232.014 431.612 232.014C436.348 232.014 440.924 226.446 445.34 215.31C444.444 213.198 443.996 211.246 443.996 209.454C443.996 208.174 444.188 206.926 444.572 205.71C445.276 203.342 446.268 201.55 447.548 200.334C448.7 199.182 449.82 198.606 450.908 198.606C451.996 198.606 452.54 199.118 452.54 200.142L452.06 201.87C449.5 210.574 447.1 217.102 444.86 221.454C440.636 229.774 435.932 233.934 430.748 233.934ZM458.638 234.126C455.438 234.126 452.974 233.166 451.246 231.246C449.838 229.646 449.134 227.726 449.134 225.486C449.134 222.222 450.158 220.59 452.206 220.59C452.974 220.59 453.678 220.878 454.318 221.454C454.958 222.094 455.278 222.83 455.278 223.662C455.278 224.174 455.15 224.59 454.894 224.91C454.062 225.934 453.646 227.054 453.646 228.27C453.646 229.486 454.03 230.478 454.798 231.246C455.63 232.078 456.686 232.494 457.966 232.494C459.31 232.494 460.526 232.046 461.614 231.15C463.086 229.806 463.822 227.95 463.822 225.582C463.822 223.534 463.278 221.23 462.19 218.67C461.742 218.03 461.198 217.198 460.558 216.174C459.982 215.15 459.31 213.934 458.542 212.526C458.094 211.758 457.774 210.99 457.582 210.222C457.454 209.39 457.39 208.59 457.39 207.822C457.39 205.134 458.382 202.99 460.366 201.39C462.414 199.726 465.038 198.894 468.238 198.894C469.134 198.894 469.998 198.99 470.83 199.182C471.726 199.374 472.526 199.726 473.23 200.238C474.702 201.326 475.438 202.67 475.438 204.27C475.438 204.974 475.31 205.614 475.054 206.19C474.478 207.854 473.23 208.686 471.31 208.686C469.198 208.686 468.142 207.598 468.142 205.422C468.142 204.782 468.238 204.238 468.43 203.79C468.622 203.15 469.326 202.51 470.542 201.87C470.094 201.038 469.262 200.622 468.046 200.622C466.958 200.622 466.158 200.878 465.646 201.39C464.11 202.734 463.342 204.43 463.342 206.478C463.342 207.886 463.726 209.422 464.494 211.086C464.622 211.342 465.87 213.358 468.238 217.134C469.838 219.694 470.638 221.838 470.638 223.566C470.638 226.318 469.358 228.75 466.798 230.862C464.238 233.038 461.518 234.126 458.638 234.126Z" fill="#1F2A37"/>
<path d="M32.859 285.669C21.506 285.281 10.753 284.896 0 284.512C0.007836 283.946 0.0156922 283.381 0.0235474 282.815C22.3664 282.815 44.7093 282.815 67.0522 282.815C67.0744 283.568 67.0967 284.32 67.1189 285.072C55.899 285.272 44.679 285.472 32.859 285.669Z" fill="#5F8F91"/>
<path d="M107.956 294.915C106.44 294.915 105.038 294.665 103.752 294.166C102.465 293.648 101.352 292.928 100.411 292.006C99.47 291.084 98.7308 290 98.1932 288.752C97.6748 287.504 97.4156 286.14 97.4156 284.662C97.4156 283.184 97.6748 281.82 98.1932 280.572C98.7308 279.324 99.47 278.24 100.411 277.318C101.371 276.396 102.494 275.686 103.78 275.187C105.067 274.668 106.468 274.409 107.985 274.409C109.444 274.409 110.817 274.659 112.104 275.158C113.39 275.638 114.475 276.368 115.358 277.347L114.004 278.7C113.179 277.856 112.267 277.251 111.268 276.886C110.27 276.502 109.195 276.31 108.043 276.31C106.833 276.31 105.71 276.521 104.673 276.944C103.636 277.347 102.734 277.932 101.966 278.7C101.198 279.449 100.593 280.332 100.152 281.35C99.7292 282.348 99.518 283.452 99.518 284.662C99.518 285.872 99.7292 286.985 100.152 288.003C100.593 289.001 101.198 289.884 101.966 290.652C102.734 291.401 103.636 291.987 104.673 292.409C105.71 292.812 106.833 293.014 108.043 293.014C109.195 293.014 110.27 292.822 111.268 292.438C112.267 292.054 113.179 291.44 114.004 290.595L115.358 291.948C114.475 292.928 113.39 293.667 112.104 294.166C110.817 294.665 109.435 294.915 107.956 294.915ZM128.292 294.915C126.775 294.915 125.364 294.665 124.058 294.166C122.772 293.648 121.649 292.928 120.689 292.006C119.748 291.065 119.009 289.98 118.471 288.752C117.953 287.504 117.694 286.14 117.694 284.662C117.694 283.184 117.953 281.83 118.471 280.601C119.009 279.353 119.748 278.268 120.689 277.347C121.649 276.406 122.772 275.686 124.058 275.187C125.345 274.668 126.756 274.409 128.292 274.409C129.809 274.409 131.21 274.668 132.497 275.187C133.783 275.686 134.897 276.396 135.838 277.318C136.798 278.24 137.537 279.324 138.055 280.572C138.593 281.82 138.862 283.184 138.862 284.662C138.862 286.14 138.593 287.504 138.055 288.752C137.537 290 136.798 291.084 135.838 292.006C134.897 292.928 133.783 293.648 132.497 294.166C131.21 294.665 129.809 294.915 128.292 294.915ZM128.292 293.014C129.502 293.014 130.615 292.812 131.633 292.409C132.67 291.987 133.562 291.401 134.311 290.652C135.079 289.884 135.674 289.001 136.097 288.003C136.519 286.985 136.73 285.872 136.73 284.662C136.73 283.452 136.519 282.348 136.097 281.35C135.674 280.332 135.079 279.449 134.311 278.7C133.562 277.932 132.67 277.347 131.633 276.944C130.615 276.521 129.502 276.31 128.292 276.31C127.082 276.31 125.959 276.521 124.922 276.944C123.886 277.347 122.983 277.932 122.215 278.7C121.466 279.449 120.871 280.332 120.43 281.35C120.007 282.348 119.796 283.452 119.796 284.662C119.796 285.852 120.007 286.956 120.43 287.974C120.871 288.992 121.466 289.884 122.215 290.652C122.983 291.401 123.886 291.987 124.922 292.409C125.959 292.812 127.082 293.014 128.292 293.014ZM140.132 294.742L149.348 274.582H151.45L160.666 294.742H158.42L149.953 275.82H150.817L142.349 294.742H140.132ZM143.761 289.356L144.394 287.628H156.116L156.749 289.356H143.761ZM169.56 294.915C168.062 294.915 166.622 294.675 165.24 294.195C163.876 293.696 162.82 293.062 162.072 292.294L162.907 290.652C163.617 291.344 164.568 291.929 165.758 292.409C166.968 292.87 168.235 293.1 169.56 293.1C170.827 293.1 171.854 292.947 172.641 292.64C173.448 292.313 174.033 291.881 174.398 291.344C174.782 290.806 174.974 290.211 174.974 289.558C174.974 288.771 174.744 288.137 174.283 287.657C173.841 287.177 173.256 286.803 172.526 286.534C171.796 286.246 170.99 285.996 170.107 285.785C169.224 285.574 168.34 285.353 167.457 285.123C166.574 284.873 165.758 284.547 165.009 284.144C164.28 283.74 163.684 283.212 163.224 282.56C162.782 281.888 162.561 281.014 162.561 279.939C162.561 278.94 162.82 278.028 163.339 277.203C163.876 276.358 164.692 275.686 165.787 275.187C166.881 274.668 168.283 274.409 169.992 274.409C171.124 274.409 172.248 274.572 173.361 274.899C174.475 275.206 175.435 275.638 176.241 276.195L175.521 277.894C174.657 277.318 173.736 276.896 172.756 276.627C171.796 276.358 170.865 276.224 169.963 276.224C168.753 276.224 167.755 276.387 166.968 276.713C166.18 277.04 165.595 277.481 165.211 278.038C164.846 278.576 164.664 279.19 164.664 279.881C164.664 280.668 164.884 281.302 165.326 281.782C165.787 282.262 166.382 282.636 167.112 282.905C167.86 283.174 168.676 283.414 169.56 283.625C170.443 283.836 171.316 284.067 172.18 284.316C173.064 284.566 173.87 284.892 174.6 285.296C175.348 285.68 175.944 286.198 176.385 286.851C176.846 287.504 177.076 288.358 177.076 289.414C177.076 290.393 176.808 291.305 176.27 292.15C175.732 292.976 174.907 293.648 173.793 294.166C172.699 294.665 171.288 294.915 169.56 294.915ZM185.355 294.742V276.425H178.271V274.582H194.571V276.425H187.487V294.742H185.355ZM193.738 294.742L202.954 274.582H205.056L214.272 294.742H212.026L203.559 275.82H204.423L195.956 294.742H193.738ZM197.367 289.356L198 287.628H209.722L210.356 289.356H197.367ZM217.607 294.742V274.582H219.739V292.899H231.028V294.742H217.607ZM242.104 294.742V274.582H249.65C251.359 274.582 252.827 274.86 254.056 275.417C255.285 275.955 256.226 276.742 256.879 277.779C257.551 278.796 257.887 280.035 257.887 281.494C257.887 282.915 257.551 284.144 256.879 285.18C256.226 286.198 255.285 286.985 254.056 287.542C252.827 288.099 251.359 288.377 249.65 288.377H243.285L244.235 287.369V294.742H242.104ZM244.235 287.542L243.285 286.505H249.592C251.608 286.505 253.135 286.073 254.171 285.209C255.227 284.326 255.755 283.088 255.755 281.494C255.755 279.881 255.227 278.633 254.171 277.75C253.135 276.867 251.608 276.425 249.592 276.425H243.285L244.235 275.417V287.542ZM264.396 283.596H275.052V285.411H264.396V283.596ZM264.626 292.899H276.751V294.742H262.495V274.582H276.319V276.425H264.626V292.899ZM285.677 294.742V276.425H278.593V274.582H294.893V276.425H287.809V294.742H285.677ZM314.591 294.915C313.074 294.915 311.672 294.665 310.386 294.166C309.1 293.648 307.986 292.928 307.045 292.006C306.104 291.084 305.365 290 304.828 288.752C304.309 287.504 304.05 286.14 304.05 284.662C304.05 283.184 304.309 281.82 304.828 280.572C305.365 279.324 306.104 278.24 307.045 277.318C308.005 276.396 309.128 275.686 310.415 275.187C311.701 274.668 313.103 274.409 314.62 274.409C316.079 274.409 317.452 274.659 318.738 275.158C320.024 275.638 321.109 276.368 321.992 277.347L320.639 278.7C319.813 277.856 318.901 277.251 317.903 276.886C316.904 276.502 315.829 276.31 314.677 276.31C313.468 276.31 312.344 276.521 311.308 276.944C310.271 277.347 309.368 277.932 308.6 278.7C307.832 279.449 307.228 280.332 306.786 281.35C306.364 282.348 306.152 283.452 306.152 284.662C306.152 285.872 306.364 286.985 306.786 288.003C307.228 289.001 307.832 289.884 308.6 290.652C309.368 291.401 310.271 291.987 311.308 292.409C312.344 292.812 313.468 293.014 314.677 293.014C315.829 293.014 316.904 292.822 317.903 292.438C318.901 292.054 319.813 291.44 320.639 290.595L321.992 291.948C321.109 292.928 320.024 293.667 318.738 294.166C317.452 294.665 316.069 294.915 314.591 294.915ZM322.804 294.742L332.02 274.582H334.122L343.338 294.742H341.092L332.624 275.82H333.488L325.021 294.742H322.804ZM326.432 289.356L327.066 287.628H338.788L339.421 289.356H326.432ZM346.673 294.742V274.582H354.219C355.927 274.582 357.396 274.86 358.625 275.417C359.854 275.955 360.795 276.742 361.447 277.779C362.119 278.796 362.455 280.035 362.455 281.494C362.455 282.915 362.119 284.144 361.447 285.18C360.795 286.198 359.854 286.985 358.625 287.542C357.396 288.08 355.927 288.348 354.219 288.348H347.854L348.804 287.369V294.742H346.673ZM360.439 294.742L355.255 287.427H357.559L362.772 294.742H360.439ZM348.804 287.542L347.854 286.534H354.161C356.177 286.534 357.703 286.092 358.74 285.209C359.796 284.326 360.324 283.088 360.324 281.494C360.324 279.881 359.796 278.633 358.74 277.75C357.703 276.867 356.177 276.425 354.161 276.425H347.854L348.804 275.417V287.542ZM369.386 283.596H380.042V285.411H369.386V283.596ZM369.617 292.899H381.742V294.742H367.486V274.582H381.31V276.425H369.617V292.899Z" fill="#1F2A37"/>
<path d="M469.172 284.913C449.963 285.93 431.325 286.044 412.719 284.788C412.727 284.119 412.736 283.45 412.744 282.781C435.994 282.781 459.243 282.781 482.493 282.781C482.5 283.184 482.506 283.587 482.513 283.99C478.25 284.271 473.987 284.552 469.172 284.913Z" fill="#5F8F91"/>
</svg>
