<svg width="578" height="850" viewBox="0 0 578 850" fill="none" xmlns="http://www.w3.org/2000/svg">
<path fill-rule="evenodd" clip-rule="evenodd" d="M138.547 837.105C142.126 835.64 163.847 836.128 165.23 837.674C170.599 843.857 165.474 849.226 153.597 849.958C146.031 850.365 137.083 847.924 136.35 845.158C135.537 842.148 136.757 837.837 138.547 837.105ZM4.06435 836.399C7.07641 835.504 50.5165 836.318 53.2011 837.294C57.2682 838.84 58.5697 846.243 54.9091 847.301C48.1569 849.253 44.4955 849.578 27.2489 849.578C14.0714 849.66 7.48211 849.334 6.42373 848.765C5.52886 848.195 3.81978 847.463 2.59951 846.975C-1.549 845.51 -0.491208 837.782 4.06435 836.399ZM441.811 835.749C452.142 835.587 453.526 836.319 453.851 841.932C454.096 845.918 453.932 846.244 451.817 847.058C450.597 847.465 449.295 848.278 448.97 848.848C448.308 849.986 401.216 849.743 398.45 848.604C397.474 848.197 395.278 847.708 393.651 847.383C391.048 846.976 390.559 846.569 390.152 844.291C389.746 842.176 390.641 837.702 391.536 837.051C391.709 836.969 401.305 836.644 412.932 836.4C424.565 836.156 437.581 835.831 441.811 835.749ZM208.907 836.718C212.491 836.149 306.021 836.149 309.274 836.637C312.772 837.206 316.432 840.216 316.432 842.493C316.432 848.187 311.226 848.756 258.277 848.756C215.09 848.675 206.467 848.268 204.922 845.828C202.888 842.575 205.166 837.287 208.907 836.718ZM170.21 209.339C183.55 207.956 280.988 208.933 284.241 210.397C285.949 211.129 288.47 211.779 289.934 211.779C293.269 211.78 300.671 215.358 305.144 219.1C312.139 224.875 315.555 237.564 314.254 253.1C313.684 260.746 311.813 263.267 305.876 264.243C300.02 265.301 300.101 264.569 299.857 295.803C299.776 311.173 299.938 324.185 300.264 324.759C300.752 325.41 303.111 325.491 309.861 324.922C333.367 322.807 373.059 324.597 378.996 327.932C379.972 328.42 381.355 328.907 382.168 328.907C386.967 328.907 408.927 347.29 410.636 352.739C410.88 353.716 411.774 355.424 412.506 356.563C414.051 358.922 416.736 365.673 418.362 371.611C420.233 378.37 420.07 760.735 418.199 768.137C415.434 778.955 410.229 787.414 400.55 796.85C396.808 800.429 395.263 801.404 386.397 805.634L380.867 808.237V815.639C380.867 828.083 376.068 836.624 366.39 841.423C356.873 846.141 340.524 843.376 336.295 836.218C335.563 834.998 334.669 834.022 334.344 834.022C332.31 834.022 329.544 824.505 329.707 818.404C329.87 814.826 329.626 811.734 329.138 811.246C328.562 810.677 306.032 810.433 259.19 810.596C221.207 810.677 174.602 810.759 155.569 810.759L121.002 810.84V818.16C121.002 828.572 115.96 837.438 107.826 841.505C101.482 844.596 87.4116 844.27 82.5312 841.017C74.2351 835.242 70.9002 828.084 70.6562 815.802L70.5741 808.563L67.3212 806.692C65.5318 805.634 63.498 804.821 62.9286 804.739C61.6268 804.739 57.3165 801.974 51.0546 797.094C46.0932 793.271 39.261 784.323 36.9022 778.548C35.9263 776.189 34.7875 773.587 34.3808 772.855C33.9741 772.123 32.9168 767.893 32.1034 763.501C30.7207 755.855 30.6393 746.988 30.7206 567.23C30.8019 354.529 30.3136 371.691 37.0644 358.596C37.715 357.213 39.0979 354.529 40.1552 352.577C46.418 340.295 64.7998 327.607 79.5214 325.41C86.0283 324.434 131.82 324.189 140.766 325.084C146.379 325.654 146.704 325.573 147.273 323.864C147.599 322.807 147.679 309.468 147.435 294.095C146.947 263.43 147.354 265.219 141.661 264.324C134.178 263.104 132.308 257.329 133.69 239.029C134.992 220.809 146.135 211.779 170.21 209.339ZM363.38 811.246C362.322 810.352 352.074 809.701 348.658 810.271C345.486 810.84 344.836 814.013 346.3 821.414C347.276 826.132 354.027 829.06 359.313 827.027C362.567 825.725 365.82 813.28 363.38 811.246ZM96.5204 810.596C86.679 810.352 86.4346 810.515 87.2479 817.347C88.0613 823.773 88.631 824.911 91.3964 826.294C98.7165 830.117 105.793 823.691 104.979 814.093L104.735 810.84L96.5204 810.596ZM313.929 590.9C311.164 589.842 311.407 589.842 310.268 590.981C309.048 592.201 308.886 791.383 310.105 793.352C311.081 794.897 322.956 794.572 324.583 793.027C325.884 791.725 326.128 594.329 324.827 593.015C324.42 592.608 322.305 592.12 320.109 592.038C317.995 591.876 315.149 591.388 313.929 590.9ZM142.475 592.771C141.498 591.551 127.916 591.063 127.916 592.201C127.591 639.297 127.916 792.62 128.241 793.271C129.055 794.572 141.336 794.409 142.393 793.108C143.694 791.529 143.776 594.328 142.475 592.771ZM371.758 343.792C370.212 342.409 343.778 341.271 342.232 342.491C340.606 343.814 341.989 464.654 343.615 465.882C347.438 468.648 348.333 473.609 348.333 491.585C348.333 509.642 347.926 512.082 344.022 516.556C342.477 518.345 342.395 521.436 342.232 655.238C342.151 730.558 342.232 792.62 342.476 793.19C342.721 794.003 343.941 794.166 347.031 793.759C349.309 793.515 355.978 793.108 361.753 792.945C373.628 792.539 382.168 791.074 386.967 788.553C390.789 786.519 397.134 780.5 397.134 778.873C397.134 778.222 397.948 776.352 399.005 774.726L400.794 771.797V572.517C400.794 384.055 400.712 373.155 399.411 371.203C398.598 370.146 397.947 368.682 397.947 368.031C397.947 362.988 382.493 347.86 375.011 345.582C373.953 345.257 372.49 344.443 371.758 343.792ZM293.187 342.898C292.276 341.596 161.588 341.027 160.124 342.328C158.416 343.877 159.718 464.662 161.426 465.882C165.086 468.566 166.142 474.423 166.142 491.504C166.142 508.666 165.411 512.652 161.182 517.288C159.718 518.834 159.636 523.227 159.636 654.913C159.636 795.057 159.636 795.141 162.726 793.596C163.458 793.271 192.577 792.864 227.307 792.864C262.118 792.783 291.074 792.538 291.806 792.213C293.269 791.593 293.595 525.665 292.131 519.891C291.724 518.264 290.341 515.661 289.121 514.279L286.925 511.594V470.844L290.016 466.94L293.025 462.953V405.773C293.025 374.376 293.188 347.615 293.432 346.314C293.676 345.012 293.594 343.467 293.187 342.898ZM98.6347 342.247C85.2961 342.085 81.8798 342.491 77.8944 344.687C76.5932 345.419 74.9669 345.988 74.3974 345.988C69.5986 345.988 57.8865 357.946 53.0878 367.706L49.8339 374.294L49.997 569.426L50.2411 764.477L52.1933 768.544C54.6333 773.668 58.5373 779.525 60.7333 781.396C66.9147 786.682 74.7232 790.587 81.9618 792.132C87.8999 793.271 109.534 794.084 110.51 793.108C110.835 792.854 111.161 731.204 111.242 656.215L111.404 519.81L109.29 517.288C108.151 515.906 106.687 514.279 106.199 513.709C104.41 511.838 104.247 509.48 104.491 489.877L104.735 470.681L107.988 466.696L111.242 462.791V342.328L98.6347 342.247ZM135.642 521.029C131.577 520.948 127.999 521.03 127.672 521.355C126.94 522.087 126.939 571.783 127.59 574.388C128.159 576.259 133.202 579.431 135.642 579.431C136.375 579.431 138.408 578.699 140.197 577.804L143.369 576.096L143.207 548.685L142.963 521.274L135.642 521.029ZM325.722 521.843C325.395 520.786 310.919 520.379 309.861 521.437C309.536 521.688 309.292 533.398 309.292 547.383V572.843L311.813 575.69C314.904 579.268 318.89 580.244 322.794 578.292C324.339 577.641 325.559 576.584 325.641 576.015C325.885 572.599 325.966 522.738 325.722 521.843ZM147.68 477.27C145.646 475.236 122.55 475.643 121.409 477.676C120.189 479.953 120.351 504.352 121.571 505.087C123.442 506.226 147.517 505.738 148.656 504.518C150.283 502.889 149.306 478.978 147.68 477.27ZM329.951 477.188C327.428 475.317 304.737 475.724 303.68 477.676C303.192 478.49 302.948 484.672 303.029 492.073L303.192 505.006L315.799 505.412C333.123 506.063 332.065 507.039 331.74 491.016C331.496 479.791 331.252 478.164 329.951 477.188ZM324.908 342.572C324.175 341.84 311.895 341.027 310.35 341.678C309.536 342.004 309.292 354.531 309.292 400.811C309.292 446.523 309.536 459.863 310.35 460.839C311.163 461.978 312.383 462.059 318.239 461.653L325.152 461.083L325.396 402.194C325.478 369.739 325.233 342.898 324.908 342.572ZM140.848 341.84C139.79 341.515 138.57 341.271 138.082 341.353C137.674 341.353 135.154 341.596 132.471 341.84L127.672 342.328V401.543C127.672 448.23 127.834 460.919 128.647 461.408C130.03 462.303 141.09 461.49 142.311 460.514C143.125 459.863 143.288 446.361 143.125 401.055L142.881 342.409L140.848 341.84ZM539.257 260.95C540.965 260.951 544.382 263.472 544.382 264.693C544.382 265.344 545.114 267.947 546.009 270.469C546.904 273.072 547.636 276.327 547.636 277.872C547.636 284.787 551.947 288.773 560.733 289.912C563.174 290.238 565.859 290.971 566.754 291.54C567.649 292.191 569.357 292.679 570.496 292.679C573.831 292.679 575.214 293.493 576.516 296.015C578.712 300.082 576.027 302.523 567.892 303.988C552.518 306.672 552.517 306.672 550.483 309.113C549.345 310.414 548.287 312.529 548.043 313.668C547.799 314.889 546.904 318.55 546.009 321.723C545.114 324.977 544.382 328.312 544.382 329.207C544.382 331.16 541.453 333.357 538.849 333.357C536.165 333.357 533.806 331.892 533.806 330.265C533.805 329.451 533.073 326.766 532.179 324.163C531.284 321.641 530.552 318.469 530.552 317.248C530.552 314.32 526.892 307.568 525.02 306.997C524.288 306.835 522.01 306.347 519.976 306.103C517.943 305.777 515.339 304.963 514.119 304.394C512.899 303.743 510.703 303.255 509.238 303.255C505.089 303.255 501.266 300.571 501.266 297.642C501.266 294.957 503.706 292.679 506.716 292.679C507.692 292.679 510.376 291.947 512.654 291.052C514.932 290.157 518.024 289.425 519.488 289.425C527.623 289.425 530.633 284.95 533.724 268.435C534.05 266.564 535.189 264.041 536.247 262.984C537.304 261.845 538.687 260.95 539.257 260.95ZM235.684 309.224C219.58 307.028 210.551 308.166 199.327 313.86C195.179 315.974 191.112 318.253 190.218 318.985C188.591 320.449 186.314 324.434 186.884 324.922C187.404 325.41 260.479 325.085 260.979 324.597C264.233 321.343 246.827 310.769 235.684 309.224ZM268.381 260.095C262.769 258.55 200.061 257.655 189.73 258.956C179.97 260.176 174.521 261.396 170.21 263.267L165.98 265.138L165.817 286.693C165.655 298.487 165.329 311.338 164.923 315.161C164.353 321.912 164.354 322.237 166.061 323.132C168.339 324.433 169.152 323.783 170.21 319.96C170.698 318.171 171.348 316.706 171.674 316.706C171.999 316.706 174.033 314.429 176.228 311.582C182.654 303.367 196.562 294.583 205.102 293.363C206.729 293.118 209.494 292.386 211.365 291.736C217.791 289.458 243.004 291.817 247.803 295.234C248.697 295.884 249.999 296.372 250.731 296.372C256.018 296.373 269.194 306.702 275.213 315.487C281.964 325.329 283.428 324.84 282.777 312.802C282.533 307.596 282.207 294.989 282.126 284.904C281.963 274.736 281.557 266.032 281.231 265.463C280.418 264.162 274.562 261.722 268.381 260.095ZM280.825 227.234C265.209 224.305 182.411 224.225 167.363 227.071C164.679 227.56 161.181 228.21 159.555 228.454C157.684 228.698 155.651 229.918 153.455 232.196C150.364 235.368 150.282 235.531 149.957 242.445C149.632 251.636 152.641 254.076 159.799 250.334C165.248 247.487 173.056 245.209 183.874 243.176C191.439 241.712 251.382 241.306 261.305 242.689C269.438 243.746 277.733 245.698 280.418 247.08C281.801 247.812 283.591 248.382 284.485 248.382C285.38 248.382 287.088 248.87 288.308 249.521C295.709 253.425 297.58 252.042 297.255 242.933C296.929 231.871 294.733 229.755 280.825 227.234ZM428.677 0.713095C435.996 -0.262911 436.81 -0.263433 438.355 0.875205C440.551 2.50198 438.843 5.59374 433.801 9.00997C425.749 14.3783 419.648 21.2103 415.175 29.5881C413.873 32.1908 412.409 34.7122 412.084 35.2004C411.433 35.9324 408.668 44.9611 407.692 49.4348C405.008 61.0662 405.821 83.7599 409.156 91.3244C411.759 97.2621 415.663 104.583 417.615 107.186C418.835 108.731 420.462 111.09 421.356 112.473C426.725 121.095 446.163 134.353 456.574 136.549C459.014 137.037 462.268 137.932 463.813 138.582C467.23 140.046 488.865 140.29 493.338 138.907C494.883 138.419 498.055 137.687 500.251 137.28C503.748 136.548 508.71 134.596 512.858 132.238C513.509 131.912 514.973 131.18 516.111 130.611C518.714 129.39 524.815 124.51 527.58 121.582C530.101 118.817 533.191 119.631 533.191 122.884C533.11 130.448 527.58 149.156 523.35 155.988C522.944 156.639 522.048 158.266 521.316 159.649C512.613 175.347 496.429 190.721 480.568 198.366C478.372 199.424 476.176 200.725 475.606 201.294C475.037 201.863 473.736 202.352 472.679 202.352C471.703 202.352 469.506 203.084 467.717 203.979C465.928 204.873 463.651 205.605 462.675 205.606C461.617 205.606 459.421 206.256 457.713 206.988C452.669 209.266 420.136 209.591 412.897 207.314C409.969 206.419 405.577 205.28 403.219 204.792C400.941 204.223 398.745 203.491 398.501 203.084C398.257 202.677 397.525 202.352 396.793 202.352C395.41 202.351 388.74 199.423 383.21 196.495C366.699 187.629 350.107 171.199 341.079 154.769C335.386 144.439 332.538 137.362 329.854 126.706C326.764 114.749 327.252 89.4537 330.749 78.717C331.481 76.277 332.457 72.9423 332.701 71.3967C333.189 68.8752 338.883 56.5111 341.404 52.2815C349.538 39.0236 363.852 23.5699 371.904 19.0959C372.88 18.5266 376.622 16.4115 380.119 14.3781C388.903 9.25385 407.041 3.07192 413.223 2.99044C415.012 2.99044 418.103 2.665 420.137 2.17696C422.17 1.77025 425.993 1.03843 428.677 0.713095ZM404.438 20.6408C403.788 19.0143 401.673 19.0144 398.989 20.5598C397.851 21.2104 396.061 22.1049 394.923 22.593C393.784 22.9997 392.32 23.8132 391.669 24.2199C391.018 24.7079 389.554 25.521 388.416 26.009C385 27.7171 371.905 37.7218 368.895 41.0568C363.934 46.3437 359.135 52.444 359.135 53.3391C359.135 53.7457 358.566 54.5588 357.834 55.1281C357.183 55.7788 356.044 57.3245 355.393 58.7072C354.824 60.0899 353.523 62.2864 352.629 63.6692C345.471 74.4872 339.94 107.674 343.763 117.516C344.251 118.736 344.983 121.827 345.39 124.267C346.366 129.554 352.059 144.032 354.337 146.879C355.15 148.017 355.881 149.156 355.882 149.563C355.882 152.003 368.082 166.318 374.914 171.931C382.478 178.031 389.555 182.83 390.937 182.83C391.669 182.83 392.727 183.4 393.296 184.051C393.784 184.702 395.004 185.434 395.979 185.759C396.955 186.084 398.175 186.817 398.826 187.386C399.395 188.037 400.779 188.525 401.836 188.525C402.893 188.525 405.577 189.256 407.773 190.07C409.888 190.964 416.964 192.266 423.39 192.998C435.508 194.462 435.671 194.462 453.077 191.86C459.34 190.883 469.263 187.466 474.631 184.294C475.282 183.969 476.745 183.155 477.884 182.586C489.352 176.974 510.418 156.07 510.418 150.376C510.418 148.994 506.595 149.319 502.447 151.027C493.907 154.524 467.311 155.338 458.201 152.409C456.249 151.84 452.914 150.864 450.637 150.376C446.651 149.4 434.045 143.626 429.815 140.697C428.677 139.965 426.236 138.338 424.528 137.199C419.486 133.865 407.367 120.444 403.951 114.506C393.622 96.6929 390.855 87.013 390.855 69.3625C390.937 57.8941 391.181 55.7787 393.702 46.1809C395.491 39.2671 400.128 28.7744 403.382 24.0568C404.195 22.9181 404.682 21.2915 404.438 20.6408ZM173.871 65.0559C178.02 65.0559 178.834 65.8698 179.973 70.7512C180.461 72.785 181.355 75.8764 182.006 77.6662C182.738 79.456 183.226 82.0598 183.308 83.3615C183.308 87.8359 186.969 90.9276 193.07 91.8225C195.999 92.2293 199.823 92.9613 201.612 93.4494C203.402 93.9375 205.842 94.5071 207.062 94.7512C212.513 95.8088 212.513 103.375 207.062 104.514C205.842 104.839 203.402 105.409 201.612 105.816C199.822 106.304 195.836 107.117 192.826 107.687C185.748 109.07 184.365 110.453 183.226 117.205C182.657 120.053 181.762 123.55 181.192 125.015C180.541 126.398 180.054 128.433 180.054 129.571C180.053 131.849 176.718 135.022 174.44 135.022C170.78 135.022 169.56 132.5 166.794 119.157C165.004 110.859 162.97 108.744 155.729 107.768C153.289 107.442 150.117 106.629 148.652 106.06C147.188 105.409 144.992 104.92 143.771 104.92C141.982 104.92 136.938 100.934 136.937 99.551C136.937 98.4121 142.713 94.3445 144.259 94.344C145.398 94.344 147.595 93.9376 149.141 93.4494C150.686 92.9613 154.347 92.1478 157.275 91.5783C162.97 90.6021 166.224 87.1035 166.224 82.1408C166.224 81.0019 166.956 77.7474 167.769 74.8186C168.664 71.8901 169.64 68.5551 169.885 67.2531C170.291 65.3006 170.617 65.0559 173.871 65.0559Z" fill="#CB9959"/>
</svg>
