<svg width="785" height="850" viewBox="0 0 785 850" fill="none" xmlns="http://www.w3.org/2000/svg">
<path fill-rule="evenodd" clip-rule="evenodd" d="M361.116 0.370023C450.49 -5.07803 514.23 50.2642 540.628 124.82C553.063 159.941 558.767 196.386 563.519 233.102C566.682 257.541 570.53 281.891 573.762 306.321C574.539 312.2 577.793 313.188 582.814 313.663C616.022 316.801 646.364 327.308 672.01 349.377C674.843 351.815 677.835 352.593 681.481 352.127C698.153 349.995 711.745 356.441 723.015 368.072C728.472 373.705 733.545 379.891 737.808 386.465C748.824 403.451 760.229 420.137 772.165 436.496C789.582 460.365 788.325 485.02 768.585 506.647C759.32 516.798 748.618 525.445 736.653 532.384C726.169 538.464 714.883 541.061 703.028 538.328C697.445 537.041 695.065 538.694 692.713 543.473C682.958 563.292 684.827 575.577 700.082 591.651C726.894 619.905 738.729 654.382 740.172 692.566C741.234 720.658 741.574 748.866 730.391 775.647C713.651 815.735 676.009 832.581 635.234 818.091C617.493 811.787 608.365 799.299 607.494 780.195C607.405 778.231 607.151 776.274 606.984 774.419C603.687 773.907 601.987 775.888 600.065 777.122C565.809 799.111 528.281 812.555 488.416 819.827C462.117 824.625 436.693 833.217 410.256 837.452C376.727 842.823 342.928 845.623 309.102 847.658C265.961 850.254 222.733 851.195 179.571 847.837C146.43 845.258 113.347 842.141 81.5109 831.433C30.4676 814.266 0.390331 772.54 0.00503129 718.877C-0.28613 678.338 12.1093 640.558 24.3293 602.732C29.5947 586.433 35.8539 570.455 41.6515 554.328C64.9969 489.388 110.768 450.518 178.18 436.665C182.007 435.879 186.358 435.926 190.075 432.091C174.144 420.936 161.116 407.795 155.595 388.631C148.754 364.885 150.347 341.013 154.789 317.345C164.383 266.229 170.943 214.519 183.612 164.013C193.13 126.072 208.018 90.5006 234.734 60.0634C268.806 21.9698 311.382 3.40174 361.116 0.370023ZM237.307 451.925C234.22 445.674 230.596 443.436 223.531 445.245C209.599 448.813 195.459 451.563 181.413 454.689C125.874 467.052 84.6925 497.17 63.0373 551.052C47.9516 588.587 34.5885 626.781 24.6603 665.988C18.1667 691.632 14.6255 718.056 21.1154 744.314C32.0875 788.708 64.562 809.566 106.205 819.629C147.11 829.513 188.924 831.467 230.674 831.893C272.808 832.324 314.979 830.28 356.922 825.857C387.224 822.662 417.453 818.561 447.089 811.115C451.657 809.968 457.406 809.507 458.36 803.668C461.918 781.87 459.706 760.963 448.156 741.107C444.329 742.51 441.482 743.577 438.619 744.598C419.707 751.339 401.423 749.645 384.23 739.536C379.416 736.706 375.07 735.725 369.74 736.623C349.788 739.984 329.664 741.947 309.461 742.724C264.388 744.459 220.875 736.018 178.089 722.482C151.021 713.919 124.018 704.312 94.7101 709.104C90.5566 709.784 87.367 707.418 86.3205 703.162C85.3538 699.23 87.314 696.399 90.7853 694.907C93.5851 693.704 96.6161 692.969 99.6037 692.284C109.769 689.953 119.917 690.031 130.21 691.918C134.282 692.664 140.602 694.734 142.243 689.513C146.674 675.417 154.852 661.8 150.698 646.064C146.626 630.638 144.509 615.145 147.926 599.319C151.801 581.368 160.665 575.72 178.388 580.171C191.13 583.371 202.861 589.076 213.99 595.94C217.402 598.045 220.137 599.38 224.288 597.37C244.969 587.358 266.737 581.849 289.875 582.992C295.764 583.283 299.499 581.025 302.099 575.72C306.665 566.401 313.108 558.329 320.393 551.009C336.378 534.945 351.066 536.324 363.652 555.189C374.977 572.164 379.153 591.591 381.905 611.387C382.64 616.675 383.608 621.42 389.616 623.387C390.398 622.441 391.332 621.783 391.6 620.919C400.798 591.265 415.039 563.935 429.897 536.85C434.17 529.06 433.949 520.498 431.48 511.163C372.612 529.758 317.01 526.784 265.566 486.87C253.723 477.18 244.074 465.626 237.307 451.925ZM693.367 613.962C692.532 629.4 694.89 642.923 690.971 655.943C688.742 663.346 686.833 671.514 675.809 669.724C672.74 693.35 661.8 712.826 648.793 731.696C640.68 743.467 632.575 755.477 627.255 768.985C622.348 781.445 624.831 790.73 635.714 797.705C637.532 790.316 637.96 782.642 642.27 776.356C644.623 772.923 647.231 768.941 652.126 771.524C656.514 773.84 654.939 777.86 653.593 781.511C651.937 786.003 650.061 790.438 650.149 795.387C650.276 802.594 653.833 805.831 661.077 805.923C668.048 806.011 671.354 803.747 669.962 796.197C669.494 793.66 670.452 790.769 671.122 788.132C672.557 782.484 674.051 774.768 681.052 776.004C688.985 777.405 684.536 784.822 684.014 789.813C683.69 792.91 682.505 796.229 685.832 798.146C688.628 799.757 691.162 797.593 693.328 796.105C704.263 788.597 710.998 777.918 714.665 765.471C724.67 731.511 723.273 697.124 717.266 661.015C712.913 644.215 707.001 628.235 693.367 613.962ZM658.798 656.924C659.059 630.287 641.879 620.377 618.449 632.827C604.026 640.492 592.623 651.967 581.314 663.471C569.942 675.037 557.875 685.592 542.459 691.577C537.993 693.311 533.454 694.487 530.832 689.284C528.22 684.099 531.88 680.99 535.868 678.494C544.314 673.209 552.549 667.647 559.514 660.443C563.812 655.997 569.792 650.809 565.502 644.632C560.973 638.111 554.061 642.609 548.945 645.569C532.043 655.35 515.481 665.715 498.671 675.657C485.509 683.441 475.971 694.745 469.422 708.063C464.548 717.975 461.403 728.378 468.046 740.051C475.029 752.32 477.111 766.467 477.167 780.761C477.258 804.029 477.379 804.029 501.078 798.798C503.064 798.269 505.052 797.746 507.036 797.21C552.392 784.947 594.541 766.765 626.533 730.678C645.159 709.668 658.515 685.795 658.798 656.924ZM445.323 700.115C431.537 684.826 398.39 689.208 389.088 707.547C384.897 715.809 386.187 722.031 396.848 724.841C399.228 720.792 397.857 716.12 399.007 711.847C399.825 708.807 400.335 705.401 404.275 705.351C408.486 705.299 410.152 708.529 410.585 712.123C411.033 715.841 410.973 719.628 411.018 723.387C411.074 728.103 412.538 731.435 418.041 731.319C423.372 731.207 426.387 728.822 426.348 723.215C426.321 719.454 426.363 715.692 426.395 711.932C426.427 708.096 426.304 703.66 431.427 703.406C436.134 703.173 437.173 707.255 438.104 711.083C439.106 715.204 438.775 719.782 441.427 723.581C450.803 717.157 452.18 707.719 445.323 700.115ZM349.527 565.674C343.659 556.881 340.199 556.666 332.441 564.04C324.137 571.933 317.277 580.953 313.311 591.752C310.753 598.715 306.326 601.285 299.161 600.631C273.512 598.29 249.299 603.097 226.894 615.985C221.087 619.326 216.211 618.756 210.774 614.937C200.924 608.021 190.197 602.567 178.863 598.472C168.659 594.784 164.91 597.333 164.026 608.074C162.583 625.582 166.834 642.144 172.812 658.312C174.935 664.056 175.559 669.381 173.636 675.278C172.307 679.352 170.094 684.989 174.908 687.428C183.791 691.928 179.911 696.692 175.411 702.357C198.095 711.053 220.773 716.078 245.295 721.024C283.531 727.58 321.746 726.112 359.923 720.555C364.266 719.922 368.686 719.028 369.716 713.213C371.563 702.784 376.564 694.059 384.231 686.588C387.917 682.995 391.621 676.292 387.027 673.05C378.679 667.159 380.687 661.884 384.873 656.357C382.951 650.155 375.436 654.555 373.848 648.074C382.1 641.314 376.529 635.512 371.244 629.907C366.497 624.872 365.109 619.021 364.404 612.232C362.696 595.777 358.906 579.727 349.527 565.674ZM286.519 669.882C296.718 668.993 300.447 674.024 296.653 683.725C295.404 686.921 292.998 689.847 296.123 693.087C299.06 696.131 302.426 697.137 306.765 693.993C310.143 691.151 313.016 687.389 316.88 691.252C320.239 694.611 317.927 698.252 315.804 701.473C313.22 705.393 309.401 708.735 305.007 708.589C295.68 708.277 287.137 710.007 278.632 713.737C275.374 715.166 271.152 714.474 267.547 712.999C263.659 711.408 259.169 709.526 260.576 704.42C261.917 699.556 266.189 700.573 270.025 701.758C274.211 703.051 277.625 701.61 279.514 697.773C281.626 693.482 278.337 691.736 275.233 689.936C271.21 687.605 267.63 684.412 268.548 679.388C269.464 674.379 274.123 672.827 278.498 671.61C281.132 670.878 283.814 670.117 286.519 669.882ZM648.318 354.053C617.541 335.119 584.375 328.459 548.881 332.315C540.542 333.221 531.658 333.686 525.081 340.404C504.902 361.019 492.545 385.825 484.869 413.421C479.286 433.494 475.288 454.77 459.492 469.936C451.671 477.446 448.164 485.338 450.255 495.352C455.984 522.787 446.505 546.37 433.392 569.582C420.213 592.909 409.309 617.323 403.248 645.432C401.82 653.13 404.843 660.335 405.848 667.753C406.34 671.384 408.51 674.191 412.83 673.766C430.168 672.058 446.133 675.232 459.294 688.171C482.04 660.295 513.313 646.595 542.024 629.495C558.799 619.503 571.169 622.293 583.813 635.336C589.985 630.729 596.221 626.028 602.508 621.395C614.901 612.262 628.687 607.68 644.072 610.184C660.521 612.862 669.908 623.839 675.515 642.206C675.977 626.758 676.401 614.737 673.46 602.967C667.174 577.807 665.527 553.074 678.577 529.219C680.974 524.837 680.323 520.04 678.237 515.318C673.028 503.525 671.526 491.088 671.366 478.213C671.081 455.193 677.084 432.537 675.334 409.54C673.671 387.684 669.491 367.078 648.318 354.053ZM233.5 657.748C239.149 655.899 244.52 657.64 247.405 663.403C249.544 667.675 249.83 672.569 245.568 675.473C239.77 679.422 233.308 682.011 226.706 674.874C223.675 666.452 225.573 660.343 233.5 657.748ZM312.821 643.652C316.54 639.959 321.539 639.669 326.101 642.628C330.631 645.566 332.867 650.158 330.445 655.041C327.137 661.711 321.417 664.098 313.438 660.363C307.223 654.446 307.771 648.669 312.821 643.652ZM551.276 445.803C557.068 437.599 567.011 439.093 575.945 440.755C578.287 441.19 580.564 442.007 582.842 442.739C590.342 445.151 597.371 448.705 598.081 457.456C598.825 466.629 591.445 470.188 584.504 473.484C574.555 478.208 572.49 484.573 578.744 493.6C586.16 504.302 596.576 509.107 610.401 507.451C617.818 505.547 622.502 501.165 626.467 495.827C628.999 492.419 631.734 488.584 636.413 492.046C640.813 495.301 640.049 500.019 637.504 504.059C629.616 516.583 617.912 523.859 603.324 523.257C594.908 522.909 591.985 526.203 588.834 532.653C579.738 551.272 561.255 557.707 544.499 548.467C534.333 542.861 529.12 534.021 529.162 522.43C529.192 514.216 526.863 508.503 518.621 504.558C506.526 498.768 499.343 488.426 497.418 474.862C496.691 469.742 497.146 464.539 503.114 463.411C509.485 462.207 509.396 467.579 510.389 472.058C514.757 491.763 539.555 500.31 555.641 487.836C562.435 482.567 563.125 475.586 557.745 468.526C552.596 461.77 545.101 454.551 551.276 445.803ZM554.045 506.932C546.333 506.499 543.601 511.504 543.66 517.813C543.74 526.415 547.884 533.064 556.57 535.558C564.031 537.701 571.733 532.266 575.539 523.271C578.977 515.147 574.293 511.367 568.365 507.811C564.793 510.826 565.427 515.074 563.81 518.394C562.311 521.471 561.65 525.389 555.783 521.863C553.441 517.185 558.242 511.692 554.045 506.932ZM700.296 373.079C695.106 370.272 689.85 368.244 682.735 372.003C692.257 389.725 691.345 409.013 692.285 429.861C691.242 441.09 689.758 452.3 689.266 463.553C688.64 477.868 687.737 492.336 693.101 506.138C699.025 521.38 709.502 525.519 724.056 518.471C733.702 513.799 742.061 507.287 749.878 500.062C768.987 482.401 771.092 465.624 755.705 444.914C743.851 428.958 732.966 412.405 722.147 395.767C716.359 386.866 709.986 378.319 700.296 373.079ZM314.902 360.025C312.717 379.673 309.232 396.965 297.712 411.527C286.203 426.075 269.155 431.894 252.436 439.654C264.623 465.634 284.52 481.369 309.082 492.048C326.553 499.644 345.058 503.854 363.898 504.25C385.158 504.697 406.23 501.641 426.032 492.881C428.267 491.892 430.727 490.996 430.861 488.166C431.028 484.662 427.809 485.174 424.332 484.026C417.753 482.993 411.594 480.718 406.816 476.057C392.46 462.052 383.126 445.123 379.101 425.481C374.887 404.918 380.898 387.274 397.677 371.101C367.168 381.085 340.762 375.939 314.902 360.025ZM509.814 331.406C497.519 325.922 486.368 329.513 475.569 335.02C455.239 345.389 438.596 360.802 420.16 376.207C416.952 378.771 413.644 381.221 410.552 383.918C395.609 396.953 392.145 410.219 398.78 428.952C401.882 437.709 406.265 445.855 411.357 453.586C423.344 471.787 438.6 471.601 451.131 453.434C457.688 443.929 460.874 433.148 463.922 422.271C472.952 390.05 484.117 358.948 509.033 334.921C509.609 334.366 509.471 333.071 509.814 331.406ZM629.558 420.858C635.165 419.871 638.675 423.058 640.405 428.114C642.673 434.74 640.71 440.548 635.232 444.446C629.889 448.247 624.889 446.924 621.048 440.316C620.438 437.5 619.995 435.474 619.995 433.447C619.996 426.883 622.749 422.057 629.558 420.858ZM528.775 400.392C538.108 399.454 540.423 405.587 540.254 414.247C538.23 421.058 535.17 425.997 527.995 425.405C522.829 424.979 520.522 420.905 519.434 416.34C517.733 409.206 522.258 401.046 528.775 400.392ZM515.378 113.138C466.191 4.43292 335.972 -10.2713 257.533 63.2978C222.037 96.5907 206.74 140.914 197.159 187.079C188.471 228.946 181.804 271.232 174.228 313.33C170.266 335.341 167.733 357.398 172.341 379.638C176.586 400.126 195.221 417.971 213.816 418.602C206.802 409.863 201.397 400.846 199.237 390.279C197.078 379.717 196.59 369.159 200.512 358.898C201.932 355.183 204.784 352.303 209.249 353.476C213.276 354.535 213.883 358.042 213.758 361.725C213.63 365.494 213.324 369.289 213.606 373.035C214.891 390.15 221.838 404.064 237.165 412.841C246.962 418.451 256.43 419.714 267.083 413.31C287.838 400.836 302.02 369.259 296.106 345.605C295.555 343.405 294.18 341.124 292.555 339.522C275.543 322.761 264.447 302.518 257.014 280.048C256.053 277.141 254.908 274.539 251.338 273.388C223.651 264.462 216.123 242.076 214.274 216.436C213.124 200.497 216.043 185.595 230.763 173.89C238.659 169.26 247.411 167.703 256.339 167.083C316.36 162.914 366.843 141.682 399.154 87.6737C401.148 84.3409 403.895 81.5696 408.352 82.538C412.862 83.5181 413.639 87.4658 414.616 91.1181C424.778 129.075 448.455 156.268 482.094 175.348C490.691 180.224 500.698 183.043 508.404 188.959C519.691 197.623 521.098 210.97 520.615 224.466C519.747 248.744 506.939 266.829 483.759 275.748C480.944 276.831 478.831 278.374 477.967 281.089C473.35 295.595 466.187 308.942 457.854 323.51C479.811 311.131 500.402 307.086 523.348 316.372C531.754 319.774 542.125 314.956 551.396 312.68C554.194 311.992 554.381 309.127 554.26 306.692C554.022 301.906 553.858 297.091 553.194 292.353C550.109 270.317 546.659 248.329 543.72 226.273C538.55 187.478 531.732 149.28 515.378 113.138ZM402.317 117.98C401.302 118.547 400.223 118.837 399.608 119.536C366.359 157.293 324.672 178.43 274.624 183.261C269.844 183.722 265.315 184.661 263.185 190.302C260.43 197.597 255.511 197.341 250.444 192.526C243.786 186.199 239.377 189.78 235.652 195.736C231.22 202.822 230.971 210.904 232.17 218.692C234.181 231.752 237.766 244.325 249.359 253.401C254.039 246.646 248.826 234.517 258.884 235.101C268.504 235.661 267.48 246.747 269.059 254.136C276.782 290.281 293.252 321.021 323.881 342.942C340.038 354.506 357.684 360.459 377.971 357.085C402.135 353.066 419.429 338.474 435.055 321.162C453.085 301.187 461.184 276.467 468.207 251.223C469.347 247.125 470.163 241.356 475.784 241.563C481.695 241.782 482.923 247.028 483.342 253.496C484.634 258.358 487.28 256.447 489.126 254.282C499.652 241.941 505.258 227.781 501.678 211.559C500.12 204.5 495.945 198.685 486.745 203.955C480.857 207.328 476.226 204.975 475.577 198.469C474.993 192.598 471.384 190.436 467.193 187.951C443.031 173.629 424.523 153.802 410.419 129.636C408.076 125.622 406.622 120.844 402.317 117.98ZM335.553 287.587C338.469 284.715 341.89 285.165 344.912 287.276C360.266 297.998 375.674 298.882 391.43 288.124C394.475 286.045 397.98 285.758 400.731 288.777C404.234 292.623 402.358 296.328 399.941 299.895C389.903 314.705 364.491 318.996 347.209 308.677C344.604 307.121 342.341 304.99 339.376 302.561C337.472 300.046 335.875 298.214 334.81 296.112C333.351 293.234 332.996 290.105 335.553 287.587ZM360.179 258.398C362.29 255.361 376.797 253.083 379.183 255.424C382.89 259.062 383.237 263.266 379.523 267.088C377.936 268.721 375.567 269.595 372.719 270.992C368.811 271.429 365.687 271.629 363.063 269.665C359.138 266.727 356.916 263.093 360.179 258.398ZM411.368 216.019C417.939 210.97 423.356 211.061 427.126 218.101C430.828 225.013 428.095 235.243 421.946 237.801C415.404 240.522 411.621 236.951 409.316 231.265C407.263 226.201 408.013 221.29 411.368 216.019ZM311.944 224.609C312.525 212.843 316.795 207.162 323.706 208.766C332.192 210.734 333.368 217.5 332.482 224.759C331.811 230.249 328.798 234.734 323.049 235.351C316.309 236.075 313.754 230.955 311.944 224.609ZM633.298 117.313C645.369 112.528 657.51 116.212 668.085 127.919C669.223 129.179 670.16 130.621 670.82 131.491C676.565 131.294 679.676 127.387 684.749 126.052C696.915 121.872 707.563 123.453 715.844 132.152C724.123 140.85 724.669 151.743 721.196 162.92C716.957 176.561 707.272 186.243 697.321 195.732C687.874 204.742 677.476 212.519 666.384 219.357C662.17 221.955 656.901 224.231 653.107 220.089C634.229 199.486 616.719 177.879 615.734 148.071C615.221 132.564 621.845 121.854 633.298 117.313ZM657.981 143.756C654.498 137.629 650.291 131.371 642.314 133.002C633.489 134.806 632.446 142.484 632.917 150.065C634.136 169.703 646.172 184.008 657.282 198.728C659.823 202.094 662.6 200.681 665.33 198.814C679.495 189.129 693.264 179.039 702.472 162.198C705.43 155.473 708.901 148.187 700.601 143.168C693.295 138.75 686.85 142.684 681.253 147.814C679.996 148.967 678.852 150.245 677.686 151.493C668.599 161.214 664.744 160.566 659.917 148.492C659.283 146.907 658.816 145.226 657.981 143.756Z" fill="#CB9959"/>
</svg>
