<svg width="1000" height="836" viewBox="0 0 1000 836" fill="none" xmlns="http://www.w3.org/2000/svg">
<path fill-rule="evenodd" clip-rule="evenodd" d="M99.9826 206.374C109.28 206.375 118.58 206.585 127.876 206.462C135.005 206.367 139.726 209.251 139.87 216.657C140.017 224.209 134.661 225.77 128.271 225.909C113.905 226.222 99.381 225.528 85.212 227.421C46.2783 232.62 19.7729 263.759 19.7423 303.192C19.6679 399.166 19.544 495.14 19.9093 591.112C19.9681 606.555 20.1614 622.629 24.2677 637.299C33.4685 670.166 61.5164 689.583 95.6427 689.629C150.209 689.701 204.775 689.65 259.341 689.719C349.912 689.835 440.484 689.846 531.052 690.49C537.45 690.536 543.814 695.417 550.415 699.338C550.535 699.575 550.655 699.806 550.773 700.03C552.061 701.288 553.34 703.213 554.707 705.708C553.988 704.99 553.24 704.086 552.481 702.975C553.279 704.229 554.039 705.272 554.801 706.313C556.308 712.06 557.815 717.808 558.369 724.091C554.836 726.735 551.964 729 549.209 731.215C551.958 729.015 554.803 726.838 558.172 724.722C557.503 738.694 556.077 752.569 553.795 766.602C551.11 763.493 549.335 760.06 547.152 756.999L546.678 756.349C549.084 759.57 550.891 763.304 553.371 767.142C553.701 768.445 553.6 769.365 553.109 770.873C549.66 773.101 545.313 776.84 543.599 776.282C545.311 776.843 549.645 773.124 552.72 771.46C548.636 785.483 544.553 799.506 539.93 815.381C544.888 814.02 549.216 813.502 552.93 811.711C595.523 791.168 628.178 760.949 645.766 716.04C654.309 694.227 661.708 689.488 685.166 689.614C719.659 689.8 754.152 690.007 788.646 690.091C795.437 690.107 801.625 690.691 802.363 699.288C802.949 706.097 798.669 709.605 788.816 709.692C755.522 709.987 722.226 709.992 688.932 710.195C670.54 710.307 670.801 710.499 663.435 727.656C642.115 777.316 605.161 811.124 555.913 831.909C549.223 834.732 541.378 835.637 534.021 835.856C524.704 836.133 519.511 830.816 519.151 821.428C518.948 816.14 519.638 810.569 521.183 805.508C525.293 792.043 530.083 778.786 535.224 765.739C537.98 769.205 539.709 773.279 542.486 775.54C539.712 773.275 538.018 769.156 535.631 765.213C536.329 759.794 537.239 755.194 538.425 750.03C541.057 751.425 543.843 753.004 545.807 755.253L545.403 754.811C543.476 752.786 540.916 751.261 538.7 749.465C538.949 746.449 539.198 743.432 539.6 739.673C541.94 737.234 544.163 735.319 546.382 733.501C544.167 735.303 541.964 737.12 539.755 738.929C539.091 710.231 539.09 710.114 510.234 710.1C372.562 710.037 234.889 710.141 97.2179 709.976C41.5714 709.909 -0.0840379 667.152 0.000127314 611.331C0.153404 509.651 0.110004 407.971 0.00891638 306.291C-0.0496624 247.176 40.6411 206.367 99.9826 206.374ZM849.291 514.656C874.746 513.289 891.211 527.829 902.351 549.421C903.584 551.812 904.647 554.292 905.819 556.716C905.917 556.918 906.25 557.007 906.985 557.471C919.891 547.173 934.247 539.628 951.524 539.401C985.357 538.957 1007 567.444 997.924 601.084C991.581 624.585 976.467 642.481 958.457 657.797C934.285 678.353 906.61 693.27 877.426 705.544C870.481 708.464 864.419 708.44 859.529 702.544C831.884 669.208 807.736 633.864 802.222 589.523C800.779 577.918 803.215 565.831 804.056 553.266C811.568 530.775 825.565 515.93 849.291 514.656ZM879.108 549.607C872.048 538.391 860.867 531.895 846.918 534.828C832.704 537.816 824.336 548.017 822.683 561.737C821.279 573.389 821.478 585.731 823.724 597.228C829.602 627.316 845.905 652.534 864.84 677.671C869.067 684.49 873.749 686.279 881.754 682.168C905.79 669.823 929.706 657.381 949.755 638.924C961.945 627.702 973.189 615.44 977.816 598.981C981.165 587.067 981.956 574.818 971.207 565.803C961.031 557.269 949.304 557.398 937.374 562.129C926.269 566.532 917.221 573.385 909.682 582.846C907.051 586.148 901.369 588.485 897.127 588.416C895.016 588.38 892.629 582.077 891.032 578.327C886.964 568.772 884.549 558.252 879.108 549.607ZM351.252 245.005C421.449 213.485 490.433 213.638 558.237 252.084C560.935 253.613 565.195 254.587 567.892 253.581C593.527 244.019 616.591 249.816 637.023 266.084C649.365 275.911 660.152 287.746 671.285 299.026C687.914 315.873 704.125 333.133 720.706 350.028C752.247 382.166 749.619 418.347 723.612 451.04C714.897 461.995 705.167 472.408 694.598 481.565C678.045 495.906 658.897 503.461 636.547 497.14C627.631 524.817 623.133 551.484 637.855 579.007C646.53 595.225 651.338 613.533 657.609 631.001C659.111 635.185 659.763 639.733 660.355 644.174C661.121 649.926 658.982 654.449 652.967 655.716C646.9 656.994 643.749 653.592 641.715 648.028C632.98 624.134 624.841 599.966 614.807 576.62C606.464 557.208 604.474 538.081 610.185 517.944C610.675 516.215 610.943 514.424 611.405 512.686C615.736 496.428 617.664 482.119 605.483 466.216C591.418 447.854 591.11 423.529 589.284 400.757C588.231 387.617 587.349 374.463 586.382 361.316C584.15 330.993 573.41 303.568 557.359 278.128C554.957 274.321 550.468 271.548 546.462 269.082C502.104 241.768 454.111 237.593 404.323 248.242C390.105 251.283 376.432 257.078 362.707 262.144C356.356 264.489 351.632 268.263 348.814 275.707C345.489 284.487 338.563 291.832 333.876 300.18C318.15 328.191 312.33 358.944 308.728 390.454C306.629 408.813 304.176 427.374 299.151 445.068C295.996 456.173 287.629 465.761 281.922 476.205C280.388 479.012 278.844 482.666 279.343 485.582C281.31 497.083 283.136 508.759 286.765 519.794C294.452 543.169 291.162 564.945 281.301 586.95C272.253 607.141 264.777 628.046 256.902 648.749C254.638 654.7 250.033 657.443 245.168 655.12C241.945 653.58 238.219 647.328 238.975 644.222C242.22 630.89 246.768 617.844 251.357 604.877C257.842 586.551 264.782 568.385 271.577 549.387C267.59 529.68 263.554 510.736 259.361 491.063C232.79 498.349 214.618 485.632 198.027 469.331C191.421 462.839 185.069 455.933 179.555 448.508C151.859 411.216 152.353 380.221 182.886 345.393C204.013 321.294 226.141 297.921 249.451 275.951C261.641 264.462 276.708 255.499 291.638 247.589C307.029 239.434 323.919 239.954 340.6 245.704C343.736 246.785 348.168 246.389 351.252 245.005ZM425.844 407.62C440.404 402.531 455.41 402.134 469.824 408.185C485.517 414.774 487.292 429.263 474.098 439.839C471.067 442.268 467.784 444.412 464.481 446.468C455.588 452.005 452.764 461.97 459.056 470.434C469.128 483.984 482.932 491.232 500.106 490.357C516.244 489.534 527.616 480.983 534.658 466.742C536.983 462.04 538.447 456.171 545.238 459.076C551.932 461.939 551.544 468.211 549.314 473.796C541.879 492.406 528.098 503.904 508.635 508.454C503.73 509.6 498.658 510.033 493.799 510.773C483.677 548.954 470.68 562.096 444.509 560.842C420.473 559.691 407.44 543.876 400.844 507.347C384.981 506.402 370.15 501.572 359.799 488.782C354.501 482.235 350.657 474.089 348.001 466.055C347.06 463.208 350.676 456.684 353.823 455.155C358.689 452.791 361.131 457.283 362.954 462.116C368.659 477.232 380.095 485.82 396.066 487.29C412.644 488.815 426.936 483.088 437.344 469.974C442.728 463.189 439.304 451.24 432.342 445.737C426.988 441.506 422.282 436.452 416.962 431.178C412.156 418.975 414.706 411.512 425.844 407.62ZM448.538 520.575C446.974 520.559 445.409 520.543 443.845 520.527C443.091 511.369 442.338 502.211 441.548 492.612C437.838 494.59 435.229 496.028 432.58 497.385C417.695 505.013 417.468 505.542 422.179 522.412C426.657 538.449 439.116 545.322 456.612 540.21C459.073 538.55 461.76 537.143 463.955 535.186C471.75 528.238 474.669 518.648 473.087 509.179C472.349 504.763 465.454 501.258 461.129 497.601C458.466 495.349 455.387 493.59 452.122 491.355C450.883 501.459 449.711 511.017 448.538 520.575ZM602.236 270.547C593.211 266.555 582.521 266.684 573.131 274.337C587.772 287.849 595.338 304.714 598.754 322.595C603.625 348.093 605.948 374.078 609.459 401.531C611.478 423.704 613.969 445.806 627.061 464.832C638.067 480.828 652.127 484.21 669.133 474.942C688.926 464.156 702.978 447.308 714.792 428.757C728.794 406.772 727.098 386.162 709.392 367.085C685.546 341.394 661.426 315.891 636.166 291.616C626.74 282.557 614.341 275.899 602.236 270.547ZM765.938 207.076C789.784 206.579 813.893 203.818 836.971 213.394C872.116 227.978 895.631 262.48 895.715 300.645C895.832 353.731 895.867 406.818 895.898 459.904C895.899 463.186 896.716 467.312 895.094 469.556C892.59 473.021 888.454 476.985 884.723 477.298C882.196 477.509 877.949 472.247 876.691 468.655C875.175 464.329 875.855 459.179 875.852 454.385C875.814 404.299 876.381 354.202 875.441 304.132C875.207 291.674 870.149 279.305 866.982 266.307C852.592 241.078 831.245 228.072 803.062 226.513C791.095 225.851 779.079 226.103 767.087 225.868C761.273 225.754 757.318 222.243 758.316 216.934C759.026 213.153 763.204 207.133 765.938 207.076ZM334.254 265.785C317.008 258.004 300.909 262.185 287.309 272.084C271.703 283.442 258.012 297.432 242.606 311.2C225.853 329.16 208.62 346.7 192.489 365.202C177.399 382.51 175.933 403.597 187.24 423.731C196.446 440.122 208.569 454.125 223.801 465.253C241.391 478.104 258.362 474.961 271.132 457.156C283.015 440.587 286.333 421.481 287.757 401.962C290.572 363.393 296.621 325.717 316.484 291.701C321.685 282.795 328.145 274.623 334.254 265.785ZM514.639 368.685C518.737 365.852 522.924 361.526 526.287 362.091C529.911 362.701 534.256 367.358 535.634 371.201C538.312 378.668 538.326 387.146 531.147 392.366C528.342 394.404 521.829 394.757 519.109 392.86C510.699 386.994 512.161 377.996 514.639 368.685ZM374.661 358.372C377.938 358.164 383.779 361.324 384.427 363.996C386.077 370.795 386.922 378.495 385.334 385.179C383.7 392.058 377.439 394.435 369.787 390.53C362.368 382.694 361.846 373.908 365.517 365.259C366.865 362.084 371.387 358.58 374.661 358.372ZM201.683 76.6149C205.854 63.8958 214.466 62.022 223.773 71.7721C231.013 79.3577 237.472 87.7044 244.89 95.0993C247.437 97.6389 251.808 99.5403 255.393 99.6208C265.259 99.8422 275.147 98.7771 285.033 98.5319C298.864 98.1889 304.595 107.703 297.868 119.88C293.086 128.535 287.657 136.842 283.11 145.612C281.694 148.345 281.248 152.338 282.028 155.316C284.683 165.445 288.319 175.312 291.141 185.402C294.765 198.362 287.697 206.065 274.42 203.514C265.012 201.707 255.579 199.672 246.476 196.749C240.192 194.731 235.999 196.148 231.272 200.342C223.44 207.289 215.195 213.843 206.647 219.887C196.977 226.725 187.587 223.131 185.364 211.102C183.586 201.474 183.632 191.424 183.693 181.567C183.735 174.59 181.679 170.026 175.318 166.465C167.774 162.242 160.968 156.701 153.328 151.334C147.322 147.777 141.776 143.35 144.259 136.887C146.092 132.115 151.159 127.391 155.953 125.188C167.332 119.959 182.487 119.204 190.314 111.063C197.863 103.21 197.86 88.2731 201.683 76.6149ZM675.389 71.0934C683.954 62.2771 692.442 64.0676 696.594 75.7008C700.314 86.1241 702.881 96.9581 706.572 107.393C707.551 110.161 710.37 113.14 713.077 114.282C723.274 118.581 733.902 121.854 744.126 126.093C755.77 130.921 757.105 141.373 747.132 148.821C738.252 155.452 728.798 161.332 720.125 168.21C717.354 170.407 715.064 174.591 714.647 178.114C713.415 188.501 713.914 199.108 712.471 209.452C710.515 223.47 700.613 227.254 689.351 218.731C681.711 212.95 674.207 206.938 667.093 200.53C662.201 196.124 657.665 194.566 651.046 196.822C642.578 199.709 633.697 201.48 624.903 203.293C610.331 206.296 603.339 199.399 607.121 184.91C609.678 175.115 614.354 165.889 617.325 156.177C618.28 153.058 617.823 148.665 616.282 145.778C611.352 136.538 605.362 127.869 600.244 118.721C593.84 107.275 599.384 98.1637 612.376 98.5339C621.355 98.7897 630.387 98.9415 639.276 100.077C646.634 101.017 652.142 99.3093 656.474 92.445C663.048 84.9758 668.924 77.7481 675.389 71.0934ZM216.228 91.5016C213.456 102.082 211.95 111.04 208.615 119.257C206.862 123.578 202.539 127.978 198.273 129.926C189.255 134.045 179.513 136.577 168.813 140.182C178.702 146.212 187.344 151.482 197.119 157.516C198.706 160.852 201.296 164.073 201.691 167.544C202.838 177.646 203.108 187.848 203.795 199.236C212.108 192.128 219.386 186.36 226.115 180.01C231.736 174.708 237.474 173.202 244.9 175.79C253.077 178.64 261.563 180.604 271.416 183.376C267.458 173.188 264.513 165.028 261.122 157.058C258.228 150.256 259.44 144.51 263.733 138.684C268.425 132.317 272.504 125.497 277.808 117.416C267.605 118.099 259.251 118.184 251.049 119.34C242.717 120.516 236.747 118.202 231.93 111.155C227.5 104.674 222.144 98.8271 216.228 91.5016ZM681.912 91.5837C676.86 97.7714 672.587 102.075 669.419 107.078C662.867 117.424 654.312 121.192 642.092 118.789C635.46 117.484 628.361 118.556 620.817 118.556C625.4 125.196 629.135 131.36 633.62 136.92C639.786 144.562 640.571 152.276 636.445 161.118C633.327 167.802 631.059 174.883 627.865 183.216C632.403 181.995 635.768 181.089 640.485 179.713C643.661 178.862 647.022 178.421 649.98 177.088C660.519 172.335 668.827 175.45 676.464 183.333C681.802 188.843 687.812 193.704 693.522 198.854C694.441 198.628 695.361 198.401 696.28 198.174C696.28 188.734 696.661 179.274 696.154 169.861C695.78 162.918 698.642 158.636 704.336 155.277C711.994 150.759 719.422 145.85 728.223 140.306C719.956 137.374 713.4 134.472 706.547 132.748C695.383 129.939 689.224 123.51 687.61 111.927C686.71 105.463 684.121 99.234 681.912 91.5837ZM449.554 0.00651157C453.249 -0.210605 458.507 5.0461 460.98 9.14128C467.936 20.6639 473.56 32.9848 480.298 44.651C481.944 47.5008 485.599 50.3747 488.754 50.9626C501.976 53.4263 515.361 55.0204 528.684 56.944C539.271 58.4726 542.222 61.8665 542.492 73.5592C531.775 85.5498 521.323 97.0471 510.446 108.127C506.801 111.84 505.08 114.964 506.122 120.565C508.527 133.497 509.958 146.62 511.517 159.698C513.082 172.827 504.869 179.258 492.854 174C479.964 168.359 467.505 161.727 454.568 156.206C451.347 154.831 446.506 154.9 443.278 156.304C430.657 161.797 418.576 168.535 405.927 173.955C394.237 178.963 385.893 173.154 386.896 160.514C387.911 147.709 390.257 134.997 392.312 122.291C393.238 116.563 392.313 112.207 387.719 107.965C378.256 99.2301 368.915 90.2331 360.651 80.3971C357.529 76.6819 355.382 69.671 356.735 65.4176C357.919 61.6984 364.32 58.289 368.967 57.279C382.104 54.4241 395.595 53.2199 408.785 50.568C412.218 49.8779 416.193 46.9316 417.98 43.8844C424.641 32.5221 429.974 20.3621 436.92 9.19499C439.57 4.93448 445.093 0.269089 449.554 0.00651157ZM448.745 27.1589C443.446 36.9915 437.828 45.5738 434.062 54.904C429.979 65.0179 422.937 68.4863 412.816 69.2946C402.382 70.1278 392.04 72.1272 382.779 73.4557C390.941 82.3548 398.767 91.0028 406.728 99.5241C411.244 104.358 413.871 109.382 412.341 116.473C410.008 127.286 408.507 138.279 406.6 150.686C408.92 150.536 411.537 151.025 413.506 150.114C419.476 147.351 425.514 144.516 430.948 140.854C442.814 132.86 453.983 131.789 466.297 140.498C474.042 145.975 483.167 149.501 493.422 154.806C490.774 141.298 488.803 130.135 486.346 119.081C484.543 110.968 486.503 104.722 492.732 98.9967C500.974 91.4215 508.505 83.073 517.489 73.8835C503.787 72.0789 492.058 70.1241 480.247 69.1374C473.443 68.5689 469.365 65.7643 466.353 59.7555C461 49.08 455.032 38.7132 448.745 27.1589Z" fill="#C48D4B"/>
</svg>
