<svg width="774" height="850" viewBox="0 0 774 850" fill="none" xmlns="http://www.w3.org/2000/svg">
<path fill-rule="evenodd" clip-rule="evenodd" d="M454.863 500.857C480.853 496.299 498.915 510.163 517.065 550.126C537.894 520.503 562.897 500.555 599.293 522.463C626.826 539.037 631.794 569.977 616.957 612.494C654.669 607.673 673.324 615.655 685.364 641.767C697.437 667.951 690.376 702.225 668.888 721.741C647.772 740.919 624.851 741.905 592.374 723.531C609.482 761.802 624.866 798.707 589.766 834.221C567.517 852.691 542.54 854.089 519.14 842.866C490.351 829.06 461.692 825.852 431.078 831.726C421.017 833.656 410.858 832.158 401.11 829.698C367.394 821.192 350.24 787.957 360.186 752.141C365.489 733.049 377.659 718.06 390.82 700.365C357.189 707.116 332.291 698.538 320.022 667.428C309.279 640.186 312.823 613.981 333.609 592.582C354.292 571.29 378.6 570.483 405.475 586.787C402.379 566.317 403.259 548.188 412.559 531.569C421.884 514.902 435.61 504.233 454.863 500.857ZM544.465 691.524C518.654 656.56 493.73 652.139 454.883 675.172C437.833 686.878 422.903 701.065 408.113 715.387C398.063 725.119 389.561 736.189 384.274 749.17C377.817 765.026 375.815 781.594 387.284 795.849C398.799 810.161 414.928 814.033 432.79 810.438C462.395 804.479 491.182 804.905 518.52 820.014C523.946 823.012 530.239 824.729 536.336 826.174C569.508 834.033 595.073 809.276 588.563 775.654C582.287 743.238 563.413 717.19 544.465 691.524ZM300.684 0.00317192C331 0.287208 357.557 19.2724 369.479 50.3381C372.345 57.8045 376.593 61.1845 383.947 61.8577C395.233 62.8906 406.509 64.048 417.807 64.927C427.733 65.6993 436.907 67.7174 443.195 76.5149C446.703 81.4224 452.2 80.1517 457.143 80.2854C483.589 81.0004 510.052 79.1424 536.493 82.427C577.225 87.487 599.26 110.831 599.418 151.943C599.741 236.035 599.553 320.129 599.568 404.223C599.571 421.462 599.588 438.702 599.507 455.941C599.469 464.012 599.903 474.235 589.34 474.471C577.971 474.724 577.929 464.189 577.922 455.673C577.842 358.966 577.813 262.258 577.894 165.55C577.903 155.824 577.242 146.225 575.112 136.757C571.242 119.549 557.815 106.853 540.286 104.744C513.104 101.475 485.735 102.086 458.423 101.477C448.251 101.25 448.187 107.368 448.126 114.646C448.061 122.388 448.079 128.912 458.963 128.575C474.923 128.082 490.921 128.269 506.89 128.663C538.223 129.437 552.945 144.406 552.996 175.881C553.147 268.383 553.162 360.885 552.976 453.387C552.957 462.758 553.76 475.905 540.544 475.424C528.123 474.972 530.242 462.165 530.231 453.262C530.124 361.18 530.193 269.097 530.225 177.015C530.232 155.765 524.78 150.247 503.449 150.12C494.62 150.068 485.775 150.442 476.963 150.052C462.195 149.399 448.187 148.192 441.241 166.447C438.288 174.206 429.098 177.154 420.102 178.09C399.949 180.187 379.77 179.257 359.609 179.33C302.847 179.538 246.082 179.238 189.321 179.54C171.705 179.634 157.797 174.697 151.403 156.81C149.495 151.471 145.637 150.166 140.577 150.198C123.759 150.306 106.929 149.931 90.1259 150.459C74.6679 150.945 69.2067 156.913 69.205 172.453C69.187 356.197 69.2157 539.941 69.2958 723.685C69.3039 742.268 73.7243 746.526 92.5507 746.54C158.564 746.589 224.578 746.535 290.592 746.605C296.028 746.611 301.565 746.737 306.873 747.755C312.183 748.774 316.37 752.209 315.889 758.191C315.426 763.937 311.157 766.938 305.737 767.822C302.446 768.358 299.031 768.237 295.672 768.239C226.715 768.278 157.759 768.361 88.8027 768.277C61.4066 768.243 48.6584 754.562 47.7617 727.077C45.6641 662.78 46.237 598.479 46.4931 534.176C46.6822 486.702 48.5507 439.198 47.3808 391.764C45.5661 318.187 47.5225 244.66 47.7665 171.112C47.8577 143.668 60.4523 130.188 88.1992 128.995C104.57 128.292 121 128.297 137.382 128.752C147.16 129.024 149.627 124.571 149.403 115.773C149.191 107.437 148.895 100.82 137.614 101.145C111.566 101.894 85.4762 101.965 59.5615 104.898C40.2315 107.085 26.8564 121.09 23.8681 140.174C22.2341 150.609 21.6827 161.031 21.6894 171.564C21.8049 354.046 21.8138 536.529 22.0038 719.012C22.0169 731.598 22.9004 744.216 24.0341 756.76C25.9406 777.855 40.4491 792.598 61.4482 794.301C74.4122 795.352 87.4862 795.313 100.511 795.311C164.422 795.301 228.333 795.122 292.244 795.071C296.854 795.067 301.491 795.385 306.068 795.94C312.603 796.732 317.444 799.733 316.977 807.185C316.54 814.133 311.515 816.143 305.523 816.287C284.966 816.781 264.407 817.443 243.847 817.514C191.768 817.694 139.689 817.608 87.6103 817.572C81.3099 817.567 75.0082 817.235 68.7089 817.013C23.5144 815.417 0.441917 787.414 0.396418 742.085C0.268981 614.684 0.104441 487.282 0.0145821 359.88C-0.0316946 294.287 0.0440491 228.694 0.0770821 163.101C0.105724 106.236 22.5418 82.8117 79.6288 80.6555C97.2663 79.9893 114.947 80.1393 132.602 80.3625C143.261 80.4973 153.4 80.7471 161.227 71.2756C163.612 68.39 168.636 67.6849 173.483 65.7639C188.703 63.9891 202.87 62.1969 217.086 60.9758C223.836 60.396 227.274 57.4317 229.718 51.0129C241.721 19.4802 269.604 -0.287947 300.684 0.00317192ZM641.475 630.34C623.753 629.661 610.706 637.746 602.451 652.836C593.269 669.621 593.957 686.73 604.355 702.944C612.049 714.939 628.842 719.943 642.23 714.798C658.166 708.674 670.889 687.698 670.689 667.878C670.527 651.723 660.138 637.719 641.475 630.34ZM511.238 590.532C502.043 607.743 491.13 620.45 473.899 625.323C456.605 630.215 440.145 627.505 423.415 614.034C430.116 635.304 428.544 653.265 420.277 673.858C448.264 653.584 473.283 635.075 506.751 640.349C539.953 645.58 557.37 671.438 576.871 697.74C574.104 673.826 574.475 671.334 584.885 638.857C552.231 643.9 540.86 640.417 523.585 618.873C517.779 610.942 516.087 600.979 511.238 590.532ZM382.185 597.189C366.087 591.192 350.34 599.973 338.614 622.937C336.353 628.956 336.13 635.282 336.24 641.561C336.635 663.988 349.647 681.26 367.244 683.034C383.627 684.687 400.32 669.831 405.394 649.083C410.667 627.527 400.079 603.855 382.185 597.189ZM582.406 536.388C569.876 530.736 555.878 535.248 544.697 548.255C534.712 559.871 532.066 573.355 534.119 590.244C538.145 605.754 545.257 618.645 563.098 620.615C578.791 622.349 592.86 612.332 600.496 594.549C602.619 589.605 604.248 584.284 605.072 578.976C607.686 562.152 597.342 543.126 582.406 536.388ZM483.501 530.656C464.474 515.092 443.697 518.386 431.807 539.415C423.785 553.603 422.207 568.79 428.421 584.182C433.81 597.53 442.789 607.112 458.109 607.534C473.255 607.952 483.435 599.354 489.591 586.436C498.571 567.591 497.695 549.152 483.501 530.656ZM193.998 498.642C199.388 493.094 205.238 488.665 212.242 495.641C218.731 502.104 214.655 507.746 209.679 513.01C203.047 520.025 196.575 527.19 189.993 534.252C180.265 544.689 170.481 555.074 160.757 565.515C152.267 574.631 146.24 574.857 137.638 565.643C129.619 557.054 121.759 548.287 114.313 539.202C108.035 531.542 108.001 524.628 119.577 520.488C133.168 523.755 137.503 537.311 148.681 543.52C159.091 536.463 166.338 525.989 175.388 517.433C181.79 511.379 187.855 504.965 193.998 498.642ZM667.602 429.183C684.247 424.139 699.6 430.17 710.309 447.199C714.1 453.229 717.424 453.643 723.562 451.459C737.763 446.409 751.572 447.007 764.564 457.736C777.611 475.121 776.757 495.339 762.034 512.365C742.543 534.904 716.913 548.131 689.395 558.037C683.72 560.081 677.21 560.46 673.552 554.339C657.395 527.3 640.991 500.357 643.178 466.81C644.361 448.652 653.807 433.363 667.602 429.183ZM315.166 524.46C321.415 524.459 327.99 525.261 327.623 533.168C327.299 540.157 320.745 540.743 315.201 540.799C300.137 540.952 285.07 540.847 268.834 540.841C266.408 540.828 265.149 540.88 263.898 540.795C257.611 540.367 249.822 540.644 250.133 531.898C250.417 523.912 257.868 524.506 263.691 524.477C280.849 524.39 298.008 524.465 315.166 524.46ZM695.75 464.227C692.613 456.065 687.819 448.126 678.111 449.036C668.424 449.944 664.843 458.354 663.668 467.208C663.181 470.875 663.426 474.702 663.794 478.41C665.623 496.835 674.577 512.56 682.896 528.546C686.136 534.771 690.441 535.426 696.38 532.649C710.854 525.88 724.913 518.427 736.958 507.784C742.624 502.778 747.581 496.994 750.467 489.851C752.935 483.742 753.775 477.592 748.377 472.401C743.468 467.68 737.903 468.202 732.009 470.435C724.779 473.173 718.933 477.83 711.788 484.092C704.373 486.712 700.779 483.018 699.007 476.341C697.933 472.297 697.242 468.109 695.75 464.227ZM264.596 431.087C309.434 430.99 354.273 431.012 399.112 431.056C403.685 431.06 408.743 430.655 411.368 435.545C413.489 439.496 412.08 442.806 407.125 445.345C386.106 449 365.969 446.83 345.902 447.115C319.088 447.495 292.264 447.255 265.445 447.119C259.315 447.088 251.185 448.116 250.739 439.44C250.272 430.343 258.431 431.101 264.596 431.087ZM194.741 370.234C199.715 365.387 205.648 362.865 211.477 367.988C218.28 373.968 214.758 380.212 209.919 385.478C196.319 400.278 182.513 414.892 168.181 430.246C164.733 433.992 161.989 437.166 159.032 440.127C152.069 447.1 144.872 447.076 138.396 439.743C129.805 430.015 121.553 419.981 113.359 409.911C109.558 405.24 108.352 399.679 113.085 395.171C118.162 390.335 123.954 391.369 128.733 396.148C135.191 402.604 141.363 409.346 147.668 415.977C158.438 405.698 168.663 396.033 178.773 386.251C184.191 381.01 189.342 375.494 194.741 370.234ZM445.451 393.149C448.802 393.15 452.174 393.21 455.497 393.586C459.242 394.01 461.759 396.376 462.233 400.04C462.728 403.863 460.173 406.218 456.98 407.822C452.66 409.992 447.962 409.523 443.375 409.529C403.073 409.581 362.771 409.576 321.207 409.589C302.733 409.575 285.52 409.655 268.31 409.48C264.164 409.438 259.938 408.92 255.912 407.947C252.421 407.102 250.064 404.47 250.272 400.58C250.479 396.733 252.955 394.365 256.584 393.812C260.293 393.247 264.104 393.188 267.87 393.185C327.064 393.141 386.258 393.134 445.451 393.149ZM393.435 302.529C398.565 302.529 403.856 302.839 406.434 308.226C408.815 313.204 405.736 316.04 400.426 318.304C354.036 318.696 308.746 318.843 263.457 318.894C257.525 318.9 250.345 318.927 250.583 310.711C250.81 302.85 257.873 302.634 263.846 302.621C307.042 302.532 350.239 302.526 393.435 302.529ZM197.437 239.549C202.027 235.725 207.565 235.131 212.171 239.831C216.856 244.612 215.882 249.99 211.815 254.482C193.833 274.343 175.831 294.194 157.427 313.661C152.116 319.278 145.151 319.514 139.689 313.433C130.464 303.163 121.562 292.588 112.881 281.853C109.162 277.254 108.033 271.585 113.089 267.176C118.33 262.606 124.051 263.742 128.88 268.317C132.518 271.764 136.286 275.279 139.059 279.395C145.775 289.366 151.666 287.89 158.615 279.522C165.293 271.48 172.792 264.12 180.552 255.828C186.564 249.944 191.672 244.352 197.437 239.549ZM446.115 264.55C448.63 264.551 451.157 264.562 453.659 264.779C458.268 265.178 462.07 267.222 462.408 272.153C462.81 278.009 458.403 280.353 453.509 280.641C444.725 281.157 435.9 281.026 427.093 281.059C414.086 281.107 401.078 281.063 386.81 281.056C346.107 281.045 306.666 281.053 267.226 281.001C263.466 280.996 259.616 281.058 255.972 280.301C251.846 279.444 249.584 276.367 249.787 272.014C249.97 268.092 252.558 265.878 256.099 265.219C259.366 264.611 262.769 264.562 266.112 264.56C326.113 264.527 386.114 264.536 446.115 264.55ZM306.004 22.885C275.389 21.4873 253.657 37.4124 247.026 68.0081C244.719 78.6546 239.521 81.4293 229.903 81.9963C214.86 82.8834 199.876 84.7969 184.87 86.3049C175.285 87.2682 170.786 92.6985 170.81 102.236C170.841 114.828 170.771 127.42 170.696 140.012C170.632 150.814 175.943 156.421 186.751 156.592C195.144 156.725 203.54 156.697 211.935 156.693C276.997 156.658 342.061 156.675 407.123 156.528C424.268 156.489 426.628 153.907 426.738 136.584C426.813 124.832 426.571 113.077 426.707 101.325C426.81 92.3843 423.459 87.114 413.803 86.3518C399.611 85.2316 385.477 82.4662 371.301 82.3381C358.897 82.2261 353.54 77.3281 350.802 65.4836C345.553 42.783 331.785 27.6138 306.004 22.885ZM283.747 48.0491C290.332 40.3556 299.258 38.4939 308.672 43.2756C321.173 49.6262 322.667 65.4594 311.337 78.9192C299.813 86.1832 290.413 83.9557 282.979 74.4729C276.173 65.7898 276.82 56.1433 283.747 48.0491Z" fill="#CB9959"/>
</svg>
